<svg viewBox="0 0 16 18" fill="none" xmlns="http://www.w3.org/2000/svg">
<path d="M2 18C1.436 18 0.961667 17.8077 0.577 17.423C0.192333 17.0383 0 16.564 0 16V13.23H3V0H16V16C16 16.564 15.8077 17.0383 15.423 17.423C15.0383 17.8077 14.564 18 14 18H2ZM14 17C14.2833 17 14.521 16.904 14.713 16.712C14.905 16.52 15.0007 16.2827 15 16V1H4V13.23H13V16C13 16.2833 13.096 16.521 13.288 16.713C13.48 16.905 13.7173 17.0007 14 17ZM5.385 5.385V4.385H13.615V5.385H5.385ZM5.385 8.154V7.154H13.615V8.154H5.385Z" fill="#898C98"/>
</svg>
