<svg viewBox="0 0 48 48" fill="none" xmlns="http://www.w3.org/2000/svg">
<g filter="url(#filter0_d_3235_84110)">
<rect x="2" y="4" width="40" height="40" rx="20" fill="#D02E27"/>
<path d="M23.1453 33H20.9465C20.8357 33 20.7398 32.9616 20.6588 32.8849C20.5779 32.8082 20.5374 32.7102 20.5374 32.5909V28.3722H16.8556C16.7448 28.3722 16.6489 28.3338 16.5679 28.2571C16.4869 28.1804 16.4465 28.0824 16.4465 27.9631V26.6463C16.4465 26.5355 16.4869 26.4396 16.5679 26.3587C16.6489 26.2777 16.7448 26.2372 16.8556 26.2372H20.5374V25.1506H16.8556C16.7448 25.1506 16.6489 25.1122 16.5679 25.0355C16.4869 24.9588 16.4465 24.8608 16.4465 24.7415V23.4119C16.4465 23.3011 16.4869 23.2053 16.5679 23.1243C16.6489 23.0433 16.7448 23.0028 16.8556 23.0028H19.5914L15.4877 15.6136C15.4195 15.4773 15.4195 15.3409 15.4877 15.2045C15.5729 15.0682 15.6922 15 15.8456 15H18.3257C18.4877 15 18.6112 15.0767 18.6965 15.2301L21.445 20.6634C21.607 20.9872 21.8456 21.5199 22.161 22.2614C22.2462 22.0568 22.3762 21.767 22.5509 21.392C22.7256 21.017 22.8428 20.7571 22.9024 20.6122L25.3442 15.2429C25.4124 15.081 25.536 15 25.7149 15H28.1567C28.3016 15 28.4166 15.0682 28.5019 15.2045C28.5786 15.3239 28.5828 15.456 28.5146 15.6009L24.5132 23.0028H27.2618C27.3726 23.0028 27.4685 23.0433 27.5494 23.1243C27.6304 23.2053 27.6709 23.3011 27.6709 23.4119V24.7415C27.6709 24.8608 27.6304 24.9588 27.5494 25.0355C27.4685 25.1122 27.3726 25.1506 27.2618 25.1506H23.5544V26.2372H27.2618C27.3726 26.2372 27.4685 26.2777 27.5494 26.3587C27.6304 26.4396 27.6709 26.5355 27.6709 26.6463V27.9631C27.6709 28.0824 27.6304 28.1804 27.5494 28.2571C27.4685 28.3338 27.3726 28.3722 27.2618 28.3722H23.5544V32.5909C23.5544 32.7017 23.5139 32.7976 23.433 32.8786C23.352 32.9595 23.2561 33 23.1453 33Z" fill="white"/>
</g>
<defs>
<filter id="filter0_d_3235_84110" x="0" y="0" width="48" height="48" filterUnits="userSpaceOnUse" color-interpolation-filters="sRGB">
<feFlood flood-opacity="0" result="BackgroundImageFix"/>
<feColorMatrix in="SourceAlpha" type="matrix" values="0 0 0 0 0 0 0 0 0 0 0 0 0 0 0 0 0 0 127 0" result="hardAlpha"/>
<feOffset dx="2"/>
<feGaussianBlur stdDeviation="2"/>
<feComposite in2="hardAlpha" operator="out"/>
<feColorMatrix type="matrix" values="0 0 0 0 0.9729 0 0 0 0 0.819243 0 0 0 0 0.812603 0 0 0 0.3 0"/>
<feBlend mode="normal" in2="BackgroundImageFix" result="effect1_dropShadow_3235_84110"/>
<feBlend mode="normal" in="SourceGraphic" in2="effect1_dropShadow_3235_84110" result="shape"/>
</filter>
</defs>
</svg>
