<svg viewBox="0 0 171 118" fill="none" xmlns="http://www.w3.org/2000/svg">
<path fill-rule="evenodd" clip-rule="evenodd" d="M8.0414 10.7543C8.0414 12.3706 6.62273 13.5828 4.59607 13.5828C2.56811 13.5828 0.946806 12.3706 0.744141 10.7543C0.744141 9.13801 2.16278 7.92578 4.19075 7.92578C6.2174 7.92578 7.83874 9.34004 8.0414 10.7543Z" fill="currentColor"/>
<path fill-rule="evenodd" clip-rule="evenodd" d="M18.3787 10.7543C18.5814 12.3706 16.9588 13.5828 14.9322 13.5828C12.9056 13.5828 11.2843 12.3706 11.0816 10.7543C10.8789 9.13801 12.5002 7.92578 14.5268 7.92578C16.5535 8.12782 18.1747 9.34004 18.3787 10.7543Z" fill="currentColor"/>
<path fill-rule="evenodd" clip-rule="evenodd" d="M28.9166 10.7543C29.1193 12.3706 27.498 13.5828 25.4713 13.5828C23.4447 13.5828 21.6207 12.3706 21.6207 10.7543C21.418 9.13801 23.0393 7.92578 25.066 7.92578C26.89 8.12782 28.714 9.34004 28.9166 10.7543Z" fill="currentColor"/>
<path fill-rule="evenodd" clip-rule="evenodd" d="M39.4568 10.7543C39.6595 12.3706 38.0381 13.5828 36.0115 13.5828C33.9849 13.5828 32.1609 12.3706 32.1609 10.7543C31.9569 9.13801 33.5796 7.92578 35.6062 7.92578C37.6328 7.92578 39.2541 9.34004 39.4568 10.7543Z" fill="currentColor"/>
<path fill-rule="evenodd" clip-rule="evenodd" d="M8.44689 18.8363C8.44689 20.4526 7.0282 21.6661 5.00018 21.6661C2.97347 21.6661 1.14941 20.4526 1.14941 18.8363C1.14941 17.22 2.56813 16.0078 4.59484 16.0078C6.62286 16.0078 8.44689 17.22 8.44689 18.8363Z" fill="currentColor"/>
<path fill-rule="evenodd" clip-rule="evenodd" d="M18.9848 18.8363C19.1874 20.4526 17.5661 21.6661 15.5395 21.6661C13.5129 21.6661 11.689 20.4526 11.689 18.8363C11.4864 17.22 13.1076 16.0078 15.1342 16.0078C17.1608 16.0078 18.7821 17.22 18.9848 18.8363Z" fill="currentColor"/>
<path fill-rule="evenodd" clip-rule="evenodd" d="M29.5251 18.8363C29.7278 20.4526 28.1064 21.6661 26.0797 21.6661C24.0531 21.6661 22.2291 20.4526 22.2291 18.8363C22.0264 17.22 23.6477 16.0078 25.6744 16.0078C27.7011 16.0078 29.3224 17.22 29.5251 18.8363Z" fill="currentColor"/>
<path fill-rule="evenodd" clip-rule="evenodd" d="M40.2675 18.8363C40.4702 20.4526 38.8488 21.6661 36.8222 21.6661C34.7955 21.6661 32.9703 20.4526 32.9703 18.8363C32.7676 17.22 34.3902 16.0078 36.4169 16.0078C38.2408 16.0078 40.0648 17.22 40.2675 18.8363Z" fill="currentColor"/>
<path fill-rule="evenodd" clip-rule="evenodd" d="M73.7092 34.3949C73.9118 36.0125 72.2905 37.2248 70.2638 37.2248C68.2371 37.2248 66.4132 36.0125 66.2105 34.3949C66.0078 32.7786 67.6292 31.5664 69.6559 31.5664C71.6825 31.5664 73.5065 32.7786 73.7092 34.3949Z" fill="currentColor"/>
<path fill-rule="evenodd" clip-rule="evenodd" d="M84.2493 34.3949C84.4519 36.0125 83.0333 37.2248 80.804 37.2248C78.7773 37.2248 76.9533 36.0125 76.7506 34.3949C76.548 32.7786 77.9666 31.5664 80.1959 31.5664C82.2226 31.5664 84.0466 32.7786 84.2493 34.3949Z" fill="currentColor"/>
<path fill-rule="evenodd" clip-rule="evenodd" d="M72.6965 26.7172C72.8991 28.3335 71.2778 29.5457 69.2511 29.5457C67.2245 29.5457 65.4005 28.3335 65.1978 26.7172C64.9951 25.1009 66.6165 23.8887 68.6431 23.8887C70.6698 23.8887 72.6965 25.3029 72.6965 26.7172Z" fill="currentColor"/>
<path fill-rule="evenodd" clip-rule="evenodd" d="M83.2368 26.7172C83.4395 28.3335 82.0208 29.5457 79.7915 29.5457C77.7648 29.5457 75.9408 28.3335 75.7382 26.7172C75.5342 25.1009 76.9542 23.8887 79.1835 23.8887C81.2102 24.0907 83.0341 25.3029 83.2368 26.7172Z" fill="currentColor"/>
<path fill-rule="evenodd" clip-rule="evenodd" d="M63.1713 34.1918C63.374 35.8094 61.7527 37.0216 59.7247 37.0216C57.6981 37.0216 55.8741 35.8094 55.6714 34.1918C55.4688 32.5755 57.09 31.3633 59.1167 31.3633C61.1446 31.5653 62.9686 32.7775 63.1713 34.1918Z" fill="currentColor"/>
<path fill-rule="evenodd" clip-rule="evenodd" d="M62.3608 26.7172C62.5634 28.3335 60.9408 29.5457 58.9142 29.5457C56.8876 29.5457 55.0636 28.3335 54.8609 26.7172C54.6582 25.1009 56.2795 23.8887 58.3062 23.8887C60.3328 23.8887 62.1581 25.3029 62.3608 26.7172Z" fill="currentColor"/>
<path fill-rule="evenodd" clip-rule="evenodd" d="M75.7364 50.3572C75.9391 51.9735 74.3178 53.1857 72.2912 53.1857C70.2645 53.1857 68.4405 51.9735 68.2378 50.3572C68.0352 48.7396 69.6565 47.5273 71.6832 47.5273C73.7098 47.7294 75.5338 48.9416 75.7364 50.3572Z" fill="currentColor"/>
<path fill-rule="evenodd" clip-rule="evenodd" d="M86.4781 50.3572C86.6808 51.9735 85.0595 53.1857 83.0328 53.1857C81.0061 53.1857 78.9796 51.9735 78.7769 50.3572C78.5742 48.7396 80.1955 47.5273 82.2221 47.5273C84.4515 47.7294 86.2755 48.9416 86.4781 50.3572Z" fill="currentColor"/>
<path fill-rule="evenodd" clip-rule="evenodd" d="M74.7227 42.8813C74.9254 44.4976 73.304 45.7098 71.2774 45.7098C69.2508 45.7098 67.4268 44.4976 67.2242 42.8813C67.0215 41.265 68.6427 40.0527 70.6694 40.0527C72.696 40.0527 74.52 41.265 74.7227 42.8813Z" fill="currentColor"/>
<path fill-rule="evenodd" clip-rule="evenodd" d="M85.465 42.8813C85.6677 44.4976 84.0464 45.7098 82.0197 45.7098C79.9931 45.7098 78.169 44.4976 77.9664 42.8813C77.7637 41.265 79.385 40.0527 81.4117 40.0527C83.4383 40.0527 85.2624 41.467 85.465 42.8813Z" fill="currentColor"/>
<path fill-rule="evenodd" clip-rule="evenodd" d="M64.9956 50.3572C65.1983 51.9735 63.577 53.1857 61.549 53.1857C59.5224 53.1857 57.6983 51.9735 57.4957 50.3572C57.293 48.7396 58.9143 47.5273 60.941 47.5273C62.9689 47.5273 64.7929 48.9416 64.9956 50.3572Z" fill="currentColor"/>
<path fill-rule="evenodd" clip-rule="evenodd" d="M64.1851 42.8813C64.3878 44.4976 62.7665 45.7098 60.7385 45.7098C58.7118 45.7098 56.8878 44.4976 56.6851 42.8813C56.4824 41.265 58.1038 40.0527 60.1305 40.0527C62.1584 40.0527 63.9824 41.265 64.1851 42.8813Z" fill="currentColor"/>
<path fill-rule="evenodd" clip-rule="evenodd" d="M77.7646 66.3207C77.9673 67.937 76.346 69.1492 74.318 69.1492C72.0887 69.1492 70.2647 67.937 70.0621 66.3207C69.8594 64.7044 71.4807 63.4922 73.5074 63.4922C75.534 63.4922 77.562 64.7044 77.7646 66.3207Z" fill="currentColor"/>
<path fill-rule="evenodd" clip-rule="evenodd" d="M66.8194 66.3207C67.022 67.937 65.4007 69.1492 63.3727 69.1492C61.1434 69.1492 59.3194 67.937 59.1167 66.3207C58.9141 64.7044 60.5354 63.4922 62.5621 63.4922C64.7927 63.4922 66.6167 64.7044 66.8194 66.3207Z" fill="currentColor"/>
<path fill-rule="evenodd" clip-rule="evenodd" d="M88.7078 66.3207C88.9104 67.937 87.2891 69.1492 85.2624 69.1492C83.0331 69.1492 81.2091 67.937 81.0064 66.3207C80.8037 64.7044 82.4251 63.4922 84.4517 63.4922C86.4784 63.4922 88.5051 64.7044 88.7078 66.3207Z" fill="currentColor"/>
<path fill-rule="evenodd" clip-rule="evenodd" d="M76.7496 58.641C76.9536 60.2573 75.331 61.4695 73.3043 61.4695C71.2777 61.4695 69.2511 60.2573 69.0484 58.641C68.8457 57.0247 70.467 55.8125 72.4937 55.8125C74.723 56.0145 76.547 57.2268 76.7496 58.641Z" fill="currentColor"/>
<path fill-rule="evenodd" clip-rule="evenodd" d="M87.6948 58.8442C87.8975 60.4605 86.2763 61.6727 84.2496 61.6727C82.223 61.6727 80.1964 60.4605 79.9937 58.8442C79.791 57.2279 81.4124 56.0156 83.439 56.0156C85.4656 56.0156 87.4922 57.2279 87.6948 58.8442Z" fill="currentColor"/>
<path fill-rule="evenodd" clip-rule="evenodd" d="M66.0082 58.641C66.2109 60.2573 64.5896 61.4695 62.563 61.4695C60.5363 61.4695 58.5084 60.2573 58.5084 58.641C58.3057 57.0247 59.927 55.8125 61.9549 55.8125C63.9816 56.0145 65.8055 57.2268 66.0082 58.641Z" fill="currentColor"/>
<path fill-rule="evenodd" clip-rule="evenodd" d="M54.6576 58.641C54.8603 60.2573 53.239 61.4695 51.2111 61.4695C49.1844 61.4695 47.1577 60.2573 47.1577 58.641C46.9551 57.0247 48.5764 55.8125 50.8057 55.8125C52.631 56.0145 54.455 57.2268 54.6576 58.641Z" fill="currentColor"/>
<path fill-rule="evenodd" clip-rule="evenodd" d="M79.7914 82.0805C79.9941 83.6968 78.3728 84.909 76.1421 84.909C73.9128 84.909 72.0889 83.6968 71.8862 82.0805C71.6836 80.4642 73.3049 79.252 75.5342 79.252C77.7635 79.252 79.5888 80.4642 79.7914 82.0805Z" fill="currentColor"/>
<path fill-rule="evenodd" clip-rule="evenodd" d="M80.8041 90.5668C81.0068 92.1844 79.3854 93.3966 77.1561 93.3966C74.9255 93.3966 73.1016 92.1844 72.8989 90.5668C72.6963 88.9505 74.3176 87.7383 76.5482 87.7383C78.7775 87.7383 80.6015 89.1525 80.8041 90.5668Z" fill="currentColor"/>
<path fill-rule="evenodd" clip-rule="evenodd" d="M90.7343 82.0805C90.9369 83.6968 89.3156 84.909 87.2889 84.909C85.0595 84.909 83.2354 83.6968 83.0328 82.0805C82.8301 80.4642 84.4515 79.252 86.4782 79.252C88.7076 79.252 90.5316 80.4642 90.7343 82.0805Z" fill="currentColor"/>
<path fill-rule="evenodd" clip-rule="evenodd" d="M78.7775 74.4027C78.9801 76.019 77.3587 77.2325 75.3308 77.2325C73.1014 77.2325 71.2774 76.019 71.0748 74.4027C70.8721 72.7864 72.4934 71.5742 74.5201 71.5742C76.7507 71.7763 78.5748 72.9885 78.7775 74.4027Z" fill="currentColor"/>
<path fill-rule="evenodd" clip-rule="evenodd" d="M89.7225 74.6039C89.9252 76.2202 88.3026 77.4324 86.276 77.4324C84.0467 77.4324 82.2227 76.2202 82.0201 74.6039C81.8174 72.9876 83.4387 71.7754 85.4653 71.7754C87.6946 71.7754 89.5198 72.9876 89.7225 74.6039Z" fill="currentColor"/>
<path fill-rule="evenodd" clip-rule="evenodd" d="M67.8324 74.4027C68.0351 76.019 66.4138 77.2325 64.1845 77.2325C61.9539 77.2325 60.1299 76.019 59.9273 74.4027C59.7246 72.7864 61.3459 71.5742 63.5765 71.5742C65.8058 71.7763 67.6298 72.9885 67.8324 74.4027Z" fill="currentColor"/>
<path fill-rule="evenodd" clip-rule="evenodd" d="M54.2524 49.5473C54.455 51.1649 52.8337 52.3771 50.8071 52.3771C48.7804 52.3771 46.9552 51.1649 46.7525 49.5473C46.5498 47.931 48.1711 46.7188 50.199 46.7188C52.2257 46.9208 54.0497 48.133 54.2524 49.5473Z" fill="currentColor"/>
<path fill-rule="evenodd" clip-rule="evenodd" d="M53.4418 42.0727C53.6445 43.689 52.0232 44.9012 49.9965 44.9012C47.9699 44.9012 46.1446 43.689 45.9419 42.0727C45.7393 40.4564 47.3606 39.2441 49.3885 39.2441C51.4151 39.4462 53.2391 40.6584 53.4418 42.0727Z" fill="currentColor"/>
<path fill-rule="evenodd" clip-rule="evenodd" d="M52.6313 34.1918C52.8339 35.8094 51.2126 37.0216 49.186 37.0216C47.1593 37.0216 45.334 35.8094 45.1314 34.1918C44.9287 32.5755 46.5513 31.3633 48.5779 31.3633C50.6046 31.3633 52.4286 32.5755 52.6313 34.1918Z" fill="currentColor"/>
<path fill-rule="evenodd" clip-rule="evenodd" d="M51.8209 26.516C52.0235 28.1323 50.4022 29.3445 48.3755 29.3445C46.3475 29.3445 44.5235 28.1323 44.3209 26.516C44.1182 24.8997 45.7395 23.6875 47.7675 23.6875C49.7941 23.6875 51.6182 24.8997 51.8209 26.516Z" fill="currentColor"/>
<path fill-rule="evenodd" clip-rule="evenodd" d="M105.936 114.207C106.139 115.824 104.518 117.036 102.288 117.036C100.059 117.036 98.0323 115.824 97.8296 114.207C97.6269 112.591 99.2483 111.379 101.478 111.379C103.707 111.379 105.734 112.591 105.936 114.207Z" fill="currentColor"/>
<path fill-rule="evenodd" clip-rule="evenodd" d="M118.096 114.207C118.299 115.824 116.678 117.036 114.448 117.036C112.219 117.036 110.192 115.824 109.99 114.207C109.787 112.591 111.408 111.379 113.638 111.379C115.867 111.379 117.894 112.793 118.096 114.207Z" fill="currentColor"/>
<path fill-rule="evenodd" clip-rule="evenodd" d="M113.233 19.2387C113.436 20.8563 112.017 22.0685 109.99 22.0685C107.964 22.0685 106.14 20.8563 105.937 19.2387C105.735 17.6224 107.153 16.4102 109.18 16.4102C111.206 16.4102 113.03 17.6224 113.233 19.2387Z" fill="currentColor"/>
<path fill-rule="evenodd" clip-rule="evenodd" d="M114.652 27.3227C114.854 28.939 113.436 30.1512 111.409 30.1512C109.382 30.1512 107.558 28.939 107.153 27.3227C106.95 25.7064 108.369 24.4941 110.396 24.4941C112.422 24.4941 114.449 25.7064 114.652 27.3227Z" fill="currentColor"/>
<path fill-rule="evenodd" clip-rule="evenodd" d="M115.867 35.2035C116.07 36.8211 114.651 38.0334 112.625 38.0334C110.598 38.0334 108.774 36.8211 108.369 35.2035C108.166 33.5872 109.585 32.375 111.612 32.375C113.841 32.375 115.665 33.7893 115.867 35.2035Z" fill="currentColor"/>
<path fill-rule="evenodd" clip-rule="evenodd" d="M97.4238 50.156C97.6265 51.7723 96.2078 52.9845 93.9785 52.9845C91.9519 52.9845 89.924 51.7723 89.7213 50.156C89.5187 48.5384 90.9386 47.3262 93.1679 47.3262C95.1945 47.3262 97.2211 48.5384 97.4238 50.156Z" fill="currentColor"/>
<path fill-rule="evenodd" clip-rule="evenodd" d="M96.2081 42.477C96.4108 44.0933 94.9921 45.3055 92.7628 45.3055C90.7348 45.3055 88.9109 44.0933 88.5055 42.477C88.3029 40.8607 89.7215 39.6484 91.9521 39.6484C94.1815 39.8505 96.0055 41.0627 96.2081 42.477Z" fill="currentColor"/>
<path fill-rule="evenodd" clip-rule="evenodd" d="M99.653 66.1188C99.8557 67.7351 98.2343 68.9474 96.2077 68.9474C93.9784 68.9474 92.1544 67.7351 91.9517 66.1188C91.749 64.5026 93.3704 63.2891 95.397 63.2891C97.6263 63.4911 99.4503 64.7046 99.653 66.1188Z" fill="currentColor"/>
<path fill-rule="evenodd" clip-rule="evenodd" d="M98.6402 58.641C98.8428 60.2573 97.2215 61.4695 95.1949 61.4695C93.1683 61.4695 91.1417 60.2573 90.939 58.641C90.7364 57.0247 92.3577 55.8125 94.3843 55.8125C96.4109 55.8125 98.4375 57.2268 98.6402 58.641Z" fill="currentColor"/>
<path fill-rule="evenodd" clip-rule="evenodd" d="M101.882 82.0805C102.085 83.6968 100.464 84.909 98.4371 84.909C96.2078 84.909 94.3839 83.6968 94.1812 82.0805C93.9785 80.4642 95.5999 79.252 97.6265 79.252C99.8558 79.252 101.68 80.4642 101.882 82.0805Z" fill="currentColor"/>
<path fill-rule="evenodd" clip-rule="evenodd" d="M103.098 90.3637C103.301 91.98 101.68 93.1935 99.653 93.1935C97.4237 93.1935 95.5997 91.98 95.397 90.3637C95.1944 88.7474 96.8156 87.5352 98.8423 87.5352C101.072 87.5352 102.896 88.7474 103.098 90.3637Z" fill="currentColor"/>
<path fill-rule="evenodd" clip-rule="evenodd" d="M100.869 74.6039C101.072 76.2202 99.4503 77.4324 97.4236 77.4324C95.1942 77.4324 93.3702 76.2202 93.1675 74.6039C92.9649 72.9876 94.5862 71.7754 96.6129 71.7754C98.8423 71.7754 100.666 72.9876 100.869 74.6039Z" fill="currentColor"/>
<path fill-rule="evenodd" clip-rule="evenodd" d="M95.1948 34.5974C95.3975 36.2137 93.9788 37.4259 91.7495 37.4259C89.7216 37.4259 87.8976 36.2137 87.695 34.5974C87.4923 32.9798 88.911 31.7676 91.1416 31.7676C92.9656 31.7676 94.7895 32.9798 95.1948 34.5974Z" fill="currentColor"/>
<path fill-rule="evenodd" clip-rule="evenodd" d="M93.9785 26.9184C94.1812 28.5347 92.7626 29.7469 90.736 29.7469C88.708 29.7469 86.884 28.5347 86.6814 26.9184C86.4787 25.3021 87.8974 24.0898 89.9253 24.0898C91.9519 24.0898 93.7759 25.3021 93.9785 26.9184Z" fill="currentColor"/>
<path fill-rule="evenodd" clip-rule="evenodd" d="M104.112 98.0434C104.315 99.6596 102.694 100.872 100.464 100.872C98.2351 100.872 96.4112 99.6596 96.2085 98.0434C96.0058 96.4271 97.6271 95.2148 99.8564 95.2148C102.086 95.2148 103.91 96.4271 104.112 98.0434Z" fill="currentColor"/>
<path fill-rule="evenodd" clip-rule="evenodd" d="M91.3428 90.1605C91.5455 91.7781 89.9241 92.9903 87.6948 92.9903C85.4655 92.9903 83.6416 91.7781 83.439 90.1605C83.2363 88.5442 84.8576 87.332 87.0869 87.332C89.3162 87.5341 91.1402 88.7463 91.3428 90.1605Z" fill="currentColor"/>
<path fill-rule="evenodd" clip-rule="evenodd" d="M92.3569 97.8402C92.5595 99.4565 90.9369 100.669 88.7076 100.669C86.4783 100.669 84.6543 99.4565 84.4517 97.8402C84.249 96.2239 85.8703 95.0117 88.0996 95.0117C90.1262 95.2138 92.1542 96.426 92.3569 97.8402Z" fill="currentColor"/>
<path fill-rule="evenodd" clip-rule="evenodd" d="M104.72 27.1215C104.923 28.7378 103.503 29.95 101.477 29.95C99.4502 29.95 97.6262 28.7378 97.4236 27.1215C97.2209 25.5052 98.6395 24.293 100.666 24.293C102.49 24.495 104.314 25.7072 104.72 27.1215Z" fill="currentColor"/>
<path fill-rule="evenodd" clip-rule="evenodd" d="M105.937 35.2035C106.14 36.8211 104.721 38.0334 102.693 38.0334C100.667 38.0334 98.8426 36.8211 98.4372 35.2035C98.2346 33.5872 99.6533 32.375 101.68 32.375C103.708 32.375 105.532 33.7893 105.937 35.2035Z" fill="currentColor"/>
<path fill-rule="evenodd" clip-rule="evenodd" d="M125.191 27.3227C125.394 28.939 123.975 30.1512 121.948 30.1512C119.922 30.1512 118.096 28.939 117.691 27.3227C117.488 25.7064 118.908 24.4941 120.935 24.4941C122.962 24.4941 124.988 25.7064 125.191 27.3227Z" fill="currentColor"/>
<path fill-rule="evenodd" clip-rule="evenodd" d="M126.61 35.2035C126.813 36.8211 125.394 38.0334 123.367 38.0334C121.341 38.0334 119.313 36.8211 119.11 35.2035C118.907 33.5872 120.327 32.375 122.354 32.375C124.381 32.577 126.205 33.7893 126.61 35.2035Z" fill="currentColor"/>
<path fill-rule="evenodd" clip-rule="evenodd" d="M135.731 27.3227C135.934 28.939 134.515 30.1512 132.489 30.1512C130.461 30.1512 128.637 28.939 128.231 27.3227C128.028 25.7064 129.447 24.4941 131.474 24.4941C133.705 24.4941 135.529 25.7064 135.731 27.3227Z" fill="currentColor"/>
<path fill-rule="evenodd" clip-rule="evenodd" d="M137.352 35.2035C137.555 36.8211 136.136 38.0334 134.11 38.0334C132.083 38.0334 130.055 36.8211 129.852 35.2035C129.65 33.5872 131.068 32.375 133.096 32.375C135.123 32.577 136.947 33.7893 137.352 35.2035Z" fill="currentColor"/>
<path fill-rule="evenodd" clip-rule="evenodd" d="M146.473 27.3227C146.676 28.939 145.257 30.1512 143.23 30.1512C141.204 30.1512 139.177 28.939 138.974 27.3227C138.772 25.7064 140.19 24.4941 142.217 24.4941C144.244 24.4941 146.27 25.7064 146.473 27.3227Z" fill="currentColor"/>
<path fill-rule="evenodd" clip-rule="evenodd" d="M148.095 35.406C148.298 37.0223 146.878 38.2345 144.851 38.2345C142.825 38.2345 140.798 37.0223 140.595 35.406C140.393 33.7884 141.811 32.5762 143.838 32.5762C145.865 32.5762 147.893 33.7884 148.095 35.406Z" fill="currentColor"/>
<path fill-rule="evenodd" clip-rule="evenodd" d="M157.013 27.3227C157.418 28.939 155.999 30.1512 153.77 30.1512C151.743 30.1512 149.717 28.939 149.514 27.3227C149.311 25.7064 150.527 24.4941 152.757 24.4941C154.783 24.4941 156.81 25.7064 157.013 27.3227Z" fill="currentColor"/>
<path fill-rule="evenodd" clip-rule="evenodd" d="M158.633 35.406C159.038 37.0223 157.417 38.2345 155.39 38.2345C153.364 38.2345 151.337 37.0223 151.134 35.406C150.932 33.7884 152.35 32.5762 154.377 32.5762C156.404 32.5762 158.43 33.7884 158.633 35.406Z" fill="currentColor"/>
<path fill-rule="evenodd" clip-rule="evenodd" d="M117.084 42.8813C117.288 44.4976 115.868 45.7098 113.841 45.7098C111.815 45.7098 109.788 44.4976 109.586 42.8813C109.383 41.265 110.802 40.0527 112.828 40.0527C115.057 40.0527 116.881 41.265 117.084 42.8813Z" fill="currentColor"/>
<path fill-rule="evenodd" clip-rule="evenodd" d="M127.826 42.8813C128.029 44.4976 126.61 45.7098 124.584 45.7098C122.557 45.7098 120.531 44.4976 120.328 42.8813C120.125 41.265 121.544 40.0527 123.571 40.0527C125.8 40.0527 127.624 41.265 127.826 42.8813Z" fill="currentColor"/>
<path fill-rule="evenodd" clip-rule="evenodd" d="M129.244 50.7615C129.447 52.3778 128.029 53.59 126.002 53.59C123.975 53.59 121.948 52.3778 121.746 50.7615C121.543 49.1452 122.962 47.9316 124.988 47.9316C127.015 48.1337 129.042 49.3472 129.244 50.7615Z" fill="currentColor"/>
<path fill-rule="evenodd" clip-rule="evenodd" d="M138.771 42.8813C138.974 44.4976 137.555 45.7098 135.528 45.7098C133.502 45.7098 131.474 44.4976 131.271 42.8813C131.069 41.265 132.488 40.0527 134.515 40.0527C136.542 40.0527 138.366 41.265 138.771 42.8813Z" fill="currentColor"/>
<path fill-rule="evenodd" clip-rule="evenodd" d="M140.189 50.9627C140.392 52.579 138.973 53.7912 136.946 53.7912C134.918 53.7912 132.892 52.579 132.689 50.9627C132.487 49.3463 133.905 48.1328 135.933 48.1328C137.96 48.1328 139.784 49.3463 140.189 50.9627Z" fill="currentColor"/>
<path fill-rule="evenodd" clip-rule="evenodd" d="M149.513 42.8813C149.716 44.4976 148.297 45.7098 146.271 45.7098C144.243 45.7098 142.216 44.4976 142.013 42.8813C141.811 41.265 143.229 40.0527 145.256 40.0527C147.284 40.0527 149.311 41.467 149.513 42.8813Z" fill="currentColor"/>
<path fill-rule="evenodd" clip-rule="evenodd" d="M151.134 50.9627C151.337 52.579 149.918 53.7912 147.892 53.7912C145.864 53.7912 143.837 52.579 143.634 50.9627C143.432 49.3463 144.85 48.1328 146.877 48.1328C148.905 48.1328 150.729 49.3463 151.134 50.9627Z" fill="currentColor"/>
<path fill-rule="evenodd" clip-rule="evenodd" d="M160.254 42.8813C160.66 44.4976 159.038 45.7098 157.012 45.7098C154.985 45.7098 152.958 44.4976 152.756 42.8813C152.553 41.265 153.972 40.0527 155.998 40.0527C158.025 40.0527 160.052 41.467 160.254 42.8813Z" fill="currentColor"/>
<path fill-rule="evenodd" clip-rule="evenodd" d="M130.664 58.8442C130.866 60.4605 129.448 61.6727 127.218 61.6727C125.192 61.6727 123.165 60.4605 122.963 58.8442C122.76 57.2279 124.179 56.0156 126.408 56.0156C128.434 56.0156 130.461 57.2279 130.664 58.8442Z" fill="currentColor"/>
<path fill-rule="evenodd" clip-rule="evenodd" d="M141.608 58.8442C141.81 60.4605 140.392 61.6727 138.365 61.6727C136.338 61.6727 134.312 60.4605 134.109 58.8442C133.906 57.2279 135.325 56.0156 137.352 56.0156C139.378 56.0156 141.405 57.4299 141.608 58.8442Z" fill="currentColor"/>
<path fill-rule="evenodd" clip-rule="evenodd" d="M152.757 58.8442C152.959 60.4605 151.541 61.6727 149.514 61.6727C147.488 61.6727 145.461 60.4605 145.054 58.8442C144.852 57.2279 146.272 56.0156 148.298 56.0156C150.528 56.2177 152.351 57.4299 152.757 58.8442Z" fill="currentColor"/>
<path fill-rule="evenodd" clip-rule="evenodd" d="M165.12 67.1293C165.526 68.7456 163.904 69.9578 161.878 69.9578C159.647 69.9578 157.823 68.7456 157.418 67.1293C157.215 65.513 158.634 64.3008 160.66 64.3008C162.891 64.3008 164.918 65.715 165.12 67.1293Z" fill="currentColor"/>
<path fill-rule="evenodd" clip-rule="evenodd" d="M122.556 75.0082C122.759 76.6245 121.341 77.838 119.111 77.838C116.881 77.838 115.057 76.6245 114.854 75.0082C114.652 73.3919 116.07 72.1797 118.301 72.1797C120.327 72.1797 122.151 73.3919 122.556 75.0082Z" fill="currentColor"/>
<path fill-rule="evenodd" clip-rule="evenodd" d="M123.772 82.8871C123.975 84.5034 122.556 85.7157 120.327 85.7157C118.097 85.7157 116.273 84.5034 116.07 82.8871C115.867 81.2708 117.286 80.0586 119.517 80.0586C121.543 80.2606 123.57 81.4729 123.772 82.8871Z" fill="currentColor"/>
<path fill-rule="evenodd" clip-rule="evenodd" d="M125.192 90.9691C125.394 92.5867 123.976 93.799 121.747 93.799C119.517 93.799 117.692 92.5867 117.287 90.9691C117.084 89.3528 118.705 88.1406 120.733 88.1406C122.962 88.1406 124.786 89.3528 125.192 90.9691Z" fill="currentColor"/>
<path fill-rule="evenodd" clip-rule="evenodd" d="M126.407 99.0532C126.61 100.669 124.989 101.882 122.962 101.882C120.733 101.882 118.706 100.669 118.503 99.0532C118.301 97.4369 119.922 96.2246 121.949 96.2246C124.178 96.2246 126.205 97.4369 126.407 99.0532Z" fill="currentColor"/>
<path fill-rule="evenodd" clip-rule="evenodd" d="M127.624 106.529C127.827 108.145 126.205 109.358 123.976 109.358C121.747 109.358 119.72 108.145 119.517 106.529C119.314 104.911 120.936 103.699 122.963 103.699C125.395 103.699 127.421 105.113 127.624 106.529Z" fill="currentColor"/>
<path fill-rule="evenodd" clip-rule="evenodd" d="M121.136 67.3305C121.34 68.9467 119.92 70.159 117.691 70.159C115.462 70.159 113.638 68.9467 113.435 67.3305C113.233 65.7142 114.651 64.502 116.88 64.502C119.11 64.502 120.934 65.9162 121.136 67.3305Z" fill="currentColor"/>
<path fill-rule="evenodd" clip-rule="evenodd" d="M112.017 75.0082C112.22 76.6245 110.801 77.838 108.572 77.838C106.343 77.838 104.519 76.6245 104.316 75.0082C104.113 73.3919 105.735 72.1797 107.761 72.1797C109.788 72.1797 111.814 73.3919 112.017 75.0082Z" fill="currentColor"/>
<path fill-rule="evenodd" clip-rule="evenodd" d="M113.233 83.0903C113.435 84.7066 111.814 85.9188 109.788 85.9188C107.761 85.9188 105.734 84.7066 105.532 83.0903C105.329 81.4739 106.95 80.2617 108.977 80.2617C111.004 80.2617 113.03 81.4739 113.233 83.0903Z" fill="currentColor"/>
<path fill-rule="evenodd" clip-rule="evenodd" d="M114.449 90.9691C114.652 92.5867 113.03 93.799 111.004 93.799C108.977 93.799 106.95 92.5867 106.748 90.9691C106.545 89.3528 108.166 88.1406 110.193 88.1406C112.422 88.3427 114.246 89.5549 114.449 90.9691Z" fill="currentColor"/>
<path fill-rule="evenodd" clip-rule="evenodd" d="M115.665 99.0532C115.868 100.669 114.246 101.882 112.22 101.882C110.193 101.882 107.964 100.669 107.761 99.0532C107.559 97.4369 109.18 96.2246 111.207 96.2246C113.233 96.2246 115.462 97.4369 115.665 99.0532Z" fill="currentColor"/>
<path fill-rule="evenodd" clip-rule="evenodd" d="M105.329 105.922C105.532 107.54 103.909 108.752 101.68 108.752C99.4505 108.752 97.4239 107.54 97.2212 105.922C97.0185 104.306 98.6399 103.094 100.869 103.094C103.098 103.094 105.125 104.306 105.329 105.922Z" fill="currentColor"/>
<path fill-rule="evenodd" clip-rule="evenodd" d="M116.881 106.933C117.084 108.55 115.463 109.762 113.234 109.762C111.004 109.762 108.978 108.55 108.775 106.933C108.572 105.316 110.194 104.104 112.423 104.104C114.855 104.104 116.679 105.316 116.881 106.933Z" fill="currentColor"/>
<path fill-rule="evenodd" clip-rule="evenodd" d="M144.446 75.0082C144.648 76.6245 143.23 77.838 141 77.838C138.771 77.838 136.947 76.6245 136.542 75.0082C136.339 73.3919 137.758 72.1797 139.987 72.1797C142.216 72.1797 144.243 73.3919 144.446 75.0082Z" fill="currentColor"/>
<path fill-rule="evenodd" clip-rule="evenodd" d="M146.067 83.0903C146.271 84.7066 144.851 85.9188 142.621 85.9188C140.392 85.9188 138.568 84.7066 138.163 83.0903C137.96 81.4739 139.379 80.2617 141.608 80.2617C143.837 80.2617 145.661 81.4739 146.067 83.0903Z" fill="currentColor"/>
<path fill-rule="evenodd" clip-rule="evenodd" d="M147.485 90.9691C147.688 92.5867 146.27 93.799 144.04 93.799C141.811 93.799 139.784 92.5867 139.582 90.9691C139.379 89.3528 140.798 88.1406 143.027 88.1406C145.256 88.3427 147.283 89.5549 147.485 90.9691Z" fill="currentColor"/>
<path fill-rule="evenodd" clip-rule="evenodd" d="M148.905 99.0532C149.108 100.669 147.688 101.882 145.458 101.882C143.229 101.882 141.202 100.669 141 99.0532C140.797 97.4369 142.216 96.2246 144.445 96.2246C146.674 96.2246 148.702 97.4369 148.905 99.0532Z" fill="currentColor"/>
<path fill-rule="evenodd" clip-rule="evenodd" d="M150.325 106.529C150.527 108.145 149.109 109.358 146.878 109.358C144.649 109.358 142.622 108.145 142.42 106.529C142.217 104.911 143.636 103.699 145.865 103.699C148.095 103.901 150.122 105.113 150.325 106.529Z" fill="currentColor"/>
<path fill-rule="evenodd" clip-rule="evenodd" d="M134.109 75.0082C134.312 76.6245 132.893 77.838 130.664 77.838C128.435 77.838 126.611 76.6245 126.408 75.0082C126.205 73.3919 127.624 72.1797 129.853 72.1797C131.88 72.3817 133.906 73.5939 134.109 75.0082Z" fill="currentColor"/>
<path fill-rule="evenodd" clip-rule="evenodd" d="M135.528 83.0903C135.73 84.7066 134.31 85.9188 132.081 85.9188C129.852 85.9188 128.028 84.7066 127.623 83.0903C127.42 81.4739 128.839 80.2617 131.068 80.2617C133.297 80.2617 135.325 81.4739 135.528 83.0903Z" fill="currentColor"/>
<path fill-rule="evenodd" clip-rule="evenodd" d="M136.948 91.1723C137.15 92.7899 135.732 94.0021 133.501 94.0021C131.272 94.0021 129.448 92.7899 129.043 91.1723C128.84 89.556 130.259 88.3438 132.488 88.3438C134.718 88.3438 136.542 89.556 136.948 91.1723Z" fill="currentColor"/>
<path fill-rule="evenodd" clip-rule="evenodd" d="M138.366 99.0532C138.568 100.669 137.15 101.882 134.92 101.882C132.69 101.882 130.663 100.669 130.461 99.0532C130.258 97.4369 131.677 96.2246 133.907 96.2246C136.136 96.2246 137.96 97.6389 138.366 99.0532Z" fill="currentColor"/>
<path fill-rule="evenodd" clip-rule="evenodd" d="M168.768 83.0903C169.173 84.7066 167.552 85.9188 165.323 85.9188C163.094 85.9188 161.066 84.7066 160.863 83.0903C160.66 81.4739 162.079 80.2617 164.31 80.2617C166.336 80.2617 168.363 81.4739 168.768 83.0903Z" fill="currentColor"/>
<path fill-rule="evenodd" clip-rule="evenodd" d="M170.39 91.1723C170.795 92.7899 169.174 94.0021 166.945 94.0021C164.715 94.0021 162.689 92.7899 162.486 91.1723C162.283 89.556 163.702 88.3438 165.931 88.3438C167.958 88.3438 169.985 89.556 170.39 91.1723Z" fill="currentColor"/>
<path fill-rule="evenodd" clip-rule="evenodd" d="M158.228 83.0903C158.43 84.7066 157.012 85.9188 154.782 85.9188C152.553 85.9188 150.729 84.7066 150.324 83.0903C150.121 81.4739 151.54 80.2617 153.769 80.2617C155.998 80.2617 158.025 81.676 158.228 83.0903Z" fill="currentColor"/>
<path fill-rule="evenodd" clip-rule="evenodd" d="M167.147 75.0082C167.552 76.6245 165.931 77.838 163.904 77.838C161.675 77.838 159.851 76.6245 159.444 75.0082C159.241 73.3919 160.661 72.1797 162.688 72.1797C164.715 72.1797 166.741 73.3919 167.147 75.0082Z" fill="currentColor"/>
<path fill-rule="evenodd" clip-rule="evenodd" d="M156.607 75.0082C156.809 76.6245 155.391 77.838 153.161 77.838C150.932 77.838 149.108 76.6245 148.703 75.0082C148.5 73.3919 149.919 72.1797 152.148 72.1797C154.377 72.1797 156.404 73.5939 156.607 75.0082Z" fill="currentColor"/>
<path fill-rule="evenodd" clip-rule="evenodd" d="M154.985 66.7231C155.188 68.3393 153.769 69.5516 151.743 69.5516C149.513 69.5516 147.688 68.3393 147.283 66.7231C147.08 65.1068 148.5 63.8945 150.527 63.8945C152.756 64.0966 154.783 65.3088 154.985 66.7231Z" fill="currentColor"/>
<path fill-rule="evenodd" clip-rule="evenodd" d="M159.849 91.1723C160.052 92.7899 158.633 94.0021 156.404 94.0021C154.174 94.0021 152.148 92.7899 151.945 91.1723C151.742 89.556 153.161 88.3438 155.39 88.3438C157.417 88.3438 159.444 89.556 159.849 91.1723Z" fill="currentColor"/>
<path fill-rule="evenodd" clip-rule="evenodd" d="M161.268 99.0532C161.471 100.669 160.052 101.882 157.823 101.882C155.593 101.882 153.567 100.669 153.364 99.0532C153.161 97.4369 154.58 96.2246 156.809 96.2246C159.039 96.4266 161.065 97.6389 161.268 99.0532Z" fill="currentColor"/>
<path fill-rule="evenodd" clip-rule="evenodd" d="M139.581 106.933C139.784 108.55 138.365 109.762 136.136 109.762C133.907 109.762 131.879 108.55 131.676 106.933C131.474 105.316 133.095 104.104 135.123 104.104C137.352 104.104 139.379 105.518 139.581 106.933Z" fill="currentColor"/>
<path fill-rule="evenodd" clip-rule="evenodd" d="M109.585 59.4496C109.788 61.0659 108.369 62.2782 106.14 62.2782C104.113 62.2782 102.085 61.0659 101.882 59.4496C101.68 57.8333 103.1 56.6211 105.329 56.6211C107.558 56.6211 109.382 57.8333 109.585 59.4496Z" fill="currentColor"/>
<path fill-rule="evenodd" clip-rule="evenodd" d="M110.801 67.3305C111.003 68.9467 109.585 70.159 107.356 70.159C105.126 70.159 103.301 68.9467 103.098 67.3305C102.896 65.7142 104.314 64.502 106.545 64.502C108.774 64.704 110.598 65.9162 110.801 67.3305Z" fill="currentColor"/>
<path fill-rule="evenodd" clip-rule="evenodd" d="M106.747 43.0824C106.95 44.6987 105.531 45.911 103.3 45.911C101.274 45.911 99.2473 44.6987 99.0446 43.0824C98.8419 41.4661 100.261 40.2539 102.49 40.2539C104.72 40.2539 106.544 41.4661 106.747 43.0824Z" fill="currentColor"/>
<path fill-rule="evenodd" clip-rule="evenodd" d="M108.368 50.9627C108.571 52.579 107.152 53.7912 104.922 53.7912C102.895 53.7912 100.868 52.579 100.666 50.9627C100.463 49.3463 101.882 48.1328 104.111 48.1328C106.139 48.3349 108.166 49.5484 108.368 50.9627Z" fill="currentColor"/>
<path fill-rule="evenodd" clip-rule="evenodd" d="M91.7492 11.5629C91.9519 13.1792 90.5332 14.3914 88.5053 14.3914C86.4786 14.3914 84.6545 13.1792 84.4519 11.5629C84.2492 9.9466 85.6678 8.73438 87.6945 8.73438C89.7225 8.73438 91.5465 9.9466 91.7492 11.5629Z" fill="currentColor"/>
<path fill-rule="evenodd" clip-rule="evenodd" d="M71.8856 18.8363C72.0882 20.4526 70.6696 21.6661 68.4404 21.6661C66.2112 21.6661 64.5899 20.4526 64.3873 18.8363C64.1846 17.22 65.8059 16.0078 67.8324 16.0078C69.859 16.0078 71.6829 17.22 71.8856 18.8363Z" fill="currentColor"/>
<path fill-rule="evenodd" clip-rule="evenodd" d="M82.2227 18.8363C82.4254 20.4526 81.0068 21.6661 78.9801 21.6661C76.9535 21.6661 75.1282 20.4526 74.9255 18.8363C74.7228 17.22 76.1415 16.0078 78.1695 16.0078C80.1961 16.0078 82.0201 17.22 82.2227 18.8363Z" fill="currentColor"/>
<path fill-rule="evenodd" clip-rule="evenodd" d="M61.3458 18.8363C61.5485 20.4526 59.9271 21.6661 57.9005 21.6661C55.8738 21.6661 54.0499 20.4526 53.8472 18.8363C53.6446 17.22 55.2659 16.0078 57.2925 16.0078C59.5219 16.0078 61.1431 17.22 61.3458 18.8363Z" fill="currentColor"/>
<path fill-rule="evenodd" clip-rule="evenodd" d="M81.209 11.1586C81.4117 12.7749 79.993 13.9871 77.9663 13.9871C75.9384 13.9871 74.1145 12.7749 73.9118 11.1586C73.7092 9.5423 75.1278 8.33008 77.1544 8.33008C79.1824 8.33008 81.0063 9.5423 81.209 11.1586Z" fill="currentColor"/>
<path fill-rule="evenodd" clip-rule="evenodd" d="M51.0102 19.0395C51.2128 20.6557 49.5915 21.8693 47.5649 21.8693C45.5383 21.8693 43.713 20.6557 43.5103 19.0395C43.3076 17.4232 44.9289 16.2109 46.9569 16.2109C48.9835 16.2109 50.8075 17.4232 51.0102 19.0395Z" fill="currentColor"/>
<path fill-rule="evenodd" clip-rule="evenodd" d="M50.1991 10.9574C50.4018 12.5737 48.7805 13.7859 46.7525 13.7859C44.7259 13.7859 42.9019 12.5737 42.9019 10.9574C42.6992 9.34113 44.3206 8.12891 46.3472 8.12891C48.1712 8.12891 49.9965 9.54316 50.1991 10.9574Z" fill="currentColor"/>
<path fill-rule="evenodd" clip-rule="evenodd" d="M103.301 19.2387C103.504 20.8563 102.085 22.0685 100.059 22.0685C98.0322 22.0685 96.2082 20.8563 96.0056 19.2387C95.8029 17.6224 97.2215 16.4102 99.2481 16.4102C101.275 16.4102 103.099 17.6224 103.301 19.2387Z" fill="currentColor"/>
<path fill-rule="evenodd" clip-rule="evenodd" d="M92.7628 19.2387C92.9655 20.8563 91.5468 22.0685 89.5188 22.0685C87.4922 22.0685 85.6682 20.8563 85.4655 19.2387C85.2629 17.6224 86.6815 16.4102 88.7082 16.4102C90.7348 16.4102 92.5601 17.6224 92.7628 19.2387Z" fill="currentColor"/>
<path fill-rule="evenodd" clip-rule="evenodd" d="M28.1063 2.87345C28.309 4.48975 26.6876 5.70198 24.6609 5.70198C22.6342 5.70198 21.0128 4.48975 20.8101 2.87345C20.6074 1.25714 22.2288 0.0449219 24.2555 0.0449219C26.2822 0.0449219 28.1063 1.25714 28.1063 2.87345Z" fill="currentColor"/>
<path fill-rule="evenodd" clip-rule="evenodd" d="M38.6464 2.87345C38.8491 4.48975 37.2278 5.70198 35.2012 5.70198C33.1732 5.70198 31.3492 4.48975 31.3492 2.87345C31.1465 1.25714 32.7679 0.0449219 34.7958 0.0449219C36.8225 0.0449219 38.4437 1.25714 38.6464 2.87345Z" fill="currentColor"/>
<path fill-rule="evenodd" clip-rule="evenodd" d="M70.8719 11.1586C71.0746 12.7749 69.656 13.9871 67.6293 13.9871C65.6026 13.9871 63.7786 12.7749 63.5759 11.1586C63.3732 9.5423 64.792 8.33008 66.8186 8.33008C68.8453 8.33008 70.6693 9.5423 70.8719 11.1586Z" fill="currentColor"/>
<path fill-rule="evenodd" clip-rule="evenodd" d="M60.5353 11.1586C60.738 12.7749 59.1166 13.9871 57.09 13.9871C55.0633 13.9871 53.2393 12.7749 53.0367 11.1586C52.834 9.5423 54.4554 8.33008 56.482 8.33008C58.5087 8.33008 60.3327 9.5423 60.5353 11.1586Z" fill="currentColor"/>
</svg>
