<svg viewBox="0 0 275 166" fill="none" xmlns="http://www.w3.org/2000/svg">
<path fill-rule="evenodd" clip-rule="evenodd" d="M59.0075 35.7895C59.8182 37.4058 58.406 38.618 56.1701 38.618C53.7381 38.618 51.11 37.4058 50.4955 35.7895C49.6848 34.1732 51.1099 32.9609 53.3327 32.9609C55.5686 32.9609 58.1969 34.1732 59.0075 35.7895Z" fill="#DFE2E9"/>
<path fill-rule="evenodd" clip-rule="evenodd" d="M105.228 51.5492C106.039 53.1655 104.823 54.3777 102.378 54.3777C99.9457 54.3777 97.3176 53.1655 96.5069 51.5492C95.6963 49.9329 96.9123 48.7207 99.3443 48.7207C101.776 48.7207 104.417 49.9329 105.228 51.5492Z" fill="#DFE2E9"/>
<path fill-rule="evenodd" clip-rule="evenodd" d="M117.989 51.5492C118.8 53.1655 117.584 54.3777 115.152 54.3777C112.72 54.3777 110.092 53.1655 109.281 51.5492C108.471 49.9329 109.687 48.7207 112.119 48.7207C114.341 48.7207 116.983 49.9329 117.989 51.5492Z" fill="#DFE2E9"/>
<path fill-rule="evenodd" clip-rule="evenodd" d="M80.2931 51.3481C81.1037 52.9644 79.6786 54.1766 77.2467 54.1766C74.8148 54.1766 72.1868 52.9644 71.3761 51.3481C70.5655 49.7318 71.9775 48.5195 74.4094 48.5195C76.8413 48.5195 79.4824 49.9338 80.2931 51.3481Z" fill="#DFE2E9"/>
<path fill-rule="evenodd" clip-rule="evenodd" d="M113.53 43.4653C114.341 45.0829 113.125 46.2951 110.693 46.2951C108.261 46.2951 105.633 45.0829 104.809 43.4653C103.999 41.849 105.228 40.6367 107.66 40.6367C109.882 40.6367 112.524 42.051 113.53 43.4653Z" fill="#DFE2E9"/>
<path fill-rule="evenodd" clip-rule="evenodd" d="M126.096 43.4653C126.907 45.0829 125.691 46.2951 123.259 46.2951C120.827 46.2951 118.198 45.0829 117.388 43.4653C116.577 41.849 117.793 40.6367 120.225 40.6367C122.657 40.8388 125.285 42.051 126.096 43.4653Z" fill="#DFE2E9"/>
<path fill-rule="evenodd" clip-rule="evenodd" d="M75.4296 67.7133C76.2403 69.3296 74.8152 70.5418 72.3833 70.5418C69.9514 70.5418 67.3235 69.3296 66.5128 67.7133C65.7022 66.097 67.1142 64.8848 69.5461 64.8848C71.9779 65.0868 74.619 66.299 75.4296 67.7133Z" fill="#DFE2E9"/>
<path fill-rule="evenodd" clip-rule="evenodd" d="M71.3766 59.8337C72.1873 61.45 70.7621 62.6623 68.3301 62.6623C65.8981 62.6623 63.2698 61.45 62.4591 59.8337C61.6484 58.2174 63.0607 57.0039 65.4927 57.0039C67.9247 57.0039 70.5659 58.2174 71.3766 59.8337Z" fill="#DFE2E9"/>
<path fill-rule="evenodd" clip-rule="evenodd" d="M101.567 67.9145C102.391 69.5307 100.966 70.7429 98.5338 70.7429C96.1019 70.7429 93.4609 69.5307 92.6502 67.9145C91.8396 66.2982 93.2647 65.0859 95.6966 65.0859C98.1285 65.0859 100.756 66.2982 101.567 67.9145Z" fill="#DFE2E9"/>
<path fill-rule="evenodd" clip-rule="evenodd" d="M114.146 67.9145C114.957 69.5307 113.741 70.7429 111.099 70.7429C108.668 70.7429 106.039 69.5307 105.229 67.9145C104.418 66.2982 105.634 65.0859 108.262 65.0859C110.694 65.0859 113.335 66.2982 114.146 67.9145Z" fill="#DFE2E9"/>
<path fill-rule="evenodd" clip-rule="evenodd" d="M126.906 67.9145C127.717 69.5307 126.501 70.7429 124.069 70.7429C121.637 70.7429 119.009 69.5307 117.989 67.9145C117.179 66.2982 118.395 65.0859 120.827 65.0859C123.468 65.0859 126.096 66.5002 126.906 67.9145Z" fill="#DFE2E9"/>
<path fill-rule="evenodd" clip-rule="evenodd" d="M139.877 67.9145C140.687 69.5307 139.471 70.7429 137.039 70.7429C134.607 70.7429 131.77 69.5307 130.959 67.9145C130.148 66.2982 131.364 65.0859 133.797 65.0859C136.229 65.288 139.066 66.5002 139.877 67.9145Z" fill="#DFE2E9"/>
<path fill-rule="evenodd" clip-rule="evenodd" d="M115.766 3.86495C116.577 5.48124 115.361 6.69345 113.125 6.69345C110.693 6.69345 108.261 5.48124 107.254 3.86495C106.443 2.24866 107.659 1.03516 109.882 1.03516C112.314 1.03516 114.955 2.24866 115.766 3.86495Z" fill="#DFE2E9"/>
<path fill-rule="evenodd" clip-rule="evenodd" d="M91.8397 3.66184C92.6503 5.27814 91.4343 6.49036 89.2116 6.49036C86.7797 6.49036 84.3478 5.27814 83.5372 3.66184C82.7266 2.04554 83.9424 0.832031 86.1651 0.832031C88.4009 1.03407 91.029 2.24758 91.8397 3.66184Z" fill="#DFE2E9"/>
<path fill-rule="evenodd" clip-rule="evenodd" d="M97.3176 59.8337C98.1283 61.45 96.7031 62.6623 94.2712 62.6623C91.8392 62.6623 89.2112 61.45 88.4005 59.8337C87.5899 58.2174 89.0019 57.0039 91.4339 57.0039C93.8658 57.0039 96.507 58.2174 97.3176 59.8337Z" fill="#DFE2E9"/>
<path fill-rule="evenodd" clip-rule="evenodd" d="M109.883 59.8337C110.694 61.45 109.478 62.6623 107.046 62.6623C104.614 62.6623 101.973 61.45 101.162 59.8337C100.351 58.2174 101.567 57.0039 104.012 57.0039C106.444 57.2059 109.073 58.4195 109.883 59.8337Z" fill="#DFE2E9"/>
<path fill-rule="evenodd" clip-rule="evenodd" d="M89.0027 67.9145C89.8134 69.5307 88.4014 70.7429 85.9695 70.7429C83.5375 70.7429 80.8964 69.5307 80.0858 67.9145C79.2752 66.2982 80.7003 65.0859 83.1322 65.0859C85.5641 65.0859 88.1921 66.2982 89.0027 67.9145Z" fill="#DFE2E9"/>
<path fill-rule="evenodd" clip-rule="evenodd" d="M84.7523 59.8337C85.563 61.45 84.1378 62.6623 81.7059 62.6623C79.2739 62.6623 76.6458 61.45 75.8351 59.8337C75.0244 58.2174 76.4365 57.0039 78.8685 57.0039C81.3005 57.0039 83.9417 58.2174 84.7523 59.8337Z" fill="#DFE2E9"/>
<path fill-rule="evenodd" clip-rule="evenodd" d="M122.448 60.0369C123.259 61.6532 122.043 62.8655 119.611 62.8655C117.179 62.8655 114.551 61.6532 113.74 60.0369C112.93 58.4206 114.146 57.207 116.577 57.207C119.009 57.207 121.637 58.4206 122.448 60.0369Z" fill="#DFE2E9"/>
<path fill-rule="evenodd" clip-rule="evenodd" d="M135.418 60.0369C136.229 61.6532 135.013 62.8655 132.581 62.8655C130.149 62.8655 127.521 61.6532 126.501 60.0369C125.69 58.4206 126.906 57.207 129.338 57.207C131.77 57.207 134.411 58.4206 135.418 60.0369Z" fill="#DFE2E9"/>
<path fill-rule="evenodd" clip-rule="evenodd" d="M83.5367 83.8774C84.3473 85.4936 82.922 86.7072 80.49 86.7072C78.058 86.7072 75.4299 85.4936 74.6193 83.8774C73.8086 82.2611 75.2208 81.0488 77.6528 81.0488C80.0848 81.0488 82.726 82.2611 83.5367 83.8774Z" fill="#DFE2E9"/>
<path fill-rule="evenodd" clip-rule="evenodd" d="M79.4826 75.7947C80.2933 77.411 78.8682 78.6232 76.4362 78.6232C74.0043 78.6232 71.3762 77.411 70.5656 75.7947C69.7549 74.1784 71.167 72.9648 73.5989 72.9648C76.0309 72.9648 78.672 74.1784 79.4826 75.7947Z" fill="#DFE2E9"/>
<path fill-rule="evenodd" clip-rule="evenodd" d="M110.091 83.8774C110.902 85.4936 109.477 86.7072 107.045 86.7072C104.613 86.7072 101.775 85.4936 100.965 83.8774C100.154 82.2611 101.579 81.0488 104.011 81.0488C106.639 81.0488 109.281 82.4631 110.091 83.8774Z" fill="#DFE2E9"/>
<path fill-rule="evenodd" clip-rule="evenodd" d="M122.853 83.8774C123.663 85.4936 122.251 86.7072 119.819 86.7072C117.387 86.7072 114.55 85.4936 113.739 83.8774C112.929 82.2611 114.341 81.0488 116.773 81.0488C119.414 81.2509 122.042 82.4631 122.853 83.8774Z" fill="#DFE2E9"/>
<path fill-rule="evenodd" clip-rule="evenodd" d="M135.823 84.0786C136.634 85.6949 135.418 86.9071 132.79 86.9071C130.358 86.9071 127.521 85.6949 126.71 84.0786C125.899 82.4623 127.312 81.25 129.744 81.25C132.385 81.25 135.013 82.4623 135.823 84.0786Z" fill="#DFE2E9"/>
<path fill-rule="evenodd" clip-rule="evenodd" d="M149.003 84.0786C149.814 85.6949 148.598 86.9071 145.957 86.9071C143.525 86.9071 140.688 85.6949 139.877 84.0786C139.067 82.4623 140.282 81.25 142.924 81.25C145.355 81.25 147.984 82.4623 149.003 84.0786Z" fill="#DFE2E9"/>
<path fill-rule="evenodd" clip-rule="evenodd" d="M105.829 75.9984C106.64 77.6147 105.228 78.8269 102.796 78.8269C100.351 78.8269 97.7229 77.6147 96.9123 75.9984C96.1016 74.3821 97.5136 73.1699 99.9456 73.1699C102.391 73.1699 105.019 74.3821 105.829 75.9984Z" fill="#DFE2E9"/>
<path fill-rule="evenodd" clip-rule="evenodd" d="M118.603 75.9984C119.413 77.6147 117.988 78.8269 115.556 78.8269C113.124 78.8269 110.496 77.6147 109.476 75.9984C108.666 74.3821 110.091 73.1699 112.523 73.1699C114.955 73.1699 117.792 74.3821 118.603 75.9984Z" fill="#DFE2E9"/>
<path fill-rule="evenodd" clip-rule="evenodd" d="M97.3176 83.8774C98.1283 85.4936 96.7031 86.7072 94.2712 86.7072C91.8392 86.7072 89.002 85.4936 88.4005 83.8774C87.5899 82.2611 89.0019 81.0488 91.4339 81.0488C93.8658 81.0488 96.507 82.2611 97.3176 83.8774Z" fill="#DFE2E9"/>
<path fill-rule="evenodd" clip-rule="evenodd" d="M93.0555 75.7947C93.8661 77.411 92.4541 78.6232 90.0222 78.6232C87.5903 78.6232 84.9492 77.411 84.1385 75.7947C83.3279 74.1784 84.753 72.9648 87.1849 72.9648C89.6168 72.9648 92.2448 74.3804 93.0555 75.7947Z" fill="#DFE2E9"/>
<path fill-rule="evenodd" clip-rule="evenodd" d="M131.366 75.9984C132.177 77.6147 130.96 78.8269 128.332 78.8269C125.9 78.8269 123.063 77.6147 122.252 75.9984C121.442 74.3821 122.658 73.1699 125.286 73.1699C127.927 73.1699 130.555 74.3821 131.366 75.9984Z" fill="#DFE2E9"/>
<path fill-rule="evenodd" clip-rule="evenodd" d="M144.335 75.9984C145.146 77.6147 143.93 78.8269 141.498 78.8269C139.066 78.8269 136.229 77.6147 135.418 75.9984C134.607 74.3821 135.823 73.1699 138.255 73.1699C140.687 73.1699 143.525 74.5841 144.335 75.9984Z" fill="#DFE2E9"/>
<path fill-rule="evenodd" clip-rule="evenodd" d="M120.421 11.9457C121.232 13.562 120.016 14.7742 117.793 14.7742C115.361 14.7742 112.72 13.562 111.909 11.9457C111.098 10.3294 112.315 9.11719 114.55 9.11719C116.982 9.11719 119.414 10.3294 120.421 11.9457Z" fill="#DFE2E9"/>
<path fill-rule="evenodd" clip-rule="evenodd" d="M108.066 11.7426C108.876 13.3589 107.661 14.5712 105.425 14.5712C102.993 14.5712 100.352 13.3589 99.541 11.7426C98.7303 10.1263 99.9462 8.91406 102.182 8.91406C104.614 9.1161 107.255 10.3283 108.066 11.7426Z" fill="#DFE2E9"/>
<path fill-rule="evenodd" clip-rule="evenodd" d="M91.2383 98.8285C92.0489 100.445 90.6238 101.657 87.9957 101.657C85.5637 101.657 82.7263 100.445 81.9157 98.8285C81.105 97.2122 82.5172 96 85.1584 96C87.7866 96.202 90.6237 97.4143 91.2383 98.8285Z" fill="#DFE2E9"/>
<path fill-rule="evenodd" clip-rule="evenodd" d="M87.184 90.9497C87.9946 92.566 86.5695 93.7782 84.1375 93.7782C81.7055 93.7782 78.8682 92.566 78.2668 90.9497C77.4561 89.3333 78.8681 88.1211 81.3001 88.1211C83.7321 88.1211 86.3733 89.3333 87.184 90.9497Z" fill="#DFE2E9"/>
<path fill-rule="evenodd" clip-rule="evenodd" d="M118.198 99.0316C119.009 100.648 117.584 101.861 115.152 101.861C112.72 101.861 109.883 100.648 109.072 99.0316C108.261 97.4154 109.687 96.2031 112.119 96.2031C114.551 96.2031 117.178 97.4154 118.198 99.0316Z" fill="#DFE2E9"/>
<path fill-rule="evenodd" clip-rule="evenodd" d="M131.169 99.0316C131.98 100.648 130.554 101.861 128.123 101.861C125.691 101.861 122.853 100.648 122.043 99.0316C121.232 97.4154 122.657 96.2031 125.089 96.2031C127.521 96.2031 130.149 97.4154 131.169 99.0316Z" fill="#DFE2E9"/>
<path fill-rule="evenodd" clip-rule="evenodd" d="M144.14 99.0316C144.951 100.648 143.525 101.861 141.093 101.861C138.661 101.861 135.824 100.648 135.014 99.0316C134.203 97.4154 135.628 96.2031 138.06 96.2031C140.688 96.4052 143.329 97.6174 144.14 99.0316Z" fill="#DFE2E9"/>
<path fill-rule="evenodd" clip-rule="evenodd" d="M113.739 90.9497C114.55 92.566 113.125 93.7782 110.693 93.7782C108.261 93.7782 105.424 92.566 104.613 90.9497C103.803 89.3333 105.228 88.1211 107.659 88.1211C110.288 88.1211 112.929 89.5354 113.739 90.9497Z" fill="#DFE2E9"/>
<path fill-rule="evenodd" clip-rule="evenodd" d="M126.71 90.9497C127.521 92.566 126.096 93.7782 123.664 93.7782C121.232 93.7782 118.394 92.566 117.584 90.9497C116.773 89.3333 118.198 88.1211 120.63 88.1211C123.259 88.3231 125.9 89.5354 126.71 90.9497Z" fill="#DFE2E9"/>
<path fill-rule="evenodd" clip-rule="evenodd" d="M105.228 99.0316C106.038 100.648 104.613 101.861 102.181 101.861C99.7494 101.861 96.9123 100.648 96.1017 99.0316C95.2911 97.4154 96.7031 96.2031 99.1349 96.2031C101.776 96.2031 104.417 97.4154 105.228 99.0316Z" fill="#DFE2E9"/>
<path fill-rule="evenodd" clip-rule="evenodd" d="M100.966 90.9497C101.777 92.566 100.365 93.7782 97.9196 93.7782C95.4877 93.7782 92.6504 92.566 91.8397 90.9497C91.0291 89.3333 92.4542 88.1211 94.8861 88.1211C97.5142 88.1211 100.155 89.3333 100.966 90.9497Z" fill="#DFE2E9"/>
<path fill-rule="evenodd" clip-rule="evenodd" d="M139.681 91.1527C140.492 92.769 139.276 93.9812 136.635 93.9812C134.203 93.9812 131.365 92.769 130.555 91.1527C129.744 89.5364 131.169 88.3242 133.601 88.3242C136.229 88.3242 138.87 89.5364 139.681 91.1527Z" fill="#DFE2E9"/>
<path fill-rule="evenodd" clip-rule="evenodd" d="M152.848 91.1527C153.658 92.769 152.442 93.9812 149.814 93.9812C147.382 93.9812 144.545 92.769 143.735 91.1527C142.924 89.5364 144.14 88.3242 146.768 88.3242C149.2 88.3242 152.037 89.5364 152.848 91.1527Z" fill="#DFE2E9"/>
<path fill-rule="evenodd" clip-rule="evenodd" d="M95.6961 107.317C96.5068 108.933 95.0816 110.145 92.4536 110.145C89.8124 110.145 87.1843 108.933 86.3737 107.317C85.563 105.701 86.9751 104.488 89.6162 104.488C92.2443 104.488 94.8855 105.701 95.6961 107.317Z" fill="#DFE2E9"/>
<path fill-rule="evenodd" clip-rule="evenodd" d="M122.657 107.317C123.468 108.933 122.043 110.145 119.611 110.145C116.983 110.145 114.342 108.933 113.531 107.317C112.72 105.701 114.146 104.488 116.578 104.488C119.009 104.69 121.847 105.903 122.657 107.317Z" fill="#DFE2E9"/>
<path fill-rule="evenodd" clip-rule="evenodd" d="M135.628 107.52C136.439 109.136 135.013 110.348 132.582 110.348C129.953 110.348 127.312 109.136 126.502 107.52C125.691 105.904 127.116 104.691 129.548 104.691C131.98 104.691 134.817 105.904 135.628 107.52Z" fill="#DFE2E9"/>
<path fill-rule="evenodd" clip-rule="evenodd" d="M148.794 107.52C149.605 109.136 148.193 110.348 145.761 110.348C143.12 110.348 140.491 109.136 139.681 107.52C138.87 105.904 140.282 104.691 142.714 104.691C145.146 104.691 147.983 105.904 148.794 107.52Z" fill="#DFE2E9"/>
<path fill-rule="evenodd" clip-rule="evenodd" d="M162.169 107.52C162.98 109.136 161.764 110.348 159.136 110.348C156.494 110.348 153.866 109.136 153.056 107.52C152.245 105.904 153.657 104.691 156.089 104.691C158.521 104.691 161.162 106.106 162.169 107.52Z" fill="#DFE2E9"/>
<path fill-rule="evenodd" clip-rule="evenodd" d="M175.154 107.52C175.964 109.136 174.749 110.348 172.107 110.348C169.466 110.348 166.838 109.136 166.028 107.52C165.217 105.904 166.433 104.691 169.061 104.691C171.493 104.893 174.33 106.106 175.154 107.52Z" fill="#DFE2E9"/>
<path fill-rule="evenodd" clip-rule="evenodd" d="M109.688 107.317C110.498 108.933 109.073 110.145 106.445 110.145C103.804 110.145 101.163 108.933 100.352 107.317C99.5413 105.701 100.966 104.488 103.608 104.488C106.04 104.488 108.877 105.903 109.688 107.317Z" fill="#DFE2E9"/>
<path fill-rule="evenodd" clip-rule="evenodd" d="M99.5396 114.993C100.35 116.61 98.938 117.822 96.2969 117.822C93.6689 117.822 91.0279 116.61 90.2173 114.993C89.4066 113.376 90.8317 112.164 93.4598 112.164C96.1009 112.164 98.729 113.376 99.5396 114.993Z" fill="#DFE2E9"/>
<path fill-rule="evenodd" clip-rule="evenodd" d="M103.607 122.875C104.417 124.492 102.992 125.704 100.351 125.704C97.7228 125.704 95.0816 124.492 94.271 122.875C93.4603 121.259 94.8855 120.047 97.5135 120.047C100.155 120.249 102.796 121.461 103.607 122.875Z" fill="#DFE2E9"/>
<path fill-rule="evenodd" clip-rule="evenodd" d="M63.4659 67.7133C64.2766 69.3296 62.8645 70.5418 60.4325 70.5418C58.0005 70.5418 55.3594 69.3296 54.5487 67.7133C53.738 66.097 55.1632 64.8848 57.5952 64.8848C60.0271 64.8848 62.6552 66.299 63.4659 67.7133Z" fill="#DFE2E9"/>
<path fill-rule="evenodd" clip-rule="evenodd" d="M71.5736 83.8774C72.3843 85.4936 70.9721 86.7072 68.54 86.7072C66.108 86.7072 63.4668 85.4936 62.6561 83.8774C61.8454 82.2611 63.2707 81.0488 65.7028 81.0488C68.1348 81.0488 70.7629 82.2611 71.5736 83.8774Z" fill="#DFE2E9"/>
<path fill-rule="evenodd" clip-rule="evenodd" d="M67.5196 75.7947C68.3303 77.411 66.9181 78.6232 64.4861 78.6232C62.0542 78.6232 59.413 77.411 58.6024 75.7947C57.7918 74.1784 59.2169 72.9648 61.6488 72.9648C64.0808 72.9648 66.709 74.1784 67.5196 75.7947Z" fill="#DFE2E9"/>
<path fill-rule="evenodd" clip-rule="evenodd" d="M79.0779 98.8285C79.8886 100.445 78.4634 101.657 75.8354 101.657C73.4034 101.657 70.5662 100.445 69.9516 98.8285C69.141 97.2122 70.5661 96 73.1942 96C75.6261 96 78.2673 97.2122 79.0779 98.8285Z" fill="#DFE2E9"/>
<path fill-rule="evenodd" clip-rule="evenodd" d="M75.0252 90.7484C75.8358 92.3647 74.4106 93.5769 71.7825 93.5769C69.3506 93.5769 66.5134 92.3647 65.8989 90.7484C65.0882 89.1322 66.5135 87.9199 69.1416 87.9199C71.5735 88.122 74.4107 89.3342 75.0252 90.7484Z" fill="#DFE2E9"/>
<path fill-rule="evenodd" clip-rule="evenodd" d="M83.328 107.317C84.1386 108.933 82.7265 110.145 80.0853 110.145C77.4572 110.145 74.816 108.933 74.0053 107.317C73.1947 105.701 74.6199 104.488 77.248 104.488C79.8891 104.488 82.5173 105.701 83.328 107.317Z" fill="#DFE2E9"/>
<path fill-rule="evenodd" clip-rule="evenodd" d="M87.1836 114.793C87.9943 116.411 86.5691 117.623 83.941 117.623C81.2998 117.623 78.6716 116.411 77.861 114.793C77.0503 113.177 78.4624 111.965 81.1036 111.965C83.7317 112.167 86.3729 113.379 87.1836 114.793Z" fill="#DFE2E9"/>
<path fill-rule="evenodd" clip-rule="evenodd" d="M91.2383 122.875C92.0489 124.492 90.6238 125.704 87.9957 125.704C85.3545 125.704 82.7263 124.492 81.9157 122.875C81.105 121.259 82.5172 120.047 85.1584 120.047C87.7866 120.047 90.4276 121.461 91.2383 122.875Z" fill="#DFE2E9"/>
<path fill-rule="evenodd" clip-rule="evenodd" d="M58.0017 83.6762C58.8124 85.2924 57.3873 86.5046 54.7592 86.5046C52.3272 86.5046 49.6861 85.2924 48.8755 83.6762C48.0648 82.0599 49.49 80.8477 52.118 80.8477C54.55 80.8477 57.1911 82.2619 58.0017 83.6762Z" fill="#DFE2E9"/>
<path fill-rule="evenodd" clip-rule="evenodd" d="M54.1436 75.7947C54.9543 77.411 53.5422 78.6232 51.1103 78.6232C48.6783 78.6232 46.0371 77.411 45.2264 75.7947C44.4158 74.1784 45.8409 72.9648 48.2729 72.9648C50.7049 72.9648 53.333 74.1784 54.1436 75.7947Z" fill="#DFE2E9"/>
<path fill-rule="evenodd" clip-rule="evenodd" d="M65.4931 98.8285C66.3037 100.445 64.8916 101.657 62.2504 101.657C59.8184 101.657 56.981 100.445 56.3795 98.8285C55.5689 97.2122 56.981 96 59.6222 96C62.0542 96 64.6824 97.2122 65.4931 98.8285Z" fill="#DFE2E9"/>
<path fill-rule="evenodd" clip-rule="evenodd" d="M61.4395 90.7484C62.2502 92.3647 60.8381 93.5769 58.1968 93.5769C55.7648 93.5769 53.1365 92.3647 52.3258 90.7484C51.5151 89.1322 52.9274 87.9199 55.5687 87.9199C58.1968 87.9199 60.838 89.3342 61.4395 90.7484Z" fill="#DFE2E9"/>
<path fill-rule="evenodd" clip-rule="evenodd" d="M69.5465 107.114C70.3572 108.73 68.9451 109.942 66.3039 109.942C63.6758 109.942 61.0347 108.73 60.4332 107.114C59.6226 105.497 61.0347 104.285 63.6758 104.285C66.1078 104.487 68.7359 105.699 69.5465 107.114Z" fill="#DFE2E9"/>
<path fill-rule="evenodd" clip-rule="evenodd" d="M73.4028 114.793C74.2135 116.411 72.7882 117.623 70.16 117.623C67.5187 117.623 64.8907 116.411 64.08 114.793C63.2693 113.177 64.8907 111.965 67.3227 111.965C69.9509 111.965 72.5922 113.379 73.4028 114.793Z" fill="#DFE2E9"/>
<path fill-rule="evenodd" clip-rule="evenodd" d="M77.2482 122.875C78.0588 124.492 76.4375 125.704 74.0056 125.704C71.3775 125.704 68.7364 124.492 67.9257 122.875C67.1151 121.259 68.7363 120.047 71.1683 120.047C73.8094 120.047 76.6467 121.259 77.2482 122.875Z" fill="#DFE2E9"/>
<path fill-rule="evenodd" clip-rule="evenodd" d="M45.0306 83.6762C45.8413 85.2924 44.4161 86.5046 41.7879 86.5046C39.3558 86.5046 36.7145 85.2924 35.9038 83.6762C35.0931 82.0599 36.5183 80.8477 39.1465 80.8477C41.5786 80.8477 44.2199 82.0599 45.0306 83.6762Z" fill="#DFE2E9"/>
<path fill-rule="evenodd" clip-rule="evenodd" d="M41.1732 75.5941C41.9838 77.2104 40.5718 78.4227 37.9307 78.4227C35.4988 78.4227 32.8708 77.2104 32.0602 75.5941C31.2496 73.9778 32.6616 72.7656 35.3027 72.7656C37.7346 72.9677 40.3626 74.1799 41.1732 75.5941Z" fill="#DFE2E9"/>
<path fill-rule="evenodd" clip-rule="evenodd" d="M52.3254 98.8285C53.136 100.445 51.5148 101.657 49.0828 101.657C46.6509 101.657 43.8137 100.445 43.1992 98.8285C42.3885 97.2122 44.0097 96 46.4417 96C48.8736 96 51.5147 97.2122 52.3254 98.8285Z" fill="#DFE2E9"/>
<path fill-rule="evenodd" clip-rule="evenodd" d="M48.4692 90.7484C49.2799 92.3647 47.8678 93.5769 45.2267 93.5769C42.7948 93.5769 40.1667 92.3647 39.3561 90.7484C38.5455 89.1322 39.9575 87.9199 42.5986 87.9199C45.0305 87.9199 47.6586 89.1322 48.4692 90.7484Z" fill="#DFE2E9"/>
<path fill-rule="evenodd" clip-rule="evenodd" d="M56.3805 107.114C57.1912 108.73 55.5698 109.942 53.1378 109.942C50.4966 109.942 47.8684 108.73 47.2539 107.114C46.4432 105.497 48.0645 104.285 50.4965 104.285C52.9286 104.285 55.5698 105.699 56.3805 107.114Z" fill="#DFE2E9"/>
<path fill-rule="evenodd" clip-rule="evenodd" d="M60.0285 114.793C60.8392 116.411 59.2179 117.623 56.786 117.623C54.1448 117.623 51.5168 116.411 50.9023 114.793C50.0916 113.177 51.7129 111.965 54.1448 111.965C56.5767 111.965 59.2179 113.177 60.0285 114.793Z" fill="#DFE2E9"/>
<path fill-rule="evenodd" clip-rule="evenodd" d="M63.8715 122.875C64.6821 124.492 63.0608 125.704 60.6288 125.704C58.0007 125.704 55.3594 124.492 54.5488 122.875C53.7381 121.259 55.3594 120.047 57.7914 120.047C60.4326 120.047 63.0608 121.259 63.8715 122.875Z" fill="#DFE2E9"/>
<path fill-rule="evenodd" clip-rule="evenodd" d="M32.4522 83.6762C33.2628 85.2924 31.6415 86.5046 29.2096 86.5046C26.7776 86.5046 24.1495 85.2924 23.3388 83.6762C22.5281 82.0599 24.1494 80.8477 26.5814 80.8477C29.0134 80.8477 31.6415 82.0599 32.4522 83.6762Z" fill="#DFE2E9"/>
<path fill-rule="evenodd" clip-rule="evenodd" d="M39.5522 98.6274C40.3629 100.244 38.7416 101.457 36.3096 101.457C33.8775 101.457 31.2363 100.244 30.4257 98.6274C29.615 97.0111 31.2363 95.7988 33.6814 95.7988C36.3096 96.0009 38.9508 97.2131 39.5522 98.6274Z" fill="#DFE2E9"/>
<path fill-rule="evenodd" clip-rule="evenodd" d="M35.7082 90.7484C36.5188 92.3647 34.8976 93.5769 32.4657 93.5769C30.0207 93.5769 27.3926 92.3647 26.582 90.7484C25.7713 89.1322 27.3926 87.9199 29.8245 87.9199C32.4656 87.9199 35.0937 89.1322 35.7082 90.7484Z" fill="#DFE2E9"/>
<path fill-rule="evenodd" clip-rule="evenodd" d="M43.6056 107.114C44.4163 108.73 42.7949 109.942 40.3629 109.942C37.7348 109.942 35.0936 108.73 34.4921 107.114C33.6815 105.497 35.3028 104.285 37.7349 104.285C40.1669 104.285 42.795 105.497 43.6056 107.114Z" fill="#DFE2E9"/>
<path fill-rule="evenodd" clip-rule="evenodd" d="M47.2538 114.793C48.0645 116.411 46.4431 117.623 44.0112 117.623C41.3831 117.623 38.742 116.411 38.1406 114.793C37.3299 113.177 38.9512 111.965 41.3831 111.965C43.815 111.965 46.4432 113.177 47.2538 114.793Z" fill="#DFE2E9"/>
<path fill-rule="evenodd" clip-rule="evenodd" d="M50.9013 122.672C51.7119 124.288 50.0906 125.501 47.4626 125.501C44.8214 125.501 42.1934 124.288 41.5789 122.672C40.7682 121.056 42.3895 119.844 45.0307 119.844C47.6587 119.844 50.2998 121.258 50.9013 122.672Z" fill="#DFE2E9"/>
<path fill-rule="evenodd" clip-rule="evenodd" d="M19.4819 83.6762C20.2925 85.2924 18.6713 86.5046 16.2394 86.5046C13.8074 86.5046 11.1781 85.2924 10.3674 83.6762C9.75813 82.0599 11.1781 80.8477 13.6113 80.8477C16.0432 80.8477 18.6712 82.0599 19.4819 83.6762Z" fill="#DFE2E9"/>
<path fill-rule="evenodd" clip-rule="evenodd" d="M26.3731 98.6274C27.1837 100.244 25.5624 101.457 23.1304 101.457C20.6985 101.457 18.0704 100.244 17.2598 98.6274C16.6453 97.0111 18.0704 95.7988 20.5024 95.7988C23.1304 95.7988 25.7716 97.0111 26.3731 98.6274Z" fill="#DFE2E9"/>
<path fill-rule="evenodd" clip-rule="evenodd" d="M22.7248 90.5447C23.5354 92.161 21.9141 93.3733 19.4822 93.3733C17.0503 93.3733 14.4222 92.161 13.6116 90.5447C13.0023 88.9284 14.4222 87.7148 16.8541 87.7148C19.2861 87.9182 21.9141 89.1304 22.7248 90.5447Z" fill="#DFE2E9"/>
<path fill-rule="evenodd" clip-rule="evenodd" d="M30.2296 107.114C31.0403 108.73 29.419 109.942 26.987 109.942C24.3458 109.942 21.7176 108.73 21.1031 107.114C20.5016 105.497 21.9137 104.285 24.3457 104.285C26.987 104.285 29.6151 105.497 30.2296 107.114Z" fill="#DFE2E9"/>
<path fill-rule="evenodd" clip-rule="evenodd" d="M33.8776 114.592C34.6883 116.208 33.0669 117.42 30.4257 117.42C27.7976 117.42 25.1564 116.208 24.5549 114.592C23.9404 112.974 25.3656 111.762 27.9938 111.762C30.4388 111.964 33.067 113.176 33.8776 114.592Z" fill="#DFE2E9"/>
<path fill-rule="evenodd" clip-rule="evenodd" d="M37.5251 122.672C38.3358 124.288 36.7145 125.501 34.0863 125.501C31.4451 125.501 28.8038 124.288 28.2024 122.672C27.5878 121.056 29.0131 119.844 31.6543 119.844C34.0863 119.844 36.9237 121.258 37.5251 122.672Z" fill="#DFE2E9"/>
<path fill-rule="evenodd" clip-rule="evenodd" d="M13.2049 98.6274C13.8077 100.244 12.3943 101.457 9.96231 101.457C7.53034 101.457 4.89444 100.244 4.08378 98.6274C3.47579 97.0111 4.89438 95.7988 7.32766 95.7988C9.96229 95.7988 12.5969 97.0111 13.2049 98.6274Z" fill="#DFE2E9"/>
<path fill-rule="evenodd" clip-rule="evenodd" d="M9.5553 90.5447C10.1633 92.161 8.74458 93.3733 6.31261 93.3733C3.88064 93.3733 1.24601 92.161 0.43535 90.5447C-0.172643 88.9284 1.24598 87.7148 3.67795 87.7148C6.31259 87.7148 8.9473 89.1304 9.5553 90.5447Z" fill="#DFE2E9"/>
<path fill-rule="evenodd" clip-rule="evenodd" d="M17.0503 106.913C17.6649 108.529 16.2396 109.741 13.6115 109.741C10.9755 109.741 8.33947 108.529 7.73146 106.913C7.12346 105.296 8.54212 104.084 11.1781 104.084C13.6115 104.286 16.2396 105.498 17.0503 106.913Z" fill="#DFE2E9"/>
<path fill-rule="evenodd" clip-rule="evenodd" d="M20.5011 114.592C21.1026 116.208 19.6905 117.42 17.0493 117.42C14.4212 117.42 11.7852 116.208 11.1772 114.592C10.5679 112.974 11.9879 111.762 14.6173 111.762C17.0493 111.762 19.6905 113.176 20.5011 114.592Z" fill="#DFE2E9"/>
<path fill-rule="evenodd" clip-rule="evenodd" d="M24.1497 122.672C24.7512 124.288 23.3391 125.501 20.698 125.501C18.0699 125.501 15.4288 124.288 14.8274 122.672C14.2129 121.056 15.638 119.844 18.2661 119.844C20.698 119.844 23.3391 121.056 24.1497 122.672Z" fill="#DFE2E9"/>
<path fill-rule="evenodd" clip-rule="evenodd" d="M54.9547 131.16C55.7654 132.776 54.1441 133.988 51.516 133.988C48.8749 133.988 46.247 132.776 45.4364 131.16C44.6257 129.544 46.247 128.33 48.8751 128.33C51.5162 128.33 54.1441 129.544 54.9547 131.16Z" fill="#DFE2E9"/>
<path fill-rule="evenodd" clip-rule="evenodd" d="M41.3821 130.959C42.1927 132.575 40.5714 133.787 37.9304 133.787C35.3023 133.787 32.6613 132.575 32.0598 130.959C31.4453 129.342 32.8705 128.129 35.4985 128.129C37.9304 128.129 40.7676 129.544 41.3821 130.959Z" fill="#DFE2E9"/>
<path fill-rule="evenodd" clip-rule="evenodd" d="M27.7983 130.959C28.3998 132.575 26.9876 133.787 24.3465 133.787C21.7184 133.787 19.0773 132.575 18.4758 130.959C17.8613 129.342 19.2865 128.129 21.9146 128.129C24.5557 128.129 27.1838 129.342 27.7983 130.959Z" fill="#DFE2E9"/>
<path fill-rule="evenodd" clip-rule="evenodd" d="M130.96 123.077C131.771 124.693 130.358 125.905 127.717 125.905C125.089 125.905 122.448 124.693 121.637 123.077C120.826 121.46 122.252 120.248 124.88 120.248C127.312 120.248 130.149 121.46 130.96 123.077Z" fill="#DFE2E9"/>
<path fill-rule="evenodd" clip-rule="evenodd" d="M144.14 123.077C144.95 124.693 143.525 125.905 140.897 125.905C138.256 125.905 135.628 124.693 134.817 123.077C134.006 121.46 135.418 120.248 138.06 120.248C140.492 120.248 143.329 121.662 144.14 123.077Z" fill="#DFE2E9"/>
<path fill-rule="evenodd" clip-rule="evenodd" d="M157.515 123.278C158.326 124.894 156.901 126.106 154.469 126.106C151.841 126.106 149.199 124.894 148.193 123.278C147.382 121.661 148.794 120.449 151.226 120.449C153.867 120.449 156.704 121.661 157.515 123.278Z" fill="#DFE2E9"/>
<path fill-rule="evenodd" clip-rule="evenodd" d="M170.891 123.278C171.701 124.894 170.276 126.106 167.844 126.106C165.216 126.106 162.575 124.894 161.568 123.278C160.758 121.661 162.17 120.449 164.602 120.449C167.243 120.449 170.08 121.661 170.891 123.278Z" fill="#DFE2E9"/>
<path fill-rule="evenodd" clip-rule="evenodd" d="M184.071 123.278C184.882 124.894 183.666 126.106 181.025 126.106C178.396 126.106 175.755 124.894 174.748 123.278C173.938 121.661 175.154 120.449 177.782 120.449C180.423 120.449 183.26 121.661 184.071 123.278Z" fill="#DFE2E9"/>
<path fill-rule="evenodd" clip-rule="evenodd" d="M126.71 114.993C127.52 116.61 126.095 117.822 123.467 117.822C120.825 117.822 118.197 116.61 117.386 114.993C116.576 113.376 117.988 112.164 120.629 112.164C123.061 112.164 125.899 113.578 126.71 114.993Z" fill="#DFE2E9"/>
<path fill-rule="evenodd" clip-rule="evenodd" d="M139.877 115.196C140.688 116.813 139.275 118.026 136.844 118.026C134.202 118.026 131.574 116.813 130.764 115.196C129.953 113.579 131.365 112.367 133.797 112.367C136.229 112.367 138.87 113.579 139.877 115.196Z" fill="#DFE2E9"/>
<path fill-rule="evenodd" clip-rule="evenodd" d="M117.792 123.077C118.603 124.693 117.178 125.905 114.55 125.905C111.909 125.905 109.281 124.693 108.47 123.077C107.66 121.46 109.072 120.248 111.713 120.248C114.341 120.248 116.982 121.46 117.792 123.077Z" fill="#DFE2E9"/>
<path fill-rule="evenodd" clip-rule="evenodd" d="M113.53 114.993C114.341 116.61 112.929 117.822 110.287 117.822C107.659 117.822 105.018 116.61 104.207 114.993C103.397 113.376 104.822 112.164 107.45 112.164C110.091 112.164 112.719 113.376 113.53 114.993Z" fill="#DFE2E9"/>
<path fill-rule="evenodd" clip-rule="evenodd" d="M153.056 115.196C153.867 116.813 152.442 118.026 150.01 118.026C147.382 118.026 144.74 116.813 143.93 115.196C143.119 113.579 144.544 112.367 146.976 112.367C149.408 112.367 152.246 113.579 153.056 115.196Z" fill="#DFE2E9"/>
<path fill-rule="evenodd" clip-rule="evenodd" d="M166.433 115.196C167.244 116.813 165.819 118.026 163.387 118.026C160.759 118.026 158.117 116.813 157.11 115.196C156.3 113.579 157.712 112.367 160.144 112.367C162.785 112.367 165.622 113.579 166.433 115.196Z" fill="#DFE2E9"/>
<path fill-rule="evenodd" clip-rule="evenodd" d="M179.613 115.196C180.424 116.813 179.208 118.026 176.566 118.026C173.925 118.026 171.297 116.813 170.277 115.196C169.27 113.579 170.682 112.367 173.324 112.367C175.965 112.367 178.593 113.781 179.613 115.196Z" fill="#DFE2E9"/>
<path fill-rule="evenodd" clip-rule="evenodd" d="M166.629 139.645C167.439 141.261 166.027 142.474 163.386 142.474C160.758 142.474 157.921 141.261 157.11 139.645C156.299 138.029 157.712 136.816 160.353 136.816C162.981 136.816 165.622 138.029 166.629 139.645Z" fill="#DFE2E9"/>
<path fill-rule="evenodd" clip-rule="evenodd" d="M180.214 139.645C181.024 141.261 179.612 142.474 176.971 142.474C174.343 142.474 171.493 141.261 170.682 139.645C169.871 138.029 171.297 136.816 173.938 136.816C176.566 136.816 179.207 138.029 180.214 139.645Z" fill="#DFE2E9"/>
<path fill-rule="evenodd" clip-rule="evenodd" d="M193.59 139.645C194.4 141.261 192.988 142.474 190.556 142.474C187.915 142.474 185.078 141.261 184.267 139.645C183.457 138.029 184.882 136.816 187.314 136.816C189.942 137.018 192.583 138.231 193.59 139.645Z" fill="#DFE2E9"/>
<path fill-rule="evenodd" clip-rule="evenodd" d="M135.419 131.564C136.229 133.18 134.817 134.393 132.176 134.393C129.548 134.393 126.907 133.18 126.096 131.564C125.286 129.948 126.711 128.734 129.339 128.734C131.771 128.734 134.608 129.948 135.419 131.564Z" fill="#DFE2E9"/>
<path fill-rule="evenodd" clip-rule="evenodd" d="M162.171 131.564C162.981 133.18 161.569 134.393 158.928 134.393C156.3 134.393 153.463 133.18 152.652 131.564C151.841 129.948 153.253 128.734 155.895 128.734C158.523 128.734 161.36 130.15 162.171 131.564Z" fill="#DFE2E9"/>
<path fill-rule="evenodd" clip-rule="evenodd" d="M175.558 131.564C176.369 133.18 174.944 134.393 172.512 134.393C170.08 134.393 167.033 133.18 166.223 131.564C165.412 129.948 166.837 128.734 169.269 128.734C171.897 128.936 174.747 130.15 175.558 131.564Z" fill="#DFE2E9"/>
<path fill-rule="evenodd" clip-rule="evenodd" d="M188.935 131.765C189.745 133.382 188.529 134.594 185.888 134.594C183.26 134.594 180.423 133.382 179.612 131.765C178.802 130.149 180.214 128.936 182.646 128.936C185.287 128.936 188.124 130.149 188.935 131.765Z" fill="#DFE2E9"/>
<path fill-rule="evenodd" clip-rule="evenodd" d="M170.891 147.727C171.702 149.343 170.277 150.555 167.648 150.555C165.007 150.555 162.17 149.343 161.359 147.727C160.548 146.111 161.974 144.898 164.602 144.898C167.243 144.898 170.08 146.111 170.891 147.727Z" fill="#DFE2E9"/>
<path fill-rule="evenodd" clip-rule="evenodd" d="M184.671 147.727C185.482 149.343 184.07 150.555 181.429 150.555C178.801 150.555 175.964 149.343 175.153 147.727C174.329 146.111 175.754 144.898 178.395 144.898C181.023 144.898 183.861 146.111 184.671 147.727Z" fill="#DFE2E9"/>
<path fill-rule="evenodd" clip-rule="evenodd" d="M198.048 147.727C198.858 149.343 197.446 150.555 194.805 150.555C192.177 150.555 189.34 149.343 188.529 147.727C187.718 146.111 189.13 144.898 191.772 144.898C194.4 144.898 197.237 146.111 198.048 147.727Z" fill="#DFE2E9"/>
<path fill-rule="evenodd" clip-rule="evenodd" d="M193.184 162.68C193.995 164.296 192.583 165.509 189.942 165.509C187.314 165.509 184.476 164.296 183.666 162.68C182.855 161.064 184.267 159.852 186.908 159.852C189.536 159.852 192.374 161.266 193.184 162.68Z" fill="#DFE2E9"/>
<path fill-rule="evenodd" clip-rule="evenodd" d="M197.04 36.1918C198.047 37.8081 196.831 39.0203 194.399 39.0203C191.967 39.0203 189.339 37.8081 188.32 36.1918C187.313 34.5755 188.529 33.3633 190.961 33.3633C193.392 33.3633 196.23 34.5755 197.04 36.1918Z" fill="#DFE2E9"/>
<path fill-rule="evenodd" clip-rule="evenodd" d="M209.607 36.1918C210.614 37.8081 209.398 39.0203 206.966 39.0203C204.534 39.0203 201.906 37.8081 200.886 36.1918C199.879 34.5755 201.095 33.3633 203.527 33.3633C205.959 33.3633 208.587 34.5755 209.607 36.1918Z" fill="#DFE2E9"/>
<path fill-rule="evenodd" clip-rule="evenodd" d="M181.639 51.7504C182.646 53.3667 181.43 54.5789 178.802 54.5789C176.37 54.5789 173.729 53.3667 172.709 51.7504C171.703 50.1341 173.115 48.9219 175.35 48.9219C177.992 48.9219 180.829 50.1341 181.639 51.7504Z" fill="#DFE2E9"/>
<path fill-rule="evenodd" clip-rule="evenodd" d="M169.27 51.7504C170.277 53.3667 168.865 54.5789 166.433 54.5789C164.001 54.5789 161.359 53.3667 160.353 51.7504C159.542 50.1341 160.758 48.9219 163.19 48.9219C165.622 48.9219 168.459 50.1341 169.27 51.7504Z" fill="#DFE2E9"/>
<path fill-rule="evenodd" clip-rule="evenodd" d="M164.602 43.6684C165.413 45.286 164.197 46.4982 161.974 46.4982C159.542 46.4982 156.901 45.286 155.895 43.6684C155.084 42.0521 156.3 40.8398 158.732 40.8398C160.954 40.8398 163.595 42.0521 164.602 43.6684Z" fill="#DFE2E9"/>
<path fill-rule="evenodd" clip-rule="evenodd" d="M128.121 3.86495C128.932 5.48124 127.925 6.69345 125.493 6.69345C123.062 6.69345 120.63 5.48124 119.61 3.86495C118.799 2.24866 119.819 1.03516 122.251 1.03516C124.683 1.03516 127.115 2.24866 128.121 3.86495Z" fill="#DFE2E9"/>
<path fill-rule="evenodd" clip-rule="evenodd" d="M191.563 68.1176C192.583 69.7339 191.158 70.9462 188.726 70.9462C186.294 70.9462 183.456 69.7339 182.646 68.1176C181.639 66.5013 183.051 65.2891 185.483 65.2891C187.915 65.4911 190.752 66.7033 191.563 68.1176Z" fill="#DFE2E9"/>
<path fill-rule="evenodd" clip-rule="evenodd" d="M186.699 60.238C187.718 61.8543 186.293 63.0665 183.861 63.0665C181.429 63.0665 178.592 61.8543 177.781 60.238C176.775 58.6217 178.187 57.4082 180.619 57.4082C183.051 57.4082 185.888 58.6217 186.699 60.238Z" fill="#DFE2E9"/>
<path fill-rule="evenodd" clip-rule="evenodd" d="M178.997 68.1176C179.808 69.7339 178.592 70.9462 176.16 70.9462C173.728 70.9462 170.891 69.7339 170.08 68.1176C169.27 66.5013 170.486 65.2891 172.918 65.2891C175.349 65.2891 178.187 66.7033 178.997 68.1176Z" fill="#DFE2E9"/>
<path fill-rule="evenodd" clip-rule="evenodd" d="M174.343 60.0369C175.153 61.6532 173.937 62.8655 171.505 62.8655C169.06 62.8655 166.223 61.6532 165.412 60.0369C164.602 58.4206 165.817 57.207 168.249 57.207C170.681 57.4091 173.323 58.6226 174.343 60.0369Z" fill="#DFE2E9"/>
<path fill-rule="evenodd" clip-rule="evenodd" d="M137.445 20.0277C138.256 21.644 137.04 22.8562 134.817 22.8562C132.385 22.8562 129.744 21.644 128.934 20.0277C128.123 18.4114 129.339 17.1992 131.575 17.1992C134.007 17.1992 136.635 18.4114 137.445 20.0277Z" fill="#DFE2E9"/>
<path fill-rule="evenodd" clip-rule="evenodd" d="M132.789 11.9457C133.6 13.562 132.58 14.7742 130.148 14.7742C127.716 14.7742 125.088 13.562 124.277 11.9457C123.467 10.3294 124.683 9.11719 126.905 9.11719C129.337 9.11719 131.978 10.3294 132.789 11.9457Z" fill="#DFE2E9"/>
<path fill-rule="evenodd" clip-rule="evenodd" d="M201.29 84.2817C202.31 85.898 200.885 87.1115 198.453 87.1115C196.021 87.1115 193.184 85.898 192.177 84.2817C191.157 82.6654 192.582 81.4531 195.014 81.4531C197.642 81.4531 200.284 82.6654 201.29 84.2817Z" fill="#DFE2E9"/>
<path fill-rule="evenodd" clip-rule="evenodd" d="M214.065 84.2817C215.072 85.898 213.66 87.1115 211.228 87.1115C208.796 87.1115 205.958 85.898 204.939 84.2817C203.932 82.6654 205.344 81.4531 207.776 81.4531C210.417 81.4531 213.255 82.8674 214.065 84.2817Z" fill="#DFE2E9"/>
<path fill-rule="evenodd" clip-rule="evenodd" d="M196.427 76.1996C197.447 77.8159 196.022 79.0282 193.59 79.0282C191.158 79.0282 188.32 77.8159 187.51 76.1996C186.503 74.5833 187.915 73.3711 190.347 73.3711C192.779 73.3711 195.617 74.7853 196.427 76.1996Z" fill="#DFE2E9"/>
<path fill-rule="evenodd" clip-rule="evenodd" d="M209.201 76.1996C210.208 77.8159 208.796 79.0282 206.364 79.0282C203.932 79.0282 201.094 77.8159 200.074 76.1996C199.067 74.5833 200.48 73.3711 202.912 73.3711C205.553 73.5731 208.181 74.7853 209.201 76.1996Z" fill="#DFE2E9"/>
<path fill-rule="evenodd" clip-rule="evenodd" d="M188.529 84.2817C189.536 85.898 188.123 87.1115 185.691 87.1115C183.259 87.1115 180.422 85.898 179.611 84.2817C178.801 82.6654 180.017 81.4531 182.449 81.4531C184.881 81.4531 187.718 82.6654 188.529 84.2817Z" fill="#DFE2E9"/>
<path fill-rule="evenodd" clip-rule="evenodd" d="M183.861 76.1996C184.671 77.8159 183.455 79.0282 181.023 79.0282C178.591 79.0282 175.754 77.8159 174.943 76.1996C174.133 74.5833 175.349 73.3711 177.781 73.3711C180.213 73.3711 182.854 74.5833 183.861 76.1996Z" fill="#DFE2E9"/>
<path fill-rule="evenodd" clip-rule="evenodd" d="M141.498 26.8989C142.309 28.5152 141.093 29.7274 138.87 29.7274C136.438 29.7274 133.797 28.5152 132.986 26.8989C132.176 25.2826 133.392 24.0703 135.627 24.0703C138.059 24.2724 140.687 25.4846 141.498 26.8989Z" fill="#DFE2E9"/>
<path fill-rule="evenodd" clip-rule="evenodd" d="M149.408 20.0277C150.219 21.644 149.199 22.8562 146.767 22.8562C144.336 22.8562 141.707 21.644 140.897 20.0277C140.086 18.4114 141.093 17.1992 143.525 17.1992C145.761 17.1992 148.389 18.4114 149.408 20.0277Z" fill="#DFE2E9"/>
<path fill-rule="evenodd" clip-rule="evenodd" d="M144.545 11.9457C145.356 13.562 144.336 14.7742 141.904 14.7742C139.472 14.7742 136.844 13.562 136.034 11.9457C135.223 10.3294 136.23 9.11719 138.662 9.11719C141.094 9.11719 143.735 10.3294 144.545 11.9457Z" fill="#DFE2E9"/>
<path fill-rule="evenodd" clip-rule="evenodd" d="M153.462 27.1C154.273 28.7163 153.253 29.9285 150.821 29.9285C148.389 29.9285 145.761 28.7163 144.951 27.1C144.14 25.4837 145.147 24.2715 147.579 24.2715C150.011 24.2715 152.652 25.4837 153.462 27.1Z" fill="#DFE2E9"/>
<path fill-rule="evenodd" clip-rule="evenodd" d="M161.765 20.0277C162.785 21.644 161.569 22.8562 159.137 22.8562C156.705 22.8562 154.064 21.644 153.253 20.0277C152.246 18.4114 153.462 17.1992 155.894 17.1992C158.117 17.1992 160.758 18.4114 161.765 20.0277Z" fill="#DFE2E9"/>
<path fill-rule="evenodd" clip-rule="evenodd" d="M156.901 11.9457C157.921 13.562 156.705 14.7742 154.273 14.7742C151.842 14.7742 149.2 13.562 148.39 11.9457C147.383 10.3294 148.599 9.11719 151.031 9.11719C153.254 9.11719 155.895 10.5315 156.901 11.9457Z" fill="#DFE2E9"/>
<path fill-rule="evenodd" clip-rule="evenodd" d="M166.027 27.1C167.034 28.7163 165.818 29.9285 163.386 29.9285C160.954 29.9285 158.326 28.7163 157.306 27.1C156.299 25.4837 157.515 24.2715 159.947 24.2715C162.379 24.2715 165.008 25.4837 166.027 27.1Z" fill="#DFE2E9"/>
<path fill-rule="evenodd" clip-rule="evenodd" d="M174.134 20.0277C175.154 21.644 173.938 22.8562 171.493 22.8562C169.061 22.8562 166.433 21.644 165.413 20.0277C164.407 18.4114 165.622 17.1992 168.054 17.1992C170.486 17.1992 173.127 18.6135 174.134 20.0277Z" fill="#DFE2E9"/>
<path fill-rule="evenodd" clip-rule="evenodd" d="M178.396 27.1C179.403 28.7163 178.187 29.9285 175.755 29.9285C173.323 29.9285 170.681 28.7163 169.675 27.1C168.655 25.4837 169.871 24.2715 172.303 24.2715C174.748 24.2715 177.585 25.4837 178.396 27.1Z" fill="#DFE2E9"/>
<path fill-rule="evenodd" clip-rule="evenodd" d="M190.556 27.1C191.563 28.7163 190.347 29.9285 187.915 29.9285C185.483 29.9285 182.855 28.7163 181.835 27.1C180.828 25.4837 182.044 24.2715 184.476 24.2715C186.908 24.2715 189.536 25.6858 190.556 27.1Z" fill="#DFE2E9"/>
<path fill-rule="evenodd" clip-rule="evenodd" d="M198.453 20.2309C199.472 21.8472 198.256 23.0594 195.824 23.0594C193.393 23.0594 190.752 21.8472 189.745 20.2309C188.725 18.6145 189.941 17.4023 192.373 17.4023C194.805 17.4023 197.446 18.6145 198.453 20.2309Z" fill="#DFE2E9"/>
<path fill-rule="evenodd" clip-rule="evenodd" d="M206.56 12.1489C207.58 13.7652 206.364 14.9774 204.129 14.9774C201.697 14.9774 199.069 13.7652 198.049 12.1489C197.042 10.5325 198.258 9.32031 200.481 9.32031C202.913 9.32031 205.554 10.5325 206.56 12.1489Z" fill="#DFE2E9"/>
<path fill-rule="evenodd" clip-rule="evenodd" d="M221.361 20.8363C222.368 22.4526 221.152 23.6648 218.929 23.6648C216.497 23.6648 213.856 22.4526 212.849 20.8363C211.829 19.22 213.045 18.0078 215.281 18.0078C217.504 18.0078 220.341 19.22 221.361 20.8363Z" fill="#DFE2E9"/>
<path fill-rule="evenodd" clip-rule="evenodd" d="M210.417 99.436C211.424 101.054 210.012 102.266 207.58 102.266C205.148 102.266 202.311 101.054 201.291 99.436C200.284 97.8197 201.696 96.6074 204.128 96.6074C206.77 96.6074 209.398 97.8197 210.417 99.436Z" fill="#DFE2E9"/>
<path fill-rule="evenodd" clip-rule="evenodd" d="M223.387 99.436C224.394 101.054 222.982 102.266 220.55 102.266C218.118 102.266 215.281 101.054 214.261 99.436C213.254 97.8197 214.666 96.6074 217.098 96.6074C219.53 96.6074 222.368 97.8197 223.387 99.436Z" fill="#DFE2E9"/>
<path fill-rule="evenodd" clip-rule="evenodd" d="M236.554 99.436C237.574 101.054 236.149 102.266 233.717 102.266C231.285 102.266 228.448 101.054 227.441 99.436C226.421 97.8197 227.846 96.6074 230.278 96.6074C232.71 96.6074 235.547 97.8197 236.554 99.436Z" fill="#DFE2E9"/>
<path fill-rule="evenodd" clip-rule="evenodd" d="M205.552 91.3538C206.559 92.9701 205.147 94.1823 202.715 94.1823C200.283 94.1823 197.446 92.9701 196.426 91.3538C195.419 89.7376 196.831 88.5254 199.263 88.5254C201.904 88.5254 204.532 89.7376 205.552 91.3538Z" fill="#DFE2E9"/>
<path fill-rule="evenodd" clip-rule="evenodd" d="M218.523 91.3538C219.53 92.9701 218.118 94.1823 215.686 94.1823C213.254 94.1823 210.416 92.9701 209.397 91.3538C208.39 89.7376 209.802 88.5254 212.234 88.5254C214.666 88.5254 217.503 89.7376 218.523 91.3538Z" fill="#DFE2E9"/>
<path fill-rule="evenodd" clip-rule="evenodd" d="M197.447 99.2347C198.258 100.852 197.041 102.065 194.61 102.065C192.178 102.065 189.34 100.852 188.32 99.2347C187.51 97.6185 188.726 96.4062 191.158 96.4062C193.799 96.6083 196.636 97.8205 197.447 99.2347Z" fill="#DFE2E9"/>
<path fill-rule="evenodd" clip-rule="evenodd" d="M156.705 99.2347C157.515 100.852 156.299 102.065 153.658 102.065C151.226 102.065 148.389 100.852 147.578 99.2347C146.768 97.6185 147.984 96.4062 150.625 96.4062C153.253 96.4062 155.894 97.6185 156.705 99.2347Z" fill="#DFE2E9"/>
<path fill-rule="evenodd" clip-rule="evenodd" d="M152.245 68.1176C153.056 69.7339 151.84 70.9462 149.408 70.9462C146.976 70.9462 144.139 69.7339 143.328 68.1176C142.518 66.5013 143.733 65.2891 146.165 65.2891C148.597 65.2891 151.435 66.5013 152.245 68.1176Z" fill="#DFE2E9"/>
<path fill-rule="evenodd" clip-rule="evenodd" d="M165.216 68.1176C166.027 69.7339 164.811 70.9462 162.379 70.9462C159.947 70.9462 157.11 69.7339 156.299 68.1176C155.488 66.5013 156.704 65.2891 159.136 65.2891C161.568 65.2891 164.196 66.5013 165.216 68.1176Z" fill="#DFE2E9"/>
<path fill-rule="evenodd" clip-rule="evenodd" d="M161.359 84.0786C162.17 85.6949 160.954 86.9071 158.522 86.9071C156.09 86.9071 153.252 85.6949 152.442 84.0786C151.631 82.4623 152.847 81.25 155.488 81.25C157.711 81.25 160.548 82.6643 161.359 84.0786Z" fill="#DFE2E9"/>
<path fill-rule="evenodd" clip-rule="evenodd" d="M174.538 84.0786C175.349 85.6949 174.133 86.9071 171.701 86.9071C169.269 86.9071 166.432 85.6949 165.621 84.0786C164.811 82.4623 166.027 81.25 168.458 81.25C170.89 81.452 173.518 82.6643 174.538 84.0786Z" fill="#DFE2E9"/>
<path fill-rule="evenodd" clip-rule="evenodd" d="M156.9 75.9984C157.711 77.6147 156.495 78.8269 154.063 78.8269C151.631 78.8269 148.793 77.6147 147.983 75.9984C147.172 74.3821 148.388 73.1699 150.82 73.1699C153.252 73.372 155.893 74.5841 156.9 75.9984Z" fill="#DFE2E9"/>
<path fill-rule="evenodd" clip-rule="evenodd" d="M169.871 76.1996C170.682 77.8159 169.466 79.0282 167.034 79.0282C164.602 79.0282 161.765 77.8159 160.954 76.1996C160.144 74.5833 161.359 73.3711 163.791 73.3711C166.223 73.3711 168.865 74.5833 169.871 76.1996Z" fill="#DFE2E9"/>
<path fill-rule="evenodd" clip-rule="evenodd" d="M170.08 99.2347C170.891 100.852 169.675 102.065 167.034 102.065C164.601 102.065 161.764 100.852 160.953 99.2347C160.143 97.6185 161.359 96.4062 164 96.4062C166.432 96.4062 169.269 97.6185 170.08 99.2347Z" fill="#DFE2E9"/>
<path fill-rule="evenodd" clip-rule="evenodd" d="M165.413 91.1527C166.223 92.769 165.007 93.9812 162.379 93.9812C159.947 93.9812 157.11 92.769 156.299 91.1527C155.488 89.5364 156.705 88.3242 159.333 88.3242C161.765 88.3242 164.602 89.5364 165.413 91.1527Z" fill="#DFE2E9"/>
<path fill-rule="evenodd" clip-rule="evenodd" d="M178.592 91.1527C179.403 92.769 178.187 93.9812 175.755 93.9812C173.323 93.9812 170.486 92.769 169.675 91.1527C168.864 89.5364 170.08 88.3242 172.512 88.3242C174.944 88.3242 177.782 89.7384 178.592 91.1527Z" fill="#DFE2E9"/>
<path fill-rule="evenodd" clip-rule="evenodd" d="M182.646 99.2347C183.457 100.852 182.241 102.065 179.613 102.065C176.971 102.065 174.343 100.852 173.323 99.2347C172.513 97.6185 173.729 96.4062 176.37 96.4062C178.998 96.4062 181.835 97.6185 182.646 99.2347Z" fill="#DFE2E9"/>
<path fill-rule="evenodd" clip-rule="evenodd" d="M192.778 91.3538C193.798 92.9701 192.373 94.1823 189.941 94.1823C187.509 94.1823 184.672 92.9701 183.665 91.3538C182.854 89.7376 184.071 88.5254 186.502 88.5254C189.131 88.5254 191.772 89.7376 192.778 91.3538Z" fill="#DFE2E9"/>
<path fill-rule="evenodd" clip-rule="evenodd" d="M231.494 91.3538C232.501 92.9701 231.089 94.1823 228.657 94.1823C226.225 94.1823 223.387 92.9701 222.367 91.3538C221.36 89.7376 222.773 88.5254 225.205 88.5254C227.637 88.5254 230.474 89.9396 231.494 91.3538Z" fill="#DFE2E9"/>
<path fill-rule="evenodd" clip-rule="evenodd" d="M188.53 107.719C189.34 109.335 188.124 110.548 185.483 110.548C182.855 110.548 180.213 109.335 179.206 107.719C178.396 106.103 179.612 104.891 182.24 104.891C184.881 104.891 187.719 106.103 188.53 107.719Z" fill="#DFE2E9"/>
<path fill-rule="evenodd" clip-rule="evenodd" d="M215.477 107.719C216.497 109.335 215.072 110.548 212.64 110.548C210.012 110.548 207.371 109.335 206.364 107.719C205.344 106.103 206.769 104.891 209.201 104.891C211.633 104.891 214.471 106.305 215.477 107.719Z" fill="#DFE2E9"/>
<path fill-rule="evenodd" clip-rule="evenodd" d="M228.447 107.719C229.467 109.335 228.042 110.548 225.61 110.548C222.982 110.548 220.34 109.335 219.333 107.719C218.314 106.103 219.739 104.891 222.171 104.891C224.799 105.093 227.637 106.305 228.447 107.719Z" fill="#DFE2E9"/>
<path fill-rule="evenodd" clip-rule="evenodd" d="M241.628 107.922C242.634 109.539 241.222 110.751 238.79 110.751C236.149 110.751 233.312 109.539 232.501 107.922C231.494 106.306 232.906 105.094 235.338 105.094C237.98 105.094 240.817 106.306 241.628 107.922Z" fill="#DFE2E9"/>
<path fill-rule="evenodd" clip-rule="evenodd" d="M202.507 107.719C203.317 109.335 202.101 110.548 199.473 110.548C196.832 110.548 194.204 109.335 193.184 107.719C192.373 106.103 193.589 104.891 196.23 104.891C198.859 104.891 201.5 106.103 202.507 107.719Z" fill="#DFE2E9"/>
<path fill-rule="evenodd" clip-rule="evenodd" d="M197.643 123.278C198.453 124.894 197.237 126.106 194.609 126.106C191.968 126.106 189.131 124.894 188.32 123.278C187.51 121.661 188.726 120.449 191.367 120.449C193.995 120.449 196.832 121.863 197.643 123.278Z" fill="#DFE2E9"/>
<path fill-rule="evenodd" clip-rule="evenodd" d="M192.988 115.4C193.798 117.016 192.582 118.229 189.941 118.229C187.313 118.229 184.672 117.016 183.665 115.4C182.855 113.783 184.071 112.57 186.699 112.57C189.34 112.57 192.177 113.783 192.988 115.4Z" fill="#DFE2E9"/>
<path fill-rule="evenodd" clip-rule="evenodd" d="M224.799 123.481C225.819 125.097 224.394 126.309 221.766 126.309C219.124 126.309 216.287 125.097 215.476 123.481C214.47 121.865 215.882 120.652 218.523 120.652C221.151 120.652 223.988 121.865 224.799 123.481Z" fill="#DFE2E9"/>
<path fill-rule="evenodd" clip-rule="evenodd" d="M238.176 123.481C239.196 125.097 237.771 126.309 235.142 126.309C232.501 126.309 229.664 125.097 228.853 123.481C227.846 121.865 229.259 120.652 231.9 120.652C234.332 120.652 237.169 121.865 238.176 123.481Z" fill="#DFE2E9"/>
<path fill-rule="evenodd" clip-rule="evenodd" d="M220.144 115.4C221.151 117.016 219.739 118.229 217.098 118.229C214.469 118.229 211.632 117.016 210.822 115.4C209.802 113.783 211.227 112.57 213.855 112.57C216.287 112.57 219.124 113.783 220.144 115.4Z" fill="#DFE2E9"/>
<path fill-rule="evenodd" clip-rule="evenodd" d="M233.115 115.4C234.122 117.016 232.71 118.229 230.278 118.229C227.636 118.229 224.799 117.016 223.988 115.4C222.982 113.783 224.394 112.57 226.826 112.57C229.467 112.772 232.304 113.985 233.115 115.4Z" fill="#DFE2E9"/>
<path fill-rule="evenodd" clip-rule="evenodd" d="M211.828 123.481C212.639 125.097 211.423 126.309 208.795 126.309C206.154 126.309 203.317 125.097 202.506 123.481C201.695 121.865 202.911 120.652 205.552 120.652C207.984 120.652 210.821 121.865 211.828 123.481Z" fill="#DFE2E9"/>
<path fill-rule="evenodd" clip-rule="evenodd" d="M206.965 115.4C207.985 117.016 206.56 118.229 203.932 118.229C201.291 118.229 198.663 117.016 197.643 115.4C196.832 113.783 198.048 112.57 200.689 112.57C203.318 112.57 206.155 113.783 206.965 115.4Z" fill="#DFE2E9"/>
<path fill-rule="evenodd" clip-rule="evenodd" d="M246.492 115.601C247.511 117.218 246.086 118.43 243.654 118.43C241.013 118.43 238.176 117.218 237.365 115.601C236.359 113.984 237.771 112.771 240.203 112.771C242.635 112.771 245.485 113.984 246.492 115.601Z" fill="#DFE2E9"/>
<path fill-rule="evenodd" clip-rule="evenodd" d="M207.174 139.848C207.985 141.464 206.769 142.677 204.128 142.677C201.5 142.677 198.663 141.464 197.852 139.848C197.041 138.232 198.257 137.02 200.885 137.02C203.526 137.02 206.364 138.232 207.174 139.848Z" fill="#DFE2E9"/>
<path fill-rule="evenodd" clip-rule="evenodd" d="M202.507 131.765C203.317 133.382 202.101 134.594 199.473 134.594C196.832 134.594 193.994 133.382 193.184 131.765C192.373 130.149 193.589 128.936 196.23 128.936C198.859 128.936 201.696 130.149 202.507 131.765Z" fill="#DFE2E9"/>
<path fill-rule="evenodd" clip-rule="evenodd" d="M229.872 131.765C230.879 133.382 229.467 134.594 226.826 134.594C224.198 134.594 221.361 133.382 220.55 131.765C219.53 130.149 220.955 128.936 223.583 128.936C226.224 129.138 229.061 130.351 229.872 131.765Z" fill="#DFE2E9"/>
<path fill-rule="evenodd" clip-rule="evenodd" d="M221.557 139.848C222.577 141.464 221.152 142.677 218.524 142.677C215.883 142.677 213.045 141.464 212.235 139.848C211.424 138.232 212.64 137.02 215.281 137.02C217.713 137.02 220.55 138.232 221.557 139.848Z" fill="#DFE2E9"/>
<path fill-rule="evenodd" clip-rule="evenodd" d="M216.694 131.765C217.714 133.382 216.288 134.594 213.66 134.594C211.019 134.594 208.182 133.382 207.371 131.765C206.561 130.149 207.777 128.936 210.418 128.936C213.046 128.936 215.883 130.351 216.694 131.765Z" fill="#DFE2E9"/>
<path fill-rule="evenodd" clip-rule="evenodd" d="M211.828 147.727C212.639 149.343 211.423 150.555 208.795 150.555C206.154 150.555 203.316 149.343 202.506 147.727C201.695 146.111 203.12 144.898 205.552 144.898C208.18 145.1 211.017 146.313 211.828 147.727Z" fill="#DFE2E9"/>
<path fill-rule="evenodd" clip-rule="evenodd" d="M274.263 91.7592C275.073 93.1734 274.053 94.1836 271.831 94.1836C269.595 94.1836 266.967 92.9714 266.156 91.5572C265.345 90.143 266.352 89.1328 268.588 89.1328C270.811 89.3348 273.243 90.345 274.263 91.7592Z" fill="#DFE2E9"/>
<path fill-rule="evenodd" clip-rule="evenodd" d="M259.461 83.8765C260.272 85.2908 259.265 86.301 257.029 86.301C254.806 86.301 252.165 85.0888 251.355 83.6745C250.544 82.2602 251.564 81.25 253.787 81.25C256.022 81.452 258.65 82.4623 259.461 83.8765Z" fill="#DFE2E9"/>
</svg>
