<svg viewBox="0 0 191 165" fill="none" xmlns="http://www.w3.org/2000/svg">
<path fill-rule="evenodd" clip-rule="evenodd" d="M48.1757 145.754C48.1757 147.371 46.3517 148.583 44.3251 148.583C42.2971 148.583 40.6758 147.371 40.8785 145.754C40.8785 144.138 42.7025 142.926 44.7304 142.926C46.757 143.128 48.3784 144.34 48.1757 145.754Z" fill="currentColor"/>
<path fill-rule="evenodd" clip-rule="evenodd" d="M37.23 153.432C37.23 155.048 35.406 156.262 33.3794 156.262C31.3528 156.262 29.7315 155.048 29.9341 153.432C30.1368 151.816 31.7581 150.604 33.7847 150.604C35.8113 150.604 37.4326 151.816 37.23 153.432Z" fill="currentColor"/>
<path fill-rule="evenodd" clip-rule="evenodd" d="M16.3542 153.432C16.1516 155.048 14.529 156.262 12.5024 156.262C10.4758 156.262 8.85452 155.048 9.05718 153.432C9.25984 151.816 10.8811 150.604 12.9077 150.604C14.9356 150.604 16.3542 151.816 16.3542 153.432Z" fill="currentColor"/>
<path fill-rule="evenodd" clip-rule="evenodd" d="M26.6898 153.432C26.4872 155.048 24.8659 156.262 22.8393 156.262C20.8127 156.262 19.1914 155.048 19.3941 153.432C19.5968 151.816 21.218 150.604 23.2446 150.604C25.2712 150.604 26.8925 151.816 26.6898 153.432Z" fill="currentColor"/>
<path fill-rule="evenodd" clip-rule="evenodd" d="M37.8383 146.159C37.8383 147.775 36.0143 148.987 33.9877 148.987C31.9612 148.987 30.3399 147.775 30.5425 146.159C30.7452 144.542 32.3665 143.33 34.3931 143.33C36.4196 143.33 37.8383 144.542 37.8383 146.159Z" fill="currentColor"/>
<path fill-rule="evenodd" clip-rule="evenodd" d="M16.9627 146.159C16.7601 147.775 15.1388 148.987 13.1108 148.987C11.0842 148.987 9.46291 147.775 9.66558 146.159C9.86824 144.542 11.4895 143.33 13.5161 143.33C15.5441 143.33 17.1654 144.542 16.9627 146.159Z" fill="currentColor"/>
<path fill-rule="evenodd" clip-rule="evenodd" d="M7.43586 146.159C7.2332 147.775 5.61188 148.987 3.58524 148.987C1.5573 148.987 0.138672 147.775 0.138672 146.159C0.341336 144.542 1.96397 143.33 3.99061 143.33C6.01724 143.33 7.43586 144.542 7.43586 146.159Z" fill="currentColor"/>
<path fill-rule="evenodd" clip-rule="evenodd" d="M27.2975 146.159C27.0949 147.775 25.4735 148.987 23.4469 148.987C21.4202 148.987 19.7988 147.775 20.0015 146.159C20.2042 144.542 21.8255 143.33 23.8522 143.33C25.8789 143.33 27.5002 144.542 27.2975 146.159Z" fill="currentColor"/>
<path fill-rule="evenodd" clip-rule="evenodd" d="M48.5799 137.469C48.5799 139.085 46.756 140.298 44.7293 140.298C42.7014 140.298 41.0801 139.085 41.2828 137.469C41.2828 135.853 43.1067 134.641 45.1347 134.641C47.1613 134.641 48.7826 135.853 48.5799 137.469Z" fill="currentColor"/>
<path fill-rule="evenodd" clip-rule="evenodd" d="M59.1201 137.469C59.1201 139.085 57.2948 140.298 55.2681 140.298C53.2415 140.298 51.6201 139.085 51.8228 137.469C51.8228 135.853 53.6468 134.641 55.6735 134.641C57.7001 134.641 59.1201 136.055 59.1201 137.469Z" fill="currentColor"/>
<path fill-rule="evenodd" clip-rule="evenodd" d="M48.9858 129.793C48.9858 131.409 47.1618 132.621 45.1351 132.621C43.1071 132.621 41.6885 131.409 41.6885 129.793C41.6885 128.176 43.5125 126.963 45.5405 126.963C47.5671 127.165 49.1885 128.378 48.9858 129.793Z" fill="currentColor"/>
<path fill-rule="evenodd" clip-rule="evenodd" d="M59.5258 129.793C59.5258 131.409 57.7018 132.621 55.8778 132.621C53.8499 132.621 52.2285 131.409 52.4312 129.793C52.4312 128.176 54.2552 126.963 56.0805 126.963C57.9045 127.165 59.5258 128.378 59.5258 129.793Z" fill="currentColor"/>
<path fill-rule="evenodd" clip-rule="evenodd" d="M69.2529 129.793C69.2529 131.409 67.6316 132.621 65.605 132.621C63.5784 132.621 61.9571 131.409 62.1597 129.793C62.1597 128.176 63.9837 126.963 65.8076 126.963C67.8343 127.165 69.4556 128.378 69.2529 129.793Z" fill="currentColor"/>
<path fill-rule="evenodd" clip-rule="evenodd" d="M79.793 129.994C79.793 131.61 78.1717 132.822 76.145 132.822C74.1184 132.822 72.4971 131.61 72.6998 129.994C72.6998 128.378 74.3211 127.164 76.3477 127.164C78.1717 127.164 79.793 128.378 79.793 129.994Z" fill="currentColor"/>
<path fill-rule="evenodd" clip-rule="evenodd" d="M49.5936 122.317C49.5936 123.933 47.7696 125.145 45.9456 125.145C43.9177 125.145 42.499 123.933 42.499 122.317C42.499 120.701 44.323 119.488 46.1483 119.488C47.9723 119.488 49.5936 120.701 49.5936 122.317Z" fill="currentColor"/>
<path fill-rule="evenodd" clip-rule="evenodd" d="M59.7283 122.317C59.7283 123.933 57.903 125.145 56.0791 125.145C54.0524 125.145 52.6338 123.933 52.6338 122.317C52.6338 120.701 54.4578 119.488 56.2817 119.488C58.3083 119.488 59.931 120.701 59.7283 122.317Z" fill="currentColor"/>
<path fill-rule="evenodd" clip-rule="evenodd" d="M69.6586 122.317C69.6586 123.933 68.0373 125.145 66.0107 125.145C63.9841 125.145 62.5654 123.933 62.5654 122.317C62.5654 120.701 64.1867 119.488 66.2133 119.488C68.0373 119.488 69.6586 120.701 69.6586 122.317Z" fill="currentColor"/>
<path fill-rule="evenodd" clip-rule="evenodd" d="M79.9958 122.317C79.9958 123.933 78.3745 125.145 76.3479 125.145C74.3213 125.145 72.9014 123.933 72.9014 122.317C72.9014 120.701 74.5239 119.488 76.5505 119.488C78.3745 119.488 79.9958 120.701 79.9958 122.317Z" fill="currentColor"/>
<path fill-rule="evenodd" clip-rule="evenodd" d="M49.9989 114.637C49.9989 116.254 48.1749 117.466 46.3509 117.466C44.3242 117.466 42.9043 116.254 42.9043 114.637C42.9043 113.021 44.7296 111.809 46.5535 111.809C48.5802 111.809 49.9989 113.021 49.9989 114.637Z" fill="currentColor"/>
<path fill-rule="evenodd" clip-rule="evenodd" d="M39.6616 114.637C39.6616 116.254 37.8376 117.466 36.0136 117.466C33.987 117.466 32.5684 116.254 32.5684 114.637C32.771 113.021 34.3923 111.809 36.2163 111.809C38.2429 111.809 39.8643 113.021 39.6616 114.637Z" fill="currentColor"/>
<path fill-rule="evenodd" clip-rule="evenodd" d="M31.5557 90.7936C31.353 92.4101 29.7317 93.6224 27.9063 93.6224C26.0823 93.6224 24.461 92.4101 24.6637 90.7936C24.8663 89.1772 26.4877 87.9648 28.313 87.9648C30.3397 87.9648 31.7583 89.1772 31.5557 90.7936Z" fill="currentColor"/>
<path fill-rule="evenodd" clip-rule="evenodd" d="M21.624 90.7936C21.4213 92.4101 19.8 93.6224 17.976 93.6224C16.152 93.6224 14.5293 92.4101 14.732 90.7936C14.9347 89.1772 16.5573 87.9648 18.3813 87.9648C20.408 87.9648 21.8266 89.1772 21.624 90.7936Z" fill="currentColor"/>
<path fill-rule="evenodd" clip-rule="evenodd" d="M50.8103 98.2702C50.8103 99.8866 48.9863 101.099 47.1623 101.099C45.1356 101.099 43.717 99.8866 43.9196 98.2702C43.9196 96.6538 45.7436 95.4414 47.5676 95.4414C49.3916 95.6434 51.0129 96.8558 50.8103 98.2702Z" fill="currentColor"/>
<path fill-rule="evenodd" clip-rule="evenodd" d="M40.6755 98.2702C40.6755 99.8866 38.8515 101.099 37.0275 101.099C35.0009 101.099 33.5822 99.8866 33.7849 98.2702C33.9875 96.6538 35.6089 95.4414 37.4329 95.4414C39.4595 95.6434 40.8781 96.8558 40.6755 98.2702Z" fill="currentColor"/>
<path fill-rule="evenodd" clip-rule="evenodd" d="M20.6102 98.2702C20.4076 99.8866 18.7863 101.099 16.9624 101.099C14.9345 101.099 13.5158 99.8866 13.7185 98.2702C13.9211 96.6538 15.5424 95.4414 17.3677 95.4414C19.3943 95.4414 20.8129 96.8558 20.6102 98.2702Z" fill="currentColor"/>
<path fill-rule="evenodd" clip-rule="evenodd" d="M60.1336 114.637C60.1336 116.254 58.5123 117.466 56.4856 117.466C54.4577 117.466 53.0391 116.254 53.0391 114.637C53.0391 113.021 54.863 111.809 56.6883 111.809C58.7149 111.809 60.3362 113.223 60.1336 114.637Z" fill="currentColor"/>
<path fill-rule="evenodd" clip-rule="evenodd" d="M69.8608 114.637C69.8608 116.254 68.2394 117.466 66.2128 117.466C64.1862 117.466 62.7676 116.254 62.7676 114.637C62.7676 113.021 64.3889 111.809 66.4155 111.809C68.4421 111.809 69.8608 113.223 69.8608 114.637Z" fill="currentColor"/>
<path fill-rule="evenodd" clip-rule="evenodd" d="M80.1982 114.637C80.1982 116.254 78.5768 117.466 76.5502 117.466C74.5235 117.466 73.1035 116.254 73.1035 114.637C73.1035 113.021 74.7262 111.809 76.7529 111.809C78.5769 112.011 80.1982 113.223 80.1982 114.637Z" fill="currentColor"/>
<path fill-rule="evenodd" clip-rule="evenodd" d="M60.5389 106.758C60.5389 108.375 58.9176 109.587 56.8896 109.587C54.863 109.587 53.4443 108.375 53.4443 106.758C53.4443 105.142 55.0656 103.93 57.0923 103.93C59.1202 103.93 60.5389 105.142 60.5389 106.758Z" fill="currentColor"/>
<path fill-rule="evenodd" clip-rule="evenodd" d="M42.7026 82.7116C42.7026 84.328 40.8786 85.5404 39.0547 85.5404C37.2307 85.5404 35.6094 84.328 35.8121 82.7116C36.0148 81.095 37.6361 79.8828 39.46 79.8828C41.284 80.0848 42.7026 81.2972 42.7026 82.7116Z" fill="currentColor"/>
<path fill-rule="evenodd" clip-rule="evenodd" d="M51.2157 90.7936C51.2157 92.4101 49.5944 93.6224 47.5678 93.6224C45.7425 93.6224 44.1212 92.4101 44.3238 90.7936C44.3238 89.1772 45.9452 87.9648 47.9731 87.9648C49.7971 87.9648 51.2157 89.1772 51.2157 90.7936Z" fill="currentColor"/>
<path fill-rule="evenodd" clip-rule="evenodd" d="M70.0639 106.758C70.0639 108.375 68.4427 109.587 66.416 109.587C64.3894 109.587 62.9707 108.375 62.9707 106.758C62.9707 105.142 64.592 103.93 66.6186 103.93C68.6453 103.93 70.2666 105.142 70.0639 106.758Z" fill="currentColor"/>
<path fill-rule="evenodd" clip-rule="evenodd" d="M80.4019 106.758C80.4019 108.375 78.7806 109.587 76.7539 109.587C74.7273 109.587 73.3086 108.375 73.3086 106.758C73.3086 105.142 74.9299 103.93 76.9566 103.93C78.9832 103.93 80.4019 105.142 80.4019 106.758Z" fill="currentColor"/>
<path fill-rule="evenodd" clip-rule="evenodd" d="M38.2427 137.873C38.2427 139.49 36.4187 140.702 34.3921 140.702C32.3655 140.702 30.7442 139.49 30.9468 137.873C31.1495 136.257 32.7708 135.045 34.7974 135.045C36.8241 135.045 38.4454 136.257 38.2427 137.873Z" fill="currentColor"/>
<path fill-rule="evenodd" clip-rule="evenodd" d="M17.5705 137.672C17.3678 139.289 15.7452 140.501 13.7186 140.501C11.692 140.501 10.2734 139.289 10.2734 137.672C10.4761 136.056 12.0974 134.844 14.124 134.844C16.3546 135.046 17.7732 136.258 17.5705 137.672Z" fill="currentColor"/>
<path fill-rule="evenodd" clip-rule="evenodd" d="M27.9076 137.873C27.7049 139.49 26.0823 140.702 24.0556 140.702C22.029 140.702 20.6104 139.49 20.6104 137.873C20.813 136.257 22.4343 135.045 24.4609 135.045C26.4876 135.045 28.1102 136.257 27.9076 137.873Z" fill="currentColor"/>
<path fill-rule="evenodd" clip-rule="evenodd" d="M18.178 130.802C17.9753 132.419 16.3541 133.631 14.3261 133.631C12.2995 133.631 10.8809 132.419 10.8809 130.802C11.0835 129.186 12.7048 127.973 14.7314 127.973C16.962 128.176 18.3806 129.388 18.178 130.802Z" fill="currentColor"/>
<path fill-rule="evenodd" clip-rule="evenodd" d="M28.5146 131.004C28.3119 132.621 26.6906 133.833 24.664 133.833C22.6374 133.833 21.2188 132.621 21.2188 131.004C21.4214 129.388 23.0427 128.176 25.0693 128.176C27.0959 128.176 28.5146 129.388 28.5146 131.004Z" fill="currentColor"/>
<path fill-rule="evenodd" clip-rule="evenodd" d="M121.748 145.754C121.748 147.371 120.127 148.583 118.1 148.583C116.074 148.583 114.451 147.371 114.451 145.754C114.451 144.138 116.074 142.926 118.1 142.926C120.127 142.926 121.748 144.138 121.748 145.754Z" fill="currentColor"/>
<path fill-rule="evenodd" clip-rule="evenodd" d="M110.398 154.239C110.398 155.856 108.776 157.069 106.75 157.069C104.723 157.069 103.102 155.856 103.102 154.239C103.102 152.622 104.723 151.41 106.75 151.41C108.776 151.41 110.398 152.622 110.398 154.239Z" fill="currentColor"/>
<path fill-rule="evenodd" clip-rule="evenodd" d="M89.928 145.957C89.928 147.574 88.3067 148.786 86.2801 148.786C84.2522 148.786 82.6309 147.574 82.6309 145.957C82.6309 144.341 84.2522 143.129 86.2801 143.129C88.3067 143.129 89.928 144.341 89.928 145.957Z" fill="currentColor"/>
<path fill-rule="evenodd" clip-rule="evenodd" d="M142.218 137.672C142.218 139.289 140.597 140.501 138.773 140.501C136.746 140.501 135.125 139.289 135.125 137.672C135.125 136.056 136.746 134.844 138.57 134.844C140.597 135.046 142.218 136.258 142.218 137.672Z" fill="currentColor"/>
<path fill-rule="evenodd" clip-rule="evenodd" d="M142.626 145.754C142.626 147.371 141.003 148.583 138.976 148.583C136.949 148.583 135.328 147.371 135.328 145.754C135.328 144.138 136.949 142.926 138.976 142.926C140.8 142.926 142.626 144.138 142.626 145.754Z" fill="currentColor"/>
<path fill-rule="evenodd" clip-rule="evenodd" d="M152.759 137.672C152.759 139.289 151.34 140.501 149.314 140.501C147.287 140.501 145.666 139.289 145.666 137.672C145.666 136.056 147.085 134.844 149.111 134.844C151.138 135.046 152.759 136.258 152.759 137.672Z" fill="currentColor"/>
<path fill-rule="evenodd" clip-rule="evenodd" d="M163.096 137.873C163.096 139.49 161.677 140.702 159.65 140.702C157.624 140.702 156.002 139.49 155.8 137.873C155.8 136.257 157.218 135.045 159.245 135.045C161.272 135.045 163.096 136.257 163.096 137.873Z" fill="currentColor"/>
<path fill-rule="evenodd" clip-rule="evenodd" d="M153.569 153.836C153.569 155.453 151.948 156.666 149.921 156.666C147.894 156.666 146.273 155.453 146.07 153.836C146.07 152.22 147.692 151.008 149.718 151.008C151.745 151.008 153.367 152.22 153.569 153.836Z" fill="currentColor"/>
<path fill-rule="evenodd" clip-rule="evenodd" d="M164.514 161.717C164.514 163.333 163.095 164.546 160.866 164.546C158.84 164.546 157.016 163.333 157.016 161.717C157.016 160.101 158.637 158.889 160.663 158.889C162.69 158.889 164.311 160.303 164.514 161.717Z" fill="currentColor"/>
<path fill-rule="evenodd" clip-rule="evenodd" d="M173.433 137.873C173.433 139.49 172.013 140.702 169.986 140.702C167.96 140.702 166.338 139.49 166.136 137.873C166.136 136.257 167.554 135.045 169.581 135.045C171.607 135.045 173.433 136.257 173.433 137.873Z" fill="currentColor"/>
<path fill-rule="evenodd" clip-rule="evenodd" d="M121.343 122.114C121.343 123.73 119.722 124.942 117.898 124.942C115.871 124.942 114.25 123.73 114.25 122.114C114.25 120.498 115.871 119.285 117.695 119.285C119.722 119.285 121.343 120.498 121.343 122.114Z" fill="currentColor"/>
<path fill-rule="evenodd" clip-rule="evenodd" d="M121.546 130.196C121.546 131.812 119.925 133.024 117.898 133.024C115.871 133.024 114.25 131.812 114.25 130.196C114.25 128.579 115.871 127.367 117.898 127.367C119.925 127.367 121.546 128.579 121.546 130.196Z" fill="currentColor"/>
<path fill-rule="evenodd" clip-rule="evenodd" d="M131.478 122.114C131.478 123.73 129.856 124.942 128.031 124.942C126.004 124.942 124.383 123.73 124.383 122.114C124.383 120.498 126.004 119.285 127.828 119.285C129.856 119.285 131.478 120.7 131.478 122.114Z" fill="currentColor"/>
<path fill-rule="evenodd" clip-rule="evenodd" d="M131.68 130.196C131.68 131.812 130.059 133.024 128.234 133.024C126.207 133.024 124.586 131.812 124.586 130.196C124.586 128.579 126.207 127.367 128.031 127.367C130.059 127.367 131.68 128.579 131.68 130.196Z" fill="currentColor"/>
<path fill-rule="evenodd" clip-rule="evenodd" d="M141.814 122.114C141.814 123.73 140.395 124.942 138.369 124.942C136.342 124.942 134.721 123.73 134.721 122.114C134.721 120.498 136.342 119.285 138.166 119.285C139.99 119.285 141.814 120.7 141.814 122.114Z" fill="currentColor"/>
<path fill-rule="evenodd" clip-rule="evenodd" d="M142.016 130.196C142.016 131.812 140.395 133.024 138.571 133.024C136.544 133.024 134.923 131.812 134.923 130.196C134.923 128.579 136.544 127.367 138.368 127.367C140.395 127.367 142.016 128.579 142.016 130.196Z" fill="currentColor"/>
<path fill-rule="evenodd" clip-rule="evenodd" d="M152.15 122.114C152.15 123.73 150.731 124.942 148.705 124.942C146.678 124.942 145.057 123.73 145.057 122.114C145.057 120.498 146.475 119.285 148.502 119.285C150.326 119.487 151.947 120.7 152.15 122.114Z" fill="currentColor"/>
<path fill-rule="evenodd" clip-rule="evenodd" d="M152.556 130.196C152.556 131.812 151.137 133.024 149.111 133.024C147.084 133.024 145.463 131.812 145.463 130.196C145.463 128.579 146.882 127.367 148.908 127.367C150.732 127.367 152.353 128.579 152.556 130.196Z" fill="currentColor"/>
<path fill-rule="evenodd" clip-rule="evenodd" d="M162.285 122.114C162.285 123.73 160.866 124.942 158.84 124.942C156.812 124.942 155.19 123.73 155.19 122.114C155.19 120.498 156.609 119.285 158.637 119.285C160.461 119.487 162.082 120.7 162.285 122.114Z" fill="currentColor"/>
<path fill-rule="evenodd" clip-rule="evenodd" d="M162.69 130.196C162.69 131.812 161.271 133.024 159.245 133.024C157.218 133.024 155.596 131.812 155.596 130.196C155.596 128.579 157.014 127.367 159.042 127.367C160.866 127.367 162.69 128.579 162.69 130.196Z" fill="currentColor"/>
<path fill-rule="evenodd" clip-rule="evenodd" d="M172.418 122.114C172.418 123.73 171 124.942 168.973 124.942C166.947 124.942 165.325 123.73 165.325 122.114C165.325 120.498 166.744 119.285 168.77 119.285C170.594 119.487 172.418 120.7 172.418 122.114Z" fill="currentColor"/>
<path fill-rule="evenodd" clip-rule="evenodd" d="M173.028 130.196C173.028 131.812 171.609 133.024 169.581 133.024C167.554 133.024 165.933 131.812 165.73 130.196C165.73 128.579 167.149 127.367 169.176 127.367C171.204 127.367 172.825 128.579 173.028 130.196Z" fill="currentColor"/>
<path fill-rule="evenodd" clip-rule="evenodd" d="M121.14 105.747C121.14 107.363 119.519 108.576 117.695 108.576C115.668 108.576 114.25 107.363 114.047 105.747C114.047 104.13 115.668 102.918 117.492 102.918C119.519 103.12 121.14 104.332 121.14 105.747Z" fill="currentColor"/>
<path fill-rule="evenodd" clip-rule="evenodd" d="M121.343 113.829C121.343 115.445 119.722 116.658 117.898 116.658C115.871 116.658 114.25 115.445 114.25 113.829C114.25 112.212 115.871 111 117.695 111C119.722 111 121.141 112.212 121.343 113.829Z" fill="currentColor"/>
<path fill-rule="evenodd" clip-rule="evenodd" d="M131.073 105.747C131.073 107.363 129.654 108.576 127.627 108.576C125.6 108.576 123.979 107.363 123.979 105.747C123.979 104.13 125.397 102.918 127.424 102.918C129.452 103.12 131.073 104.332 131.073 105.747Z" fill="currentColor"/>
<path fill-rule="evenodd" clip-rule="evenodd" d="M131.275 113.829C131.275 115.445 129.654 116.658 127.83 116.658C125.802 116.658 124.181 115.445 124.181 113.829C124.181 112.212 125.802 111 127.627 111C129.654 111 131.275 112.212 131.275 113.829Z" fill="currentColor"/>
<path fill-rule="evenodd" clip-rule="evenodd" d="M141.207 105.747C141.207 107.363 139.788 108.576 137.76 108.576C135.734 108.576 134.112 107.363 134.112 105.747C134.112 104.13 135.531 102.918 137.557 102.918C139.584 103.12 141.207 104.332 141.207 105.747Z" fill="currentColor"/>
<path fill-rule="evenodd" clip-rule="evenodd" d="M141.408 113.829C141.408 115.445 139.989 116.658 137.962 116.658C135.936 116.658 134.314 115.445 134.314 113.829C134.314 112.212 135.733 111 137.76 111C139.786 111 141.408 112.212 141.408 113.829Z" fill="currentColor"/>
<path fill-rule="evenodd" clip-rule="evenodd" d="M151.339 105.747C151.339 107.363 149.921 108.576 147.894 108.576C145.867 108.576 144.246 107.363 144.246 105.747C144.246 104.13 145.665 102.918 147.691 102.918C149.718 103.12 151.339 104.332 151.339 105.747Z" fill="currentColor"/>
<path fill-rule="evenodd" clip-rule="evenodd" d="M151.746 113.829C151.746 115.445 150.327 116.658 148.3 116.658C146.274 116.658 144.652 115.445 144.652 113.829C144.652 112.212 146.071 111 148.098 111C149.922 111 151.746 112.212 151.746 113.829Z" fill="currentColor"/>
<path fill-rule="evenodd" clip-rule="evenodd" d="M161.273 105.95C161.273 107.566 159.854 108.779 157.827 108.779C155.799 108.779 154.178 107.566 154.178 105.95C154.178 104.333 155.596 103.121 157.623 103.121C159.651 103.121 161.273 104.333 161.273 105.95Z" fill="currentColor"/>
<path fill-rule="evenodd" clip-rule="evenodd" d="M161.88 113.829C161.88 115.445 160.461 116.658 158.433 116.658C156.406 116.658 154.785 115.445 154.785 113.829C154.785 112.212 156.204 111 158.232 111C160.056 111 161.677 112.414 161.88 113.829Z" fill="currentColor"/>
<path fill-rule="evenodd" clip-rule="evenodd" d="M171.407 105.95C171.407 107.566 169.987 108.779 167.96 108.779C165.934 108.779 164.312 107.566 164.312 105.95C164.312 104.333 165.731 103.121 167.758 103.121C169.582 103.121 171.407 104.333 171.407 105.95Z" fill="currentColor"/>
<path fill-rule="evenodd" clip-rule="evenodd" d="M172.013 113.829C172.013 115.445 170.595 116.658 168.568 116.658C166.541 116.658 164.92 115.445 164.92 113.829C164.92 112.212 166.339 111 168.365 111C170.189 111 171.811 112.414 172.013 113.829Z" fill="currentColor"/>
<path fill-rule="evenodd" clip-rule="evenodd" d="M181.338 105.95C181.54 107.566 179.919 108.779 178.095 108.779C176.068 108.779 174.447 107.566 174.447 105.95C174.244 104.333 175.866 103.121 177.69 103.121C179.716 103.121 181.338 104.333 181.338 105.95Z" fill="currentColor"/>
<path fill-rule="evenodd" clip-rule="evenodd" d="M181.944 113.829C182.147 115.445 180.526 116.658 178.499 116.658C176.472 116.658 174.851 115.445 174.851 113.829C174.648 112.212 176.27 111 178.296 111C180.12 111.202 181.944 112.414 181.944 113.829Z" fill="currentColor"/>
<path fill-rule="evenodd" clip-rule="evenodd" d="M180.728 98.2702C180.931 99.8866 179.309 101.099 177.485 101.099C175.459 101.099 173.837 99.8866 173.837 98.2702C173.635 96.6538 175.256 95.4414 177.08 95.4414C179.107 95.6434 180.728 96.8558 180.728 98.2702Z" fill="currentColor"/>
<path fill-rule="evenodd" clip-rule="evenodd" d="M190.863 98.4733C191.066 100.09 189.444 101.302 187.62 101.302C185.594 101.302 183.971 100.09 183.971 98.4733C183.769 96.8569 185.391 95.6445 187.215 95.6445C189.039 95.6445 190.66 96.8569 190.863 98.4733Z" fill="currentColor"/>
<path fill-rule="evenodd" clip-rule="evenodd" d="M101.075 122.114C101.075 123.73 99.4541 124.942 97.4262 124.942C95.3996 124.942 93.7783 123.73 93.7783 122.114C93.7783 120.498 95.3996 119.285 97.4262 119.285C99.6568 119.285 101.075 120.498 101.075 122.114Z" fill="currentColor"/>
<path fill-rule="evenodd" clip-rule="evenodd" d="M101.075 129.994C101.075 131.61 99.4541 132.822 97.4262 132.822C95.3996 132.822 93.7783 131.61 93.7783 129.994C93.7783 128.378 95.3996 127.164 97.4262 127.164C99.4541 127.367 101.075 128.58 101.075 129.994Z" fill="currentColor"/>
<path fill-rule="evenodd" clip-rule="evenodd" d="M111.208 122.114C111.208 123.73 109.587 124.942 107.56 124.942C105.533 124.942 103.912 123.73 103.912 122.114C103.912 120.498 105.533 119.285 107.56 119.285C109.789 119.285 111.208 120.498 111.208 122.114Z" fill="currentColor"/>
<path fill-rule="evenodd" clip-rule="evenodd" d="M111.411 138.278C111.411 139.894 109.79 141.106 107.763 141.106C105.736 141.106 104.115 139.894 104.115 138.278C104.115 136.661 105.736 135.449 107.763 135.449C109.79 135.449 111.411 136.863 111.411 138.278Z" fill="currentColor"/>
<path fill-rule="evenodd" clip-rule="evenodd" d="M101.279 105.747C101.279 107.363 99.6559 108.576 97.8319 108.576C95.8053 108.576 94.3867 107.363 94.3867 105.747C94.3867 104.13 96.008 102.918 97.8319 102.918C99.6559 102.918 101.279 104.332 101.279 105.747Z" fill="currentColor"/>
<path fill-rule="evenodd" clip-rule="evenodd" d="M101.278 113.829C101.278 115.445 99.6554 116.658 97.6288 116.658C95.6022 116.658 94.1836 115.445 94.1836 113.829C94.1836 112.212 95.8048 111 97.8314 111C99.6554 111 101.278 112.212 101.278 113.829Z" fill="currentColor"/>
<path fill-rule="evenodd" clip-rule="evenodd" d="M111.209 105.747C111.209 107.363 109.588 108.576 107.764 108.576C105.737 108.576 104.318 107.363 104.318 105.747C104.318 104.13 105.94 102.918 107.764 102.918C109.588 103.12 111.209 104.332 111.209 105.747Z" fill="currentColor"/>
<path fill-rule="evenodd" clip-rule="evenodd" d="M111.208 113.829C111.208 115.445 109.587 116.658 107.763 116.658C105.737 116.658 104.115 115.445 104.115 113.829C104.115 112.212 105.737 111 107.56 111C109.587 111 111.208 112.212 111.208 113.829Z" fill="currentColor"/>
<path fill-rule="evenodd" clip-rule="evenodd" d="M90.7383 122.114C90.7383 123.73 89.117 124.942 87.0904 124.942C85.0637 124.942 83.4424 123.73 83.6451 122.114C83.6451 120.498 85.2664 119.285 87.293 119.285C89.117 119.285 90.7383 120.498 90.7383 122.114Z" fill="currentColor"/>
<path fill-rule="evenodd" clip-rule="evenodd" d="M90.9403 105.747C90.9403 107.363 89.319 108.576 87.2923 108.576C85.2643 108.576 83.8457 107.363 83.8457 105.747C83.8457 104.13 85.467 102.918 87.495 102.918C89.319 102.918 90.9403 104.332 90.9403 105.747Z" fill="currentColor"/>
<path fill-rule="evenodd" clip-rule="evenodd" d="M90.7391 113.829C90.7391 115.445 89.1178 116.658 87.0911 116.658C85.0632 116.658 83.6445 115.445 83.6445 113.829C83.6445 112.212 85.2658 111 87.2938 111C89.3204 111 90.7391 112.212 90.7391 113.829Z" fill="currentColor"/>
<path fill-rule="evenodd" clip-rule="evenodd" d="M180.324 90.3913C180.526 92.0077 178.905 93.2201 177.081 93.2201C175.257 93.2201 173.433 92.0077 173.433 90.3913C173.231 88.7749 174.852 87.5625 176.676 87.5625C178.5 87.5625 180.121 88.7749 180.324 90.3913Z" fill="currentColor"/>
<path fill-rule="evenodd" clip-rule="evenodd" d="M190.052 90.3913C190.255 92.0077 188.634 93.2201 186.809 93.2201C184.985 93.2201 183.161 92.0077 183.161 90.3913C182.958 88.7749 184.579 87.5625 186.403 87.5625C188.431 87.5625 190.052 88.7749 190.052 90.3913Z" fill="currentColor"/>
<path fill-rule="evenodd" clip-rule="evenodd" d="M179.715 82.7116C179.918 84.328 178.297 85.5404 176.473 85.5404C174.649 85.5404 173.027 84.328 172.825 82.7116C172.622 81.095 174.243 79.8828 176.067 79.8828C177.891 79.8828 179.513 81.2972 179.715 82.7116Z" fill="currentColor"/>
<path fill-rule="evenodd" clip-rule="evenodd" d="M189.444 82.7116C189.647 84.328 188.228 85.5404 186.202 85.5404C184.376 85.5404 182.755 84.328 182.552 82.7116C182.35 81.095 183.971 79.8828 185.796 79.8828C187.823 79.8828 189.444 81.2972 189.444 82.7116Z" fill="currentColor"/>
<path fill-rule="evenodd" clip-rule="evenodd" d="M179.107 75.237C179.31 76.8534 177.689 78.0658 175.865 78.0658C174.041 78.0658 172.419 76.8534 172.215 75.237C172.013 73.6206 173.635 72.4082 175.459 72.4082C177.283 72.4082 178.905 73.6206 179.107 75.237Z" fill="currentColor"/>
<path fill-rule="evenodd" clip-rule="evenodd" d="M120.938 98.2702C120.938 99.8866 119.316 101.099 117.492 101.099C115.466 101.099 114.047 99.8866 114.047 98.2702C114.047 96.6538 115.668 95.4414 117.492 95.4414C119.519 95.4414 120.938 96.8558 120.938 98.2702Z" fill="currentColor"/>
<path fill-rule="evenodd" clip-rule="evenodd" d="M130.87 98.2702C130.87 99.8866 129.451 101.099 127.423 101.099C125.397 101.099 123.978 99.8866 123.775 98.2702C123.775 96.6538 125.194 95.4414 127.221 95.4414C129.247 95.4414 130.87 96.8558 130.87 98.2702Z" fill="currentColor"/>
<path fill-rule="evenodd" clip-rule="evenodd" d="M141.003 98.2702C141.003 99.8866 139.584 101.099 137.558 101.099C135.531 101.099 134.113 99.8866 133.91 98.2702C133.91 96.6538 135.329 95.4414 137.355 95.4414C139.382 95.4414 140.8 96.8558 141.003 98.2702Z" fill="currentColor"/>
<path fill-rule="evenodd" clip-rule="evenodd" d="M150.935 98.2702C150.935 99.8866 149.516 101.099 147.49 101.099C145.463 101.099 143.842 99.8866 143.842 98.2702C143.842 96.6538 145.26 95.4414 147.287 95.4414C149.314 95.6434 150.935 96.8558 150.935 98.2702Z" fill="currentColor"/>
<path fill-rule="evenodd" clip-rule="evenodd" d="M160.866 98.2702C160.866 99.8866 159.447 101.099 157.419 101.099C155.393 101.099 153.771 99.8866 153.771 98.2702C153.771 96.6538 155.19 95.4414 157.217 95.4414C159.245 95.6434 160.866 96.8558 160.866 98.2702Z" fill="currentColor"/>
<path fill-rule="evenodd" clip-rule="evenodd" d="M171.001 98.2702C171.001 99.8866 169.581 101.099 167.757 101.099C165.731 101.099 164.109 99.8866 164.109 98.2702C164.109 96.6538 165.528 95.4414 167.352 95.4414C169.176 95.6434 170.799 96.8558 171.001 98.2702Z" fill="currentColor"/>
<path fill-rule="evenodd" clip-rule="evenodd" d="M120.938 90.3913C120.938 92.0077 119.519 93.2201 117.492 93.2201C115.668 93.2201 114.047 92.0077 114.047 90.3913C114.047 88.7749 115.668 87.5625 117.492 87.5625C119.316 87.5625 120.938 88.7749 120.938 90.3913Z" fill="currentColor"/>
<path fill-rule="evenodd" clip-rule="evenodd" d="M130.667 90.3913C130.667 92.0077 129.247 93.2201 127.221 93.2201C125.397 93.2201 123.775 92.0077 123.775 90.3913C123.775 88.7749 125.194 87.5625 127.221 87.5625C129.045 87.5625 130.667 88.7749 130.667 90.3913Z" fill="currentColor"/>
<path fill-rule="evenodd" clip-rule="evenodd" d="M101.279 98.2702C101.279 99.8866 99.6559 101.099 97.8319 101.099C95.8053 101.099 94.3867 99.8866 94.3867 98.2702C94.3867 96.6538 96.008 95.4414 97.8319 95.4414C99.6559 95.4414 101.279 96.6538 101.279 98.2702Z" fill="currentColor"/>
<path fill-rule="evenodd" clip-rule="evenodd" d="M111.209 98.2702C111.209 99.8866 109.588 101.099 107.764 101.099C105.737 101.099 104.318 99.8866 104.318 98.2702C104.318 96.6538 105.94 95.4414 107.764 95.4414C109.588 95.4414 111.209 96.6538 111.209 98.2702Z" fill="currentColor"/>
<path fill-rule="evenodd" clip-rule="evenodd" d="M101.279 90.1881C101.279 91.8047 99.6559 93.0169 97.8319 93.0169C96.008 93.0169 94.3867 91.8047 94.3867 90.1881C94.3867 88.5717 96.008 87.3594 97.8319 87.3594C99.8586 87.5615 101.279 88.7738 101.279 90.1881Z" fill="currentColor"/>
<path fill-rule="evenodd" clip-rule="evenodd" d="M91.1437 98.2702C91.1437 99.8866 89.5224 101.099 87.6985 101.099C85.6706 101.099 84.252 99.8866 84.252 98.2702C84.252 96.6538 85.8732 95.4414 87.6985 95.4414C89.5224 95.4414 91.1437 96.6538 91.1437 98.2702Z" fill="currentColor"/>
<path fill-rule="evenodd" clip-rule="evenodd" d="M81.2123 98.2702C81.2123 99.8866 79.591 101.099 77.5644 101.099C75.5378 101.099 74.1191 99.8866 74.1191 98.2702C74.1191 96.6538 75.7404 95.4414 77.767 95.4414C79.591 95.4414 81.2123 96.6538 81.2123 98.2702Z" fill="currentColor"/>
<path fill-rule="evenodd" clip-rule="evenodd" d="M70.8743 98.2702C70.8743 99.8866 69.2531 101.099 67.2265 101.099C65.1999 101.099 63.7812 99.8866 63.7812 98.2702C63.7812 96.6538 65.4026 95.4414 67.4292 95.4414C69.4558 95.4414 70.8743 96.6538 70.8743 98.2702Z" fill="currentColor"/>
<path fill-rule="evenodd" clip-rule="evenodd" d="M91.1437 90.1881C91.1437 91.8047 89.5224 93.0169 87.6985 93.0169C85.8732 93.0169 84.252 91.8047 84.252 90.1881C84.252 88.5717 85.8732 87.3594 87.6985 87.3594C89.7251 87.5615 91.1437 88.7738 91.1437 90.1881Z" fill="currentColor"/>
<path fill-rule="evenodd" clip-rule="evenodd" d="M111.209 90.3913C111.209 92.0077 109.588 93.2201 107.764 93.2201C105.94 93.2201 104.318 92.0077 104.318 90.3913C104.318 88.7749 105.94 87.5625 107.764 87.5625C109.588 87.5625 111.209 88.7749 111.209 90.3913Z" fill="currentColor"/>
<path fill-rule="evenodd" clip-rule="evenodd" d="M140.597 90.3913C140.597 92.0077 139.179 93.2201 137.152 93.2201C135.328 93.2201 133.707 92.0077 133.504 90.3913C133.504 88.7749 134.923 87.5625 136.949 87.5625C138.976 87.5625 140.597 88.7749 140.597 90.3913Z" fill="currentColor"/>
<path fill-rule="evenodd" clip-rule="evenodd" d="M150.732 90.3913C150.732 92.0077 149.313 93.2201 147.287 93.2201C145.463 93.2201 143.841 92.0077 143.639 90.3913C143.639 88.7749 145.057 87.5625 147.084 87.5625C148.908 87.5625 150.529 88.7749 150.732 90.3913Z" fill="currentColor"/>
<path fill-rule="evenodd" clip-rule="evenodd" d="M160.461 90.3913C160.461 92.0077 159.043 93.2201 157.219 93.2201C155.393 93.2201 153.772 92.0077 153.569 90.3913C153.569 88.7749 154.988 87.5625 156.813 87.5625C158.84 87.5625 160.461 88.7749 160.461 90.3913Z" fill="currentColor"/>
<path fill-rule="evenodd" clip-rule="evenodd" d="M170.393 90.3913C170.393 92.0077 168.973 93.2201 167.149 93.2201C165.325 93.2201 163.501 92.0077 163.501 90.3913C163.501 88.7749 164.92 87.5625 166.743 87.5625C168.77 87.5625 170.393 88.7749 170.393 90.3913Z" fill="currentColor"/>
<path fill-rule="evenodd" clip-rule="evenodd" d="M91.347 82.7116C91.347 84.328 89.7256 85.5404 87.9017 85.5404C86.0764 85.5404 84.4551 84.328 84.4551 82.7116C84.4551 81.095 86.0764 79.8828 87.9017 79.8828C89.9283 79.8828 91.5496 81.095 91.347 82.7116Z" fill="currentColor"/>
<path fill-rule="evenodd" clip-rule="evenodd" d="M140.395 82.7116C140.395 84.328 138.976 85.5404 136.949 85.5404C135.125 85.5404 133.504 84.328 133.504 82.7116C133.504 81.095 134.923 79.8828 136.949 79.8828C138.773 79.8828 140.395 81.095 140.395 82.7116Z" fill="currentColor"/>
<path fill-rule="evenodd" clip-rule="evenodd" d="M150.326 82.7116C150.326 84.328 148.907 85.5404 147.084 85.5404C145.26 85.5404 143.638 84.328 143.436 82.7116C143.436 81.095 144.854 79.8828 146.678 79.8828C148.705 79.8828 150.326 81.095 150.326 82.7116Z" fill="currentColor"/>
<path fill-rule="evenodd" clip-rule="evenodd" d="M160.056 82.7116C160.056 84.328 158.637 85.5404 156.812 85.5404C154.988 85.5404 153.367 84.328 153.164 82.7116C153.164 81.095 154.583 79.8828 156.407 79.8828C158.435 79.8828 160.056 81.095 160.056 82.7116Z" fill="currentColor"/>
<path fill-rule="evenodd" clip-rule="evenodd" d="M169.986 82.7116C169.986 84.328 168.568 85.5404 166.744 85.5404C164.92 85.5404 163.298 84.328 163.096 82.7116C163.096 81.095 164.514 79.8828 166.338 79.8828C168.162 79.8828 169.784 81.095 169.986 82.7116Z" fill="currentColor"/>
<path fill-rule="evenodd" clip-rule="evenodd" d="M149.92 75.237C149.92 76.8534 148.502 78.0658 146.678 78.0658C144.854 78.0658 143.232 76.8534 143.232 75.237C143.232 73.6206 144.651 72.4082 146.475 72.4082C148.299 72.4082 149.92 73.6206 149.92 75.237Z" fill="currentColor"/>
<path fill-rule="evenodd" clip-rule="evenodd" d="M159.651 75.237C159.651 76.8534 158.232 78.0658 156.407 78.0658C154.583 78.0658 152.961 76.8534 152.759 75.237C152.759 73.6206 154.177 72.4082 156.001 72.4082C158.029 72.4082 159.651 73.6206 159.651 75.237Z" fill="currentColor"/>
<path fill-rule="evenodd" clip-rule="evenodd" d="M169.38 75.237C169.38 76.8534 167.96 78.0658 166.136 78.0658C164.312 78.0658 162.691 76.8534 162.488 75.237C162.488 73.6206 163.907 72.4082 165.731 72.4082C167.758 72.4082 169.38 73.6206 169.38 75.237Z" fill="currentColor"/>
<path fill-rule="evenodd" clip-rule="evenodd" d="M101.279 82.7116C101.279 84.328 99.6559 85.5404 97.8319 85.5404C96.008 85.5404 94.3867 84.328 94.3867 82.7116C94.3867 81.095 96.008 79.8828 97.8319 79.8828C99.8586 79.8828 101.279 81.095 101.279 82.7116Z" fill="currentColor"/>
<path fill-rule="evenodd" clip-rule="evenodd" d="M111.209 82.7116C111.209 84.328 109.588 85.5404 107.764 85.5404C105.94 85.5404 104.318 84.328 104.318 82.7116C104.318 81.095 105.94 79.8828 107.764 79.8828C109.588 79.8828 111.006 81.095 111.209 82.7116Z" fill="currentColor"/>
<path fill-rule="evenodd" clip-rule="evenodd" d="M111.006 75.237C111.006 76.8534 109.384 78.0658 107.56 78.0658C105.737 78.0658 104.115 76.8534 104.115 75.237C104.115 73.6206 105.737 72.4082 107.56 72.4082C109.587 72.4082 111.006 73.6206 111.006 75.237Z" fill="currentColor"/>
<path fill-rule="evenodd" clip-rule="evenodd" d="M168.973 67.155C168.973 68.7714 167.554 69.9837 165.73 69.9837C163.906 69.9837 162.285 68.7714 162.082 67.155C162.082 65.5385 163.501 64.3262 165.325 64.3262C167.149 64.5282 168.77 65.7406 168.973 67.155Z" fill="currentColor"/>
<path fill-rule="evenodd" clip-rule="evenodd" d="M120.532 67.155C120.532 68.7714 119.114 69.9837 117.087 69.9837C115.262 69.9837 113.641 68.7714 113.641 67.155C113.641 65.5385 115.059 64.3262 117.087 64.3262C119.114 64.3262 120.532 65.7406 120.532 67.155Z" fill="currentColor"/>
<path fill-rule="evenodd" clip-rule="evenodd" d="M120.533 59.2741C120.533 60.8905 119.114 62.1029 117.29 62.1029C115.466 62.1029 113.844 60.8905 113.844 59.2741C113.844 57.6577 115.264 56.4453 117.088 56.4453C118.912 56.4453 120.33 57.8597 120.533 59.2741Z" fill="currentColor"/>
<path fill-rule="evenodd" clip-rule="evenodd" d="M101.481 75.0358C101.481 76.6522 99.8594 77.8646 98.0341 77.8646C96.2102 77.8646 94.5889 76.6522 94.5889 75.0358C94.5889 73.4194 96.2102 72.207 98.0341 72.207C99.8594 72.4091 101.481 73.6214 101.481 75.0358Z" fill="currentColor"/>
<path fill-rule="evenodd" clip-rule="evenodd" d="M101.481 67.155C101.481 68.7714 99.8594 69.9837 98.0341 69.9837C96.2102 69.9837 94.5889 68.7714 94.5889 67.155C94.5889 65.5385 96.2102 64.3262 98.0341 64.3262C99.8594 64.3262 101.481 65.5385 101.481 67.155Z" fill="currentColor"/>
<path fill-rule="evenodd" clip-rule="evenodd" d="M91.7517 59.4772C91.7517 61.0937 90.1304 62.306 88.3064 62.306C86.4825 62.306 85.0625 61.0937 85.0625 59.4772C85.0625 57.8607 86.6851 56.6484 88.509 56.6484C90.333 56.8505 91.7517 58.0628 91.7517 59.4772Z" fill="currentColor"/>
<path fill-rule="evenodd" clip-rule="evenodd" d="M91.549 67.155C91.549 68.7714 89.9277 69.9837 88.1038 69.9837C86.2785 69.9837 84.6573 68.7714 84.86 67.155C84.86 65.5385 86.4812 64.3262 88.3065 64.3262C90.1304 64.3262 91.549 65.5385 91.549 67.155Z" fill="currentColor"/>
<path fill-rule="evenodd" clip-rule="evenodd" d="M82.022 59.4772C82.022 61.0937 80.4007 62.306 78.5767 62.306C76.7527 62.306 75.334 61.0937 75.334 59.4772C75.334 57.8607 76.9553 56.6484 78.7794 56.6484C80.6034 56.8505 82.022 58.0628 82.022 59.4772Z" fill="currentColor"/>
<path fill-rule="evenodd" clip-rule="evenodd" d="M81.617 67.155C81.617 68.7714 79.9958 69.9837 78.1719 69.9837C76.348 69.9837 74.7266 68.7714 74.9293 67.155C74.9293 65.5385 76.5506 64.3262 78.3745 64.3262C80.1984 64.3262 81.8197 65.5385 81.617 67.155Z" fill="currentColor"/>
<path fill-rule="evenodd" clip-rule="evenodd" d="M111.006 67.155C111.006 68.7714 109.587 69.9837 107.56 69.9837C105.737 69.9837 104.115 68.7714 104.115 67.155C104.115 65.5385 105.534 64.3262 107.56 64.3262C109.587 64.3262 111.006 65.5385 111.006 67.155Z" fill="currentColor"/>
<path fill-rule="evenodd" clip-rule="evenodd" d="M101.481 59.071C101.481 60.6874 100.061 61.8998 98.0341 61.8998C96.2102 61.8998 94.5889 60.6874 94.7916 59.071C94.7916 57.4545 96.4128 56.2422 98.2368 56.2422C100.061 56.2422 101.481 57.4545 101.481 59.071Z" fill="currentColor"/>
<path fill-rule="evenodd" clip-rule="evenodd" d="M111.006 59.071C111.006 60.6874 109.587 61.8998 107.56 61.8998C105.737 61.8998 104.115 60.6874 104.115 59.071C104.115 57.4545 105.534 56.2422 107.56 56.2422C109.384 56.2422 111.006 57.4545 111.006 59.071Z" fill="currentColor"/>
<path fill-rule="evenodd" clip-rule="evenodd" d="M101.48 51.1921C101.48 52.8085 100.061 54.0208 98.0348 54.0208C96.2096 54.0208 94.791 52.8085 94.791 51.1921C94.791 49.5756 96.2096 48.3633 98.2375 48.3633C100.061 48.3633 101.48 49.5756 101.48 51.1921Z" fill="currentColor"/>
<path fill-rule="evenodd" clip-rule="evenodd" d="M111.007 51.1921C111.007 52.8085 109.588 54.0208 107.764 54.0208C105.94 54.0208 104.521 52.8085 104.521 51.1921C104.521 49.5756 105.94 48.3633 107.764 48.3633C109.385 48.3633 111.007 49.5756 111.007 51.1921Z" fill="currentColor"/>
<path fill-rule="evenodd" clip-rule="evenodd" d="M111.007 43.3132C111.007 44.9296 109.588 46.1419 107.764 46.1419C105.94 46.1419 104.521 44.9296 104.521 43.3132C104.521 41.6967 105.94 40.4844 107.764 40.4844C109.385 40.4844 111.007 41.6967 111.007 43.3132Z" fill="currentColor"/>
<path fill-rule="evenodd" clip-rule="evenodd" d="M139.787 67.155C139.787 68.7714 138.369 69.9837 136.545 69.9837C134.721 69.9837 133.1 68.7714 133.1 67.155C133.1 65.5385 134.518 64.3262 136.342 64.3262C138.166 64.3262 139.787 65.7406 139.787 67.155Z" fill="currentColor"/>
<path fill-rule="evenodd" clip-rule="evenodd" d="M149.718 67.155C149.718 68.7714 148.3 69.9837 146.476 69.9837C144.651 69.9837 143.029 68.7714 143.029 67.155C143.029 65.5385 144.448 64.3262 146.273 64.3262C148.097 64.5282 149.516 65.7406 149.718 67.155Z" fill="currentColor"/>
<path fill-rule="evenodd" clip-rule="evenodd" d="M159.246 67.155C159.246 68.7714 157.827 69.9837 156.002 69.9837C154.178 69.9837 152.557 68.7714 152.557 67.155C152.557 65.5385 153.975 64.3262 155.799 64.3262C157.625 64.5282 159.246 65.7406 159.246 67.155Z" fill="currentColor"/>
<path fill-rule="evenodd" clip-rule="evenodd" d="M149.313 59.071C149.313 60.6874 147.895 61.8998 146.071 61.8998C144.247 61.8998 142.624 60.6874 142.624 59.071C142.624 57.4545 144.044 56.2422 145.868 56.2422C147.692 56.2422 149.313 57.6566 149.313 59.071Z" fill="currentColor"/>
<path fill-rule="evenodd" clip-rule="evenodd" d="M158.838 59.071C158.838 60.6874 157.419 61.8998 155.596 61.8998C153.772 61.8998 152.15 60.6874 152.15 59.071C152.15 57.4545 153.569 56.2422 155.393 56.2422C157.217 56.2422 158.838 57.6566 158.838 59.071Z" fill="currentColor"/>
<path fill-rule="evenodd" clip-rule="evenodd" d="M148.909 51.1921C148.909 52.8085 147.49 54.0208 145.666 54.0208C143.842 54.0208 142.221 52.8085 142.221 51.1921C142.221 49.5756 143.639 48.3633 145.463 48.3633C147.287 48.3633 148.909 49.5756 148.909 51.1921Z" fill="currentColor"/>
<path fill-rule="evenodd" clip-rule="evenodd" d="M158.434 51.1921C158.434 52.8085 157.014 54.0208 155.19 54.0208C153.366 54.0208 151.745 52.8085 151.745 51.1921C151.745 49.5756 153.164 48.3633 154.988 48.3633C156.812 48.3633 158.434 49.5756 158.434 51.1921Z" fill="currentColor"/>
<path fill-rule="evenodd" clip-rule="evenodd" d="M139.787 59.071C139.787 60.6874 138.369 61.8998 136.545 61.8998C134.721 61.8998 133.1 60.6874 133.1 59.071C133.1 57.4545 134.518 56.2422 136.342 56.2422C138.166 56.2422 139.787 57.6566 139.787 59.071Z" fill="currentColor"/>
<path fill-rule="evenodd" clip-rule="evenodd" d="M139.584 51.1921C139.584 52.8085 138.166 54.0208 136.342 54.0208C134.518 54.0208 132.896 52.8085 132.896 51.1921C132.896 49.5756 134.315 48.3633 136.139 48.3633C137.963 48.3633 139.382 49.5756 139.584 51.1921Z" fill="currentColor"/>
<path fill-rule="evenodd" clip-rule="evenodd" d="M167.352 43.3132C167.352 44.9296 166.136 46.1419 164.312 46.1419C162.488 46.1419 160.867 44.9296 160.867 43.3132C160.867 41.6967 162.083 40.4844 163.907 40.4844C165.731 40.4844 167.15 41.6967 167.352 43.3132Z" fill="currentColor"/>
<path fill-rule="evenodd" clip-rule="evenodd" d="M148.705 43.3132C148.705 44.9296 147.286 46.1419 145.462 46.1419C143.638 46.1419 142.016 44.9296 142.016 43.3132C142.016 41.6967 143.436 40.4844 145.26 40.4844C147.084 40.4844 148.502 41.6967 148.705 43.3132Z" fill="currentColor"/>
<path fill-rule="evenodd" clip-rule="evenodd" d="M158.029 43.3132C158.029 44.9296 156.61 46.1419 154.785 46.1419C152.961 46.1419 151.34 44.9296 151.34 43.3132C151.34 41.6967 152.758 40.4844 154.582 40.4844C156.408 40.4844 157.826 41.6967 158.029 43.3132Z" fill="currentColor"/>
<path fill-rule="evenodd" clip-rule="evenodd" d="M139.178 43.3132C139.178 44.9296 137.76 46.1419 135.936 46.1419C134.112 46.1419 132.693 44.9296 132.49 43.3132C132.49 41.6967 133.909 40.4844 135.733 40.4844C137.76 40.4844 139.178 41.6967 139.178 43.3132Z" fill="currentColor"/>
<path fill-rule="evenodd" clip-rule="evenodd" d="M166.743 35.4304C166.743 37.0468 165.527 38.259 163.703 38.259C161.879 38.259 160.258 37.0468 160.258 35.4304C160.258 33.8138 161.474 32.6016 163.298 32.6016C165.122 32.8036 166.743 34.016 166.743 35.4304Z" fill="currentColor"/>
<path fill-rule="evenodd" clip-rule="evenodd" d="M148.301 35.4304C148.301 37.0468 146.882 38.259 145.058 38.259C143.234 38.259 141.814 37.0468 141.611 35.4304C141.611 33.8138 143.031 32.6016 144.855 32.6016C146.679 32.8036 148.301 34.016 148.301 35.4304Z" fill="currentColor"/>
<path fill-rule="evenodd" clip-rule="evenodd" d="M157.622 35.4304C157.622 37.0468 156.203 38.259 154.582 38.259C152.758 38.259 151.339 37.0468 151.137 35.4304C151.137 33.8138 152.555 32.6016 154.177 32.6016C156 32.8036 157.419 34.016 157.622 35.4304Z" fill="currentColor"/>
<path fill-rule="evenodd" clip-rule="evenodd" d="M138.976 35.4304C138.976 37.0468 137.557 38.259 135.733 38.259C133.909 38.259 132.491 37.0468 132.288 35.4304C132.288 33.8138 133.707 32.6016 135.531 32.6016C137.355 32.8036 138.976 34.016 138.976 35.4304Z" fill="currentColor"/>
<path fill-rule="evenodd" clip-rule="evenodd" d="M129.855 51.1921C129.855 52.8085 128.436 54.0208 126.612 54.0208C124.788 54.0208 123.167 52.8085 123.167 51.1921C123.167 49.5756 124.586 48.3633 126.41 48.3633C128.233 48.3633 129.855 49.5756 129.855 51.1921Z" fill="currentColor"/>
<path fill-rule="evenodd" clip-rule="evenodd" d="M129.654 43.3132C129.654 44.9296 128.235 46.1419 126.41 46.1419C124.586 46.1419 123.168 44.9296 122.965 43.3132C122.965 41.6967 124.383 40.4844 126.207 40.4844C128.033 40.4844 129.654 41.6967 129.654 43.3132Z" fill="currentColor"/>
<path fill-rule="evenodd" clip-rule="evenodd" d="M129.451 35.4304C129.451 37.0468 128.033 38.259 126.207 38.259C124.383 38.259 122.965 37.0468 122.965 35.4304C122.965 33.8138 124.383 32.6016 126.207 32.6016C127.83 32.8036 129.451 34.016 129.451 35.4304Z" fill="currentColor"/>
<path fill-rule="evenodd" clip-rule="evenodd" d="M120.33 51.1921C120.33 52.8085 118.911 54.0208 117.087 54.0208C115.262 54.0208 113.641 52.8085 113.641 51.1921C113.641 49.5756 115.059 48.3633 116.885 48.3633C118.709 48.3633 120.33 49.5756 120.33 51.1921Z" fill="currentColor"/>
<path fill-rule="evenodd" clip-rule="evenodd" d="M120.33 43.3132C120.33 44.9296 118.912 46.1419 117.088 46.1419C115.264 46.1419 113.844 44.9296 113.844 43.3132C113.844 41.6967 115.264 40.4844 117.088 40.4844C118.709 40.4844 120.33 41.6967 120.33 43.3132Z" fill="currentColor"/>
<path fill-rule="evenodd" clip-rule="evenodd" d="M120.127 35.4304C120.127 37.0468 118.709 38.259 116.885 38.259C115.059 38.259 113.641 37.0468 113.641 35.4304C113.641 33.8138 115.059 32.6016 116.885 32.6016C118.709 32.8036 120.127 34.016 120.127 35.4304Z" fill="currentColor"/>
<path fill-rule="evenodd" clip-rule="evenodd" d="M138.166 11.9928C138.166 13.6093 136.747 14.8216 135.126 14.8216C133.301 14.8216 131.883 13.6093 131.883 11.9928C131.883 10.3764 133.302 9.16406 134.923 9.16406C136.544 9.16406 138.166 10.3764 138.166 11.9928Z" fill="currentColor"/>
<path fill-rule="evenodd" clip-rule="evenodd" d="M128.841 11.9928C128.841 13.6093 127.422 14.8216 125.801 14.8216C123.977 14.8216 122.559 13.6093 122.559 11.9928C122.559 10.3764 123.977 9.16406 125.598 9.16406C127.422 9.16406 128.841 10.3764 128.841 11.9928Z" fill="currentColor"/>
<path fill-rule="evenodd" clip-rule="evenodd" d="M137.76 3.30533C137.76 4.92179 136.342 6.13417 134.72 6.13417C132.896 6.13417 131.478 4.92179 131.478 3.30533C131.478 1.68889 132.896 0.476562 134.518 0.476562C136.342 0.476562 137.76 1.89094 137.76 3.30533Z" fill="currentColor"/>
<path fill-rule="evenodd" clip-rule="evenodd" d="M128.639 3.30533C128.639 4.92179 127.22 6.13417 125.599 6.13417C123.775 6.13417 122.356 4.92179 122.356 3.30533C122.356 1.68889 123.775 0.476562 125.396 0.476562C127.22 0.476562 128.639 1.89094 128.639 3.30533Z" fill="currentColor"/>
<path fill-rule="evenodd" clip-rule="evenodd" d="M119.722 11.9928C119.722 13.6093 118.303 14.8216 116.479 14.8216C114.655 14.8216 113.235 13.6093 113.235 11.9928C113.235 10.3764 114.655 9.16406 116.479 9.16406C118.303 9.16406 119.722 10.3764 119.722 11.9928Z" fill="currentColor"/>
<path fill-rule="evenodd" clip-rule="evenodd" d="M109.993 11.9928C109.993 13.6093 108.574 14.8216 106.75 14.8216C104.926 14.8216 103.508 13.6093 103.508 11.9928C103.508 10.3764 104.926 9.16406 106.75 9.16406C108.574 9.16406 109.993 10.3764 109.993 11.9928Z" fill="currentColor"/>
</svg>
