<svg viewBox="0 0 1620 171" fill="none" xmlns="http://www.w3.org/2000/svg">
<path d="M177.365 126.801C174.367 156.644 133.056 174.628 80.6677 169.415C54.8645 167.982 30.1038 158.599 9.90428 142.569C5.9947 139.311 2.60639 135.271 0 130.841L34.9256 112.987L37.4017 115.984C53.3007 134.099 123.803 140.745 137.487 122.37C138.139 115.333 102.952 106.992 86.4018 103.474C68.939 99.8246 51.9975 94.7422 35.4469 88.0959C7.9495 74.9336 3.77925 56.8192 4.95212 45.4815C7.94947 15.6383 49.2607 -2.34575 101.649 2.86702C129.016 4.43085 155.08 14.8564 175.671 32.7101L145.958 57.6012C131.232 38.7049 59.556 31.407 44.6995 49.782C44.048 56.8193 80.0161 65.29 95.3938 68.6783C112.987 72.3273 130.059 77.54 146.74 84.4469C174.498 95.6544 178.668 113.899 177.365 126.801Z" fill="#1D1D1B"/>
<path d="M358.249 76.106L463.286 168.633H402.297L323.584 99.303L294.522 118.59V168.242H255.166V0.129883H294.522V70.6327L399.56 0.520865H471.496L358.249 76.106Z" fill="#1D1D1B"/>
<path d="M672.449 98.1304V168.242H633.093V98.1304L522.582 0H583.572L653.162 61.7713L723.926 0H786.088L672.449 98.1304Z" fill="#1D1D1B"/>
<path d="M1084.52 0V168.503H1037.73L891.386 50.4336V168.503H852.029V0.390942H896.077L1045.16 121.327V0H1084.52Z" fill="#1D1D1B"/>
<path d="M1207.28 40.6596V64.2474H1321.31V103.604H1207.28V127.583H1331.99V166.939H1167.14V0H1331.86V39.4867L1207.28 40.6596Z" fill="#1D1D1B"/>
<path d="M1620 40.6592H1533.86V168.633H1494.5V40.6592H1415.79V1.30273H1619.87L1620 40.6592Z" fill="#1D1D1B"/>
</svg>
