<svg viewBox="0 0 1619 168" fill="none" xmlns="http://www.w3.org/2000/svg">
<path d="M179.744 116.142C179.744 145.961 140.38 167.873 87.7211 167.873C61.9131 169.04 36.3658 162.168 14.5985 148.295C10.4275 145.443 6.6475 141.813 3.6496 137.664L36.6265 116.531L39.3637 119.253C56.9601 135.589 127.867 135.2 139.598 115.753C139.598 108.751 103.753 103.954 86.9391 102.01C69.2124 100.065 51.7464 96.6939 34.6714 91.7671C5.99581 81.5246 0 63.892 0 52.6123C0 22.7924 39.3637 0.881285 92.0225 0.881285C119.395 -0.28558 146.376 7.49353 168.664 23.1814L141.553 50.6675C124.999 33.4238 52.9195 33.2942 40.0155 53.0012C40.0155 60.0024 76.6419 64.7996 92.2832 66.7444C110.14 68.6891 127.737 72.1897 144.942 77.3758C173.748 85.5439 179.744 103.176 179.744 116.142Z" fill="#1D1D1B"/>
<path d="M356.944 75.6587L461.933 167.641H400.972L322.295 98.719L293.247 117.893V167.252H253.909V0.129883H293.247V70.2175L398.236 0.518562H470.139L356.944 75.6587Z" fill="#1D1D1B"/>
<path d="M670.997 97.5526V167.252H631.659V97.5526L521.199 0H582.16L651.719 61.4076L722.45 0H784.583L670.997 97.5526Z" fill="#1D1D1B"/>
<path d="M1082.88 0V167.511H1036.11L889.833 50.1366V167.511H850.495V0.38864H894.523L1043.54 120.613V0H1082.88Z" fill="#1D1D1B"/>
<path d="M1205.58 40.4202V63.8691H1319.56V102.994H1205.58V126.831H1330.24V165.956H1165.46V0H1330.11V39.2542L1205.58 40.4202Z" fill="#1D1D1B"/>
<path d="M1618.11 40.4203H1532.01V167.64H1492.67V40.4203H1414V1.29565H1617.98V40.4203H1618.11Z" fill="#1D1D1B"/>
</svg>
