<svg viewBox="0 0 180 18" fill="none" xmlns="http://www.w3.org/2000/svg">
<path d="M49.0772 12.1416C49.0772 14.9975 45.4964 17.0959 40.7062 17.0959C38.3586 17.2077 36.0346 16.5496 34.0545 15.221C33.6751 14.9478 33.3313 14.6001 33.0586 14.2028L36.0583 12.1788L36.3073 12.4396C37.908 14.0041 44.3581 13.9669 45.4253 12.1043C45.4253 11.4338 42.1646 10.9744 40.6351 10.7882C39.0226 10.6019 37.4337 10.2791 35.8805 9.80722C33.272 8.82629 32.7266 7.1376 32.7266 6.05733C32.7266 3.20145 36.3073 1.103 41.0975 1.103C43.5875 0.991249 46.0418 1.73626 48.0693 3.2387L45.6031 5.87108C44.0973 4.21963 37.5404 4.20721 36.3666 6.09458C36.3666 6.76509 39.6984 7.22452 41.1212 7.41077C42.7456 7.59702 44.3463 7.93228 45.9114 8.42895C48.5318 9.21122 49.0772 10.8999 49.0772 12.1416Z" fill="black"/>
<path d="M65.1892 8.21037L74.7458 17.108H69.1968L62.0471 10.441L59.403 12.2958V17.0704H55.8223V0.904297H59.403V7.68403L68.9597 0.941895H75.5047L65.1892 8.21037Z" fill="black"/>
<path d="M93.7877 10.3283V17.0704H90.207V10.3283L80.1523 0.904297H85.7014L92.0329 6.8444L98.4712 0.904297H104.127L93.7877 10.3283Z" fill="black"/>
<path d="M131.28 0.891846V17.0955H127.023L113.708 5.74167V17.0955H110.127V0.92944H114.135L127.699 12.559V0.891846H131.28Z" fill="black"/>
<path d="M142.449 4.80178V7.07005H152.824V10.8547H142.449V13.1605H153.796V16.9451H138.797V0.891846H153.796V4.689L142.449 4.80178Z" fill="black"/>
<path d="M180 4.80171H172.162V17.108H168.581V4.80171H161.42V1.01709H179.988V4.80171H180Z" fill="black"/>
<path d="M4.3989 13.5866C6.82956 13.5866 8.7978 11.5063 8.7978 8.92479C8.7978 6.35576 6.82956 4.26294 4.3989 4.26294C1.96824 4.26294 0 6.34323 0 8.92479C0 11.4938 1.96824 13.5866 4.3989 13.5866Z" fill="#1D1D1B"/>
<path d="M17.5356 13.5866C19.9663 13.5866 21.9345 11.5063 21.9345 8.92479C21.9345 6.35576 19.9663 4.26294 17.5356 4.26294C15.105 4.26294 13.1367 6.34323 13.1367 8.92479C13.1367 11.4938 15.105 13.5866 17.5356 13.5866Z" fill="#D02E27"/>
</svg>
