<svg viewBox="0 0 333 29" fill="none" xmlns="http://www.w3.org/2000/svg">
<path d="M90.1523 21.4311C89.6259 26.4323 82.6505 29.4594 73.8544 28.5381C69.5112 28.2749 65.3654 26.6736 61.9655 23.9537C61.3293 23.4053 60.759 22.7253 60.3203 21.9575L66.2209 18.9743L66.6157 19.4788C69.2699 22.5279 81.1589 23.7124 83.4621 20.6414C83.5937 19.4569 77.6711 18.0311 74.8854 17.4169C71.946 16.7808 69.0944 15.9034 66.3306 14.7847C61.7022 12.5692 61.0222 9.49828 61.2197 7.5899C61.7461 2.58865 68.7215 -0.438418 77.5176 0.482865C82.124 0.768024 86.4891 2.54479 89.933 5.57186L84.9098 9.71763C82.453 6.51508 70.3886 5.24282 67.888 8.31377C67.7564 9.49827 73.8105 10.9241 76.3989 11.5383C79.3602 12.1963 82.2337 13.0737 85.0195 14.2363C89.6917 16.1666 90.3717 19.2376 90.1523 21.4311Z" fill="#1D1D1B"/>
<path d="M120.596 12.8098L138.276 28.3838H128.011L114.784 16.7143L109.892 19.9607V28.318H103.268V0.0214844H109.892V11.8885L127.572 0.0872943H139.68L120.596 12.8098Z" fill="#1D1D1B"/>
<path d="M173.505 16.5168V28.318H166.88V16.5168L148.279 0.0214844H158.545L170.258 10.4188L182.169 0.0214844H192.632L173.505 16.5168Z" fill="#1D1D1B"/>
<path d="M242.863 0V28.3624H234.988L210.355 8.48897V28.3624H203.73V0.0658033H211.145L236.239 20.4218V0H242.863Z" fill="#1D1D1B"/>
<path d="M263.528 6.84381V10.8141H282.721V17.4386H263.528V21.4747H284.52V28.0991H256.771V0H284.52V6.6464L263.528 6.84381Z" fill="#1D1D1B"/>
<path d="M332.996 6.84419H318.496V28.3847H311.872V6.84419H298.623V0.219727H332.974L332.996 6.84419Z" fill="#1D1D1B"/>
<path d="M8.1341 22.2203C12.6308 22.2203 16.2721 18.579 16.2721 14.0603C16.2721 9.56358 12.6308 5.90039 8.1341 5.90039C3.63736 5.90039 -0.00390625 9.54165 -0.00390625 14.0603C-0.00390625 18.5571 3.63736 22.2203 8.1341 22.2203Z" fill="#1D1D1B"/>
<path d="M32.4388 22.2203C36.9355 22.2203 40.5768 18.579 40.5768 14.0603C40.5768 9.56358 36.9355 5.90039 32.4388 5.90039C27.942 5.90039 24.3008 9.54165 24.3008 14.0603C24.3008 18.5571 27.942 22.2203 32.4388 22.2203Z" fill="#D02E27"/>
</svg>
