<svg viewBox="0 0 333 30" fill="none" xmlns="http://www.w3.org/2000/svg">
<path d="M90.7922 20.8118C90.7922 26.0952 84.1678 29.9773 75.3059 29.9773C70.9627 30.184 66.6634 28.9666 63.0002 26.5086C62.2983 26.0033 61.6622 25.3601 61.1576 24.625L66.7073 20.8807L67.1679 21.3631C70.1292 24.2575 82.062 24.1886 84.0362 20.7429C84.0362 19.5024 78.004 18.6525 75.1743 18.3079C72.1911 17.9634 69.2518 17.3661 66.3782 16.4932C61.5525 14.6785 60.5435 11.5544 60.5435 9.5559C60.5435 4.27253 67.1679 0.390393 76.0298 0.390393C80.6362 0.183652 85.1768 1.56193 88.9277 4.34144L84.3652 9.21133C81.5794 6.15616 69.4492 6.13319 67.2776 9.62481C67.2776 10.8653 73.4414 11.7152 76.0737 12.0598C79.0788 12.4043 82.0401 13.0246 84.9355 13.9434C89.7832 15.3906 90.7922 18.5147 90.7922 20.8118Z" fill="#1D1D1B"/>
<path d="M120.6 13.5397L138.28 30.0003H128.015L114.788 17.6664L109.896 21.0976V29.9307H103.271V0.0234375H109.896V12.566L127.576 0.0929935H139.684L120.6 13.5397Z" fill="#1D1D1B"/>
<path d="M173.509 17.4578V29.9307H166.884V17.4578L148.283 0.0234375H158.549L170.262 11.0126L182.173 0.0234375H192.636L173.509 17.4578Z" fill="#1D1D1B"/>
<path d="M242.867 0V29.9768H234.993L210.359 8.97219V29.9768H203.735V0.069549H211.149L236.243 21.5842V0H242.867Z" fill="#1D1D1B"/>
<path d="M263.531 7.23338V11.4297H282.725V18.4312H263.531V22.6971H284.524V29.6986H256.775V0H284.524V7.02473L263.531 7.23338Z" fill="#1D1D1B"/>
<path d="M333 7.23299H318.501V29.9996H311.876V7.23299H298.627V0.231445H332.978V7.23299H333Z" fill="#1D1D1B"/>
<path d="M8 22.2363C12.4205 22.2363 16 18.6664 16 14.2363C16 9.82772 12.4205 6.23633 8 6.23633C3.57952 6.23633 0 9.80622 0 14.2363C0 18.6449 3.57952 22.2363 8 22.2363Z" fill="#1D1D1B"/>
<path d="M32.3047 22.2363C36.7252 22.2363 40.3047 18.6664 40.3047 14.2363C40.3047 9.82772 36.7252 6.23633 32.3047 6.23633C27.8842 6.23633 24.3047 9.80622 24.3047 14.2363C24.3047 18.6449 27.8842 22.2363 32.3047 22.2363Z" fill="#FE3700"/>
</svg>
