<svg viewBox="0 0 46 71" fill="none" xmlns="http://www.w3.org/2000/svg">
<path fill-rule="evenodd" clip-rule="evenodd" d="M23 0.665039C35.7026 0.665039 46 11.1118 46 23.9983C46 28.2489 44.8828 32.2318 42.9223 35.6664C41.6151 37.9561 34.9743 49.6223 23 70.665C11.0255 49.6223 4.38477 37.9561 3.07788 35.6664C1.11724 32.2318 0 28.2489 0 23.9983C0 11.1118 10.2974 0.665039 22.9998 0.665039M23 13.9983C17.5561 13.9983 13.1429 18.4755 13.1429 23.9983C13.1429 29.5211 17.5561 33.9983 23 33.9983C28.4439 33.9983 32.8571 29.5213 32.8571 23.9983C32.8571 18.4755 28.444 13.9983 23 13.9983Z" fill="currentColor"/>
</svg>
