<svg viewBox="0 0 60 60" fill="none" xmlns="http://www.w3.org/2000/svg">
<g filter="url(#filter0_d_3235_84108)">
<rect x="10" y="10" width="40" height="40" rx="20" fill="#D02E27"/>
<path d="M35.0375 26.6617C35.0375 25.8284 34.7667 25.1534 34.225 24.6367C33.6833 24.1201 32.9708 23.8617 32.0875 23.8617H28.0875V29.4617H32.0875C32.9708 29.4617 33.6833 29.2034 34.225 28.6867C34.7667 28.1701 35.0375 27.4951 35.0375 26.6617ZM38 26.6617C38 28.2701 37.4729 29.5826 36.4187 30.5992C35.3646 31.6159 34.0042 32.1242 32.3375 32.1242H28.0875V33.5992H34.4C34.5167 33.5992 34.6125 33.6367 34.6875 33.7117C34.7625 33.7867 34.8 33.8826 34.8 33.9992V35.5992C34.8 35.7159 34.7625 35.8117 34.6875 35.8867C34.6125 35.9617 34.5167 35.9992 34.4 35.9992H28.0875V38.3992C28.0875 38.5159 28.0479 38.6117 27.9688 38.6867C27.8896 38.7617 27.7958 38.7992 27.6875 38.7992H25.6C25.4833 38.7992 25.3875 38.7617 25.3125 38.6867C25.2375 38.6117 25.2 38.5159 25.2 38.3992V35.9992H22.4C22.2833 35.9992 22.1875 35.9617 22.1125 35.8867C22.0375 35.8117 22 35.7159 22 35.5992V33.9992C22 33.8826 22.0375 33.7867 22.1125 33.7117C22.1875 33.6367 22.2833 33.5992 22.4 33.5992H25.2V32.1242H22.4C22.2833 32.1242 22.1875 32.0867 22.1125 32.0117C22.0375 31.9367 22 31.8409 22 31.7242V29.8617C22 29.7534 22.0375 29.6596 22.1125 29.5805C22.1875 29.5013 22.2833 29.4617 22.4 29.4617H25.2V21.5992C25.2 21.4826 25.2375 21.3867 25.3125 21.3117C25.3875 21.2367 25.4833 21.1992 25.6 21.1992H32.3375C34.0042 21.1992 35.3646 21.7076 36.4187 22.7242C37.4729 23.7409 38 25.0534 38 26.6617Z" fill="white"/>
</g>
<defs>
<filter id="filter0_d_3235_84108" x="0" y="0" width="60" height="60" filterUnits="userSpaceOnUse" color-interpolation-filters="sRGB">
<feFlood flood-opacity="0" result="BackgroundImageFix"/>
<feColorMatrix in="SourceAlpha" type="matrix" values="0 0 0 0 0 0 0 0 0 0 0 0 0 0 0 0 0 0 127 0" result="hardAlpha"/>
<feOffset/>
<feGaussianBlur stdDeviation="5"/>
<feComposite in2="hardAlpha" operator="out"/>
<feColorMatrix type="matrix" values="0 0 0 0 0.815686 0 0 0 0 0.180392 0 0 0 0 0.152941 0 0 0 0.25 0"/>
<feBlend mode="normal" in2="BackgroundImageFix" result="effect1_dropShadow_3235_84108"/>
<feBlend mode="normal" in="SourceGraphic" in2="effect1_dropShadow_3235_84108" result="shape"/>
</filter>
</defs>
</svg>
