<svg viewBox="0 0 48 48" fill="none" xmlns="http://www.w3.org/2000/svg">
<g filter="url(#filter0_d_3235_84112)">
<rect x="2" y="4" width="40" height="40" rx="20" fill="#D02E27"/>
<path d="M28.0016 27.1141C28.0016 28.3813 27.5434 29.4015 26.6268 30.1745C25.7102 30.9396 24.803 31.3978 23.1533 31.5493V34H20.7639V31.5972C18.8192 31.5573 17.4896 31.2145 16.0231 30.5692V27.4131C16.7164 27.7557 17.5493 28.0587 18.5215 28.3216C19.5018 28.5845 19.9986 28.7399 20.7637 28.7879V25.0819L20.3386 24.771C18.7606 24.1493 17.6409 23.4759 16.9793 22.7507C16.3258 22.0175 15.999 21.113 15.999 20.037C15.999 18.8814 16.4493 17.933 17.3499 17.1918C18.2584 16.4427 19.1459 15.9884 20.7637 15.829V14H23.1531V15.7813C24.9782 15.861 26.2521 16.2276 27.7265 16.8811L26.6028 19.6784C25.3596 19.1683 24.4603 18.8575 23.1531 18.746V22.2727C24.7072 22.8704 25.4351 23.3885 26.0888 23.8268C26.7503 24.2651 27.2324 24.7473 27.5353 25.2734C27.846 25.7992 28.0016 26.4129 28.0016 27.1141M24.4031 27.2935C24.4031 26.9588 24.2676 26.676 23.9966 26.4448C23.7256 26.2136 23.695 25.9746 23.1531 25.7274V28.7042C24.237 28.5208 24.4031 28.0506 24.4031 27.2935ZM19.5975 20.037C19.5975 20.3877 19.717 20.6786 19.9561 20.9096C20.2032 21.1327 20.2218 21.3639 20.7637 21.6029V18.7938C19.7355 18.9453 19.5975 19.3597 19.5975 20.037Z" fill="white"/>
</g>
<defs>
<filter id="filter0_d_3235_84112" x="0" y="0" width="48" height="48" filterUnits="userSpaceOnUse" color-interpolation-filters="sRGB">
<feFlood flood-opacity="0" result="BackgroundImageFix"/>
<feColorMatrix in="SourceAlpha" type="matrix" values="0 0 0 0 0 0 0 0 0 0 0 0 0 0 0 0 0 0 127 0" result="hardAlpha"/>
<feOffset dx="2"/>
<feGaussianBlur stdDeviation="2"/>
<feComposite in2="hardAlpha" operator="out"/>
<feColorMatrix type="matrix" values="0 0 0 0 0.9729 0 0 0 0 0.819243 0 0 0 0 0.812603 0 0 0 0.3 0"/>
<feBlend mode="normal" in2="BackgroundImageFix" result="effect1_dropShadow_3235_84112"/>
<feBlend mode="normal" in="SourceGraphic" in2="effect1_dropShadow_3235_84112" result="shape"/>
</filter>
</defs>
</svg>
